<ttFont>
    <TTGlyph name=".notdef" xMin="65" yMin="176" xMax="201" yMax="312">
      <contour>
        <pt x="65" y="243" on="1"/>
        <pt x="65" y="270" on="0"/>
        <pt x="104" y="312" on="0"/>
        <pt x="133" y="312" on="1"/>
        <pt x="146" y="312" on="0"/>
        <pt x="171" y="301" on="0"/>
        <pt x="190" y="281" on="0"/>
        <pt x="201" y="256" on="0"/>
        <pt x="201" y="243" on="1"/>
        <pt x="201" y="214" on="0"/>
        <pt x="159" y="176" on="0"/>
        <pt x="133" y="176" on="1"/>
        <pt x="104" y="176" on="0"/>
        <pt x="65" y="214" on="0"/>
      </contour>
    </TTGlyph>
    <TTGlyph name="A" xMin="-19" yMin="-6" xMax="687" yMax="665">
      <contour>
        <pt x="372" y="665" on="1"/>
        <pt x="536" y="211" on="1"/>
        <pt x="546" y="181" on="0"/>
        <pt x="561" y="141" on="0"/>
        <pt x="572" y="113" on="0"/>
        <pt x="580" y="94" on="0"/>
        <pt x="583" y="87" on="1"/>
        <pt x="594" y="62" on="0"/>
        <pt x="617" y="35" on="0"/>
        <pt x="641" y="22" on="0"/>
        <pt x="666" y="20" on="0"/>
        <pt x="679" y="20" on="1"/>
        <pt x="684" y="16" on="1"/>
        <pt x="687" y="-2" on="1"/>
        <pt x="685" y="-6" on="1"/>
        <pt x="678" y="-6" on="0"/>
        <pt x="650" y="-4" on="0"/>
        <pt x="620" y="-2" on="0"/>
        <pt x="593" y="0" on="0"/>
        <pt x="586" y="0" on="1"/>
        <pt x="553" y="0" on="1"/>
        <pt x="546" y="0" on="0"/>
        <pt x="514" y="-2" on="0"/>
        <pt x="479" y="-4" on="0"/>
        <pt x="447" y="-6" on="0"/>
        <pt x="440" y="-6" on="1"/>
        <pt x="438" y="-2" on="1"/>
        <pt x="441" y="16" on="1"/>
        <pt x="445" y="20" on="1"/>
        <pt x="474" y="20" on="0"/>
        <pt x="506" y="33" on="0"/>
        <pt x="506" y="62" on="1"/>
        <pt x="506" y="85" on="0"/>
        <pt x="475" y="168" on="0"/>
        <pt x="452" y="231" on="1"/>
        <pt x="435" y="279" on="1"/>
        <pt x="211" y="279" on="1"/>
        <pt x="194" y="231" on="1"/>
        <pt x="171" y="168" on="0"/>
        <pt x="140" y="85" on="0"/>
        <pt x="140" y="62" on="1"/>
        <pt x="140" y="33" on="0"/>
        <pt x="172" y="20" on="0"/>
        <pt x="201" y="20" on="1"/>
        <pt x="206" y="16" on="1"/>
        <pt x="209" y="-2" on="1"/>
        <pt x="207" y="-6" on="1"/>
        <pt x="200" y="-6" on="0"/>
        <pt x="170" y="-4" on="0"/>
        <pt x="137" y="-2" on="0"/>
        <pt x="107" y="0" on="0"/>
        <pt x="100" y="0" on="1"/>
        <pt x="81" y="0" on="1"/>
        <pt x="74" y="0" on="0"/>
        <pt x="46" y="-2" on="0"/>
        <pt x="16" y="-4" on="0"/>
        <pt x="-11" y="-6" on="0"/>
        <pt x="-18" y="-6" on="1"/>
        <pt x="-19" y="-2" on="1"/>
        <pt x="-17" y="16" on="1"/>
        <pt x="-12" y="20" on="1"/>
        <pt x="1" y="20" on="0"/>
        <pt x="25" y="22" on="0"/>
        <pt x="49" y="35" on="0"/>
        <pt x="72" y="62" on="0"/>
        <pt x="84" y="87" on="1"/>
        <pt x="87" y="92" on="0"/>
        <pt x="92" y="105" on="0"/>
        <pt x="103" y="131" on="0"/>
        <pt x="120" y="174" on="0"/>
        <pt x="147" y="243" on="0"/>
        <pt x="186" y="343" on="0"/>
        <pt x="214" y="414" on="1"/>
        <pt x="227" y="449" on="0"/>
        <pt x="255" y="518" on="0"/>
        <pt x="279" y="578" on="0"/>
        <pt x="298" y="624" on="0"/>
        <pt x="302" y="635" on="1"/>
        <pt x="361" y="665" on="1"/>
      </contour>
      <contour>
        <pt x="228" y="322" on="1"/>
        <pt x="419" y="322" on="1"/>
        <pt x="324" y="579" on="1"/>
      </contour>
    </TTGlyph>
    <TTGlyph name="AE" xMin="-30" yMin="-6" xMax="826" yMax="660">
      <contour>
        <pt x="359" y="520" on="1"/>
        <pt x="374" y="546" on="0"/>
        <pt x="398" y="587" on="0"/>
        <pt x="398" y="602" on="1"/>
        <pt x="398" y="616" on="0"/>
        <pt x="384" y="630" on="0"/>
        <pt x="355" y="634" on="1"/>
        <pt x="351" y="638" on="1"/>
        <pt x="348" y="656" on="1"/>
        <pt x="350" y="660" on="1"/>
        <pt x="357" y="659" on="0"/>
        <pt x="395" y="657" on="0"/>
        <pt x="440" y="655" on="0"/>
        <pt x="481" y="654" on="0"/>
        <pt x="492" y="654" on="1"/>
        <pt x="628" y="654" on="1"/>
        <pt x="641" y="654" on="0"/>
        <pt x="694" y="655" on="0"/>
        <pt x="748" y="657" on="0"/>
        <pt x="792" y="658" on="0"/>
        <pt x="797" y="658" on="1"/>
        <pt x="801" y="648" on="1"/>
        <pt x="797" y="539" on="1"/>
        <pt x="772" y="539" on="1"/>
        <pt x="768" y="543" on="1"/>
        <pt x="766" y="566" on="0"/>
        <pt x="759" y="592" on="0"/>
        <pt x="726" y="604" on="0"/>
        <pt x="660" y="606" on="0"/>
        <pt x="600" y="606" on="1"/>
        <pt x="533" y="606" on="1"/>
        <pt x="528" y="547" on="0"/>
        <pt x="527" y="429" on="0"/>
        <pt x="527" y="366" on="1"/>
        <pt x="588" y="368" on="0"/>
        <pt x="666" y="369" on="0"/>
        <pt x="678" y="383" on="1"/>
        <pt x="685" y="391" on="0"/>
        <pt x="698" y="417" on="0"/>
        <pt x="698" y="432" on="1"/>
        <pt x="702" y="436" on="1"/>
        <pt x="720" y="438" on="1"/>
        <pt x="723" y="436" on="1"/>
        <pt x="721" y="414" on="0"/>
        <pt x="719" y="370" on="0"/>
        <pt x="719" y="348" on="1"/>
        <pt x="719" y="324" on="0"/>
        <pt x="721" y="283" on="0"/>
        <pt x="723" y="259" on="1"/>
        <pt x="720" y="257" on="1"/>
        <pt x="701" y="259" on="1"/>
        <pt x="698" y="262" on="1"/>
        <pt x="698" y="278" on="0"/>
        <pt x="686" y="305" on="0"/>
        <pt x="678" y="314" on="1"/>
        <pt x="666" y="327" on="0"/>
        <pt x="591" y="327" on="0"/>
        <pt x="527" y="328" on="1"/>
        <pt x="527" y="256" on="0"/>
        <pt x="527" y="171" on="0"/>
        <pt x="528" y="118" on="0"/>
        <pt x="530" y="86" on="0"/>
        <pt x="532" y="67" on="1"/>
        <pt x="533" y="48" on="0"/>
        <pt x="553" y="48" on="1"/>
        <pt x="609" y="48" on="1"/>
        <pt x="669" y="48" on="0"/>
        <pt x="738" y="53" on="0"/>
        <pt x="775" y="69" on="0"/>
        <pt x="790" y="102" on="0"/>
        <pt x="797" y="129" on="1"/>
        <pt x="800" y="133" on="1"/>
        <pt x="826" y="133" on="1"/>
        <pt x="808" y="6" on="1"/>
        <pt x="800" y="-4" on="1"/>
        <pt x="795" y="-4" on="0"/>
        <pt x="759" y="-3" on="0"/>
        <pt x="714" y="-1" on="0"/>
        <pt x="669" y="0" on="0"/>
        <pt x="656" y="0" on="1"/>
        <pt x="483" y="0" on="1"/>
        <pt x="476" y="0" on="0"/>
        <pt x="444" y="-2" on="0"/>
        <pt x="410" y="-4" on="0"/>
        <pt x="378" y="-6" on="0"/>
        <pt x="371" y="-6" on="1"/>
        <pt x="369" y="-2" on="1"/>
        <pt x="372" y="16" on="1"/>
        <pt x="376" y="20" on="1"/>
        <pt x="392" y="20" on="0"/>
        <pt x="421" y="23" on="0"/>
        <pt x="430" y="30" on="1"/>
        <pt x="438" y="37" on="0"/>
        <pt x="452" y="59" on="0"/>
        <pt x="454" y="87" on="1"/>
        <pt x="455" y="94" on="0"/>
        <pt x="456" y="117" on="0"/>
        <pt x="457" y="166" on="0"/>
        <pt x="457" y="254" on="0"/>
        <pt x="457" y="328" on="1"/>
        <pt x="298" y="328" on="1"/>
        <pt x="250" y="247" on="0"/>
        <pt x="191" y="147" on="0"/>
        <pt x="160" y="87" on="0"/>
        <pt x="150" y="58" on="0"/>
        <pt x="150" y="49" on="1"/>
        <pt x="150" y="29" on="0"/>
        <pt x="183" y="20" on="0"/>
        <pt x="207" y="20" on="1"/>
        <pt x="212" y="16" on="1"/>
        <pt x="215" y="-2" on="1"/>
        <pt x="212" y="-6" on="1"/>
        <pt x="205" y="-6" on="0"/>
        <pt x="170" y="-4" on="0"/>
        <pt x="131" y="-2" on="0"/>
        <pt x="96" y="0" on="0"/>
        <pt x="89" y="0" on="1"/>
        <pt x="70" y="0" on="1"/>
        <pt x="63" y="0" on="0"/>
        <pt x="35" y="-2" on="0"/>
        <pt x="5" y="-4" on="0"/>
        <pt x="-23" y="-6" on="0"/>
        <pt x="-30" y="-6" on="1"/>
        <pt x="-30" y="-2" on="1"/>
        <pt x="-28" y="16" on="1"/>
        <pt x="-23" y="20" on="1"/>
        <pt x="-5" y="22" on="0"/>
        <pt x="42" y="29" on="0"/>
        <pt x="56" y="39" on="1"/>
        <pt x="66" y="46" on="0"/>
        <pt x="87" y="71" on="0"/>
        <pt x="98" y="87" on="1"/>
        <pt x="101" y="92" on="0"/>
        <pt x="130" y="137" on="0"/>
        <pt x="172" y="207" on="0"/>
        <pt x="225" y="294" on="0"/>
        <pt x="281" y="387" on="0"/>
        <pt x="336" y="480" on="0"/>
      </contour>
      <contour>
        <pt x="322" y="366" on="1"/>
        <pt x="457" y="366" on="1"/>
        <pt x="457" y="417" on="0"/>
        <pt x="457" y="492" on="0"/>
        <pt x="457" y="546" on="0"/>
        <pt x="456" y="581" on="0"/>
        <pt x="456" y="593" on="1"/>
      </contour>
    </TTGlyph>
    <TTGlyph name="Aacute" xMin="-19" yMin="-6" xMax="687" yMax="848">
      <contour>
        <pt x="230" y="721" on="1"/>
        <pt x="224" y="741" on="1"/>
        <pt x="227" y="748" on="1"/>
        <pt x="407" y="848" on="1"/>
        <pt x="424" y="847" on="0"/>
        <pt x="442" y="828" on="0"/>
        <pt x="442" y="814" on="1"/>
        <pt x="442" y="809" on="0"/>
        <pt x="441" y="800" on="0"/>
        <pt x="439" y="795" on="1"/>
        <pt x="237" y="718" on="1"/>
      </contour>
      <contour>
        <pt x="372" y="665" on="1"/>
        <pt x="536" y="211" on="1"/>
        <pt x="546" y="181" on="0"/>
        <pt x="561" y="141" on="0"/>
        <pt x="572" y="113" on="0"/>
        <pt x="580" y="94" on="0"/>
        <pt x="583" y="87" on="1"/>
        <pt x="594" y="62" on="0"/>
        <pt x="617" y="35" on="0"/>
        <pt x="641" y="22" on="0"/>
        <pt x="666" y="20" on="0"/>
        <pt x="679" y="20" on="1"/>
        <pt x="684" y="16" on="1"/>
        <pt x="687" y="-2" on="1"/>
        <pt x="685" y="-6" on="1"/>
        <pt x="678" y="-6" on="0"/>
        <pt x="650" y="-4" on="0"/>
        <pt x="620" y="-2" on="0"/>
        <pt x="593" y="0" on="0"/>
        <pt x="586" y="0" on="1"/>
        <pt x="553" y="0" on="1"/>
        <pt x="546" y="0" on="0"/>
        <pt x="514" y="-2" on="0"/>
        <pt x="479" y="-4" on="0"/>
        <pt x="447" y="-6" on="0"/>
        <pt x="440" y="-6" on="1"/>
        <pt x="438" y="-2" on="1"/>
        <pt x="441" y="16" on="1"/>
        <pt x="445" y="20" on="1"/>
        <pt x="474" y="20" on="0"/>
        <pt x="506" y="33" on="0"/>
        <pt x="506" y="62" on="1"/>
        <pt x="506" y="85" on="0"/>
        <pt x="475" y="168" on="0"/>
        <pt x="452" y="231" on="1"/>
        <pt x="435" y="279" on="1"/>
        <pt x="211" y="279" on="1"/>
        <pt x="194" y="231" on="1"/>
        <pt x="171" y="168" on="0"/>
        <pt x="140" y="85" on="0"/>
        <pt x="140" y="62" on="1"/>
        <pt x="140" y="33" on="0"/>
        <pt x="172" y="20" on="0"/>
        <pt x="201" y="20" on="1"/>
        <pt x="206" y="16" on="1"/>
        <pt x="209" y="-2" on="1"/>
        <pt x="207" y="-6" on="1"/>
        <pt x="200" y="-6" on="0"/>
        <pt x="170" y="-4" on="0"/>
        <pt x="137" y="-2" on="0"/>
        <pt x="107" y="0" on="0"/>
        <pt x="100" y="0" on="1"/>
        <pt x="81" y="0" on="1"/>
        <pt x="74" y="0" on="0"/>
        <pt x="46" y="-2" on="0"/>
        <pt x="16" y="-4" on="0"/>
        <pt x="-11" y="-6" on="0"/>
        <pt x="-18" y="-6" on="1"/>
        <pt x="-19" y="-2" on="1"/>
        <pt x="-17" y="16" on="1"/>
        <pt x="-12" y="20" on="1"/>
        <pt x="1" y="20" on="0"/>
        <pt x="25" y="22" on="0"/>
        <pt x="49" y="35" on="0"/>
        <pt x="72" y="62" on="0"/>
        <pt x="84" y="87" on="1"/>
        <pt x="87" y="92" on="0"/>
        <pt x="92" y="105" on="0"/>
        <pt x="103" y="131" on="0"/>
        <pt x="120" y="174" on="0"/>
        <pt x="147" y="243" on="0"/>
        <pt x="186" y="343" on="0"/>
        <pt x="214" y="414" on="1"/>
        <pt x="227" y="449" on="0"/>
        <pt x="255" y="518" on="0"/>
        <pt x="279" y="578" on="0"/>
        <pt x="298" y="624" on="0"/>
        <pt x="302" y="635" on="1"/>
        <pt x="361" y="665" on="1"/>
      </contour>
      <contour>
        <pt x="228" y="322" on="1"/>
        <pt x="419" y="322" on="1"/>
        <pt x="324" y="579" on="1"/>
      </contour>
    </TTGlyph>
    <TTGlyph name="Acircumflex" xMin="-19" yMin="-6" xMax="687" yMax="842">
      <contour>
        <pt x="340" y="842" on="1"/>
        <pt x="450" y="743" on="1"/>
        <pt x="453" y="736" on="1"/>
        <pt x="447" y="716" on="1"/>
        <pt x="440" y="713" on="1"/>
        <pt x="336" y="775" on="1"/>
        <pt x="232" y="713" on="1"/>
        <pt x="225" y="716" on="1"/>
        <pt x="219" y="736" on="1"/>
        <pt x="222" y="743" on="1"/>
        <pt x="332" y="842" on="1"/>
      </contour>
      <contour>
        <pt x="372" y="665" on="1"/>
        <pt x="536" y="211" on="1"/>
        <pt x="546" y="181" on="0"/>
        <pt x="561" y="141" on="0"/>
        <pt x="572" y="113" on="0"/>
        <pt x="580" y="94" on="0"/>
        <pt x="583" y="87" on="1"/>
        <pt x="594" y="62" on="0"/>
        <pt x="617" y="35" on="0"/>
        <pt x="641" y="22" on="0"/>
        <pt x="666" y="20" on="0"/>
        <pt x="679" y="20" on="1"/>
        <pt x="684" y="16" on="1"/>
        <pt x="687" y="-2" on="1"/>
        <pt x="685" y="-6" on="1"/>
        <pt x="678" y="-6" on="0"/>
        <pt x="650" y="-4" on="0"/>
        <pt x="620" y="-2" on="0"/>
        <pt x="593" y="0" on="0"/>
        <pt x="586" y="0" on="1"/>
        <pt x="553" y="0" on="1"/>
        <pt x="546" y="0" on="0"/>
        <pt x="514" y="-2" on="0"/>
        <pt x="479" y="-4" on="0"/>
        <pt x="447" y="-6" on="0"/>
        <pt x="440" y="-6" on="1"/>
        <pt x="438" y="-2" on="1"/>
        <pt x="441" y="16" on="1"/>
        <pt x="445" y="20" on="1"/>
        <pt x="474" y="20" on="0"/>
        <pt x="506" y="33" on="0"/>
        <pt x="506" y="62" on="1"/>
        <pt x="506" y="85" on="0"/>
        <pt x="475" y="168" on="0"/>
        <pt x="452" y="231" on="1"/>
        <pt x="435" y="279" on="1"/>
        <pt x="211" y="279" on="1"/>
        <pt x="194" y="231" on="1"/>
        <pt x="171" y="168" on="0"/>
        <pt x="140" y="85" on="0"/>
        <pt x="140" y="62" on="1"/>
        <pt x="140" y="33" on="0"/>
        <pt x="172" y="20" on="0"/>
        <pt x="201" y="20" on="1"/>
        <pt x="206" y="16" on="1"/>
        <pt x="209" y="-2" on="1"/>
        <pt x="207" y="-6" on="1"/>
        <pt x="200" y="-6" on="0"/>
        <pt x="170" y="-4" on="0"/>
        <pt x="137" y="-2" on="0"/>
        <pt x="107" y="0" on="0"/>
        <pt x="100" y="0" on="1"/>
        <pt x="81" y="0" on="1"/>
        <pt x="74" y="0" on="0"/>
        <pt x="46" y="-2" on="0"/>
        <pt x="16" y="-4" on="0"/>
        <pt x="-11" y="-6" on="0"/>
        <pt x="-18" y="-6" on="1"/>
        <pt x="-19" y="-2" on="1"/>
        <pt x="-17" y="16" on="1"/>
        <pt x="-12" y="20" on="1"/>
        <pt x="1" y="20" on="0"/>
        <pt x="25" y="22" on="0"/>
        <pt x="49" y="35" on="0"/>
        <pt x="72" y="62" on="0"/>
        <pt x="84" y="87" on="1"/>
        <pt x="87" y="92" on="0"/>
        <pt x="92" y="105" on="0"/>
        <pt x="103" y="131" on="0"/>
        <pt x="120" y="174" on="0"/>
        <pt x="147" y="243" on="0"/>
        <pt x="186" y="343" on="0"/>
        <pt x="214" y="414" on="1"/>
        <pt x="227" y="449" on="0"/>
        <pt x="255" y="518" on="0"/>
        <pt x="279" y="578" on="0"/>
        <pt x="298" y="624" on="0"/>
        <pt x="302" y="635" on="1"/>
        <pt x="361" y="665" on="1"/>
      </contour>
      <contour>
        <pt x="228" y="322" on="1"/>
        <pt x="419" y="322" on="1"/>
        <pt x="324" y="579" on="1"/>
      </contour>
    </TTGlyph>
    <TTGlyph name="Adieresis" xMin="-19" yMin="-6" xMax="687" yMax="839">
      <contour>
        <pt x="372" y="665" on="1"/>
        <pt x="536" y="211" on="1"/>
        <pt x="546" y="181" on="0"/>
        <pt x="561" y="141" on="0"/>
        <pt x="572" y="113" on="0"/>
        <pt x="580" y="94" on="0"/>
        <pt x="583" y="87" on="1"/>
        <pt x="594" y="62" on="0"/>
        <pt x="617" y="35" on="0"/>
        <pt x="641" y="22" on="0"/>
        <pt x="666" y="20" on="0"/>
        <pt x="679" y="20" on="1"/>
        <pt x="684" y="16" on="1"/>
        <pt x="687" y="-2" on="1"/>
        <pt x="685" y="-6" on="1"/>
        <pt x="678" y="-6" on="0"/>
        <pt x="650" y="-4" on="0"/>
        <pt x="620" y="-2" on="0"/>
        <pt x="593" y="0" on="0"/>
        <pt x="586" y="0" on="1"/>
        <pt x="553" y="0" on="1"/>
        <pt x="546" y="0" on="0"/>
        <pt x="514" y="-2" on="0"/>
        <pt x="479" y="-4" on="0"/>
        <pt x="447" y="-6" on="0"/>
        <pt x="440" y="-6" on="1"/>
        <pt x="438" y="-2" on="1"/>
        <pt x="441" y="16" on="1"/>
        <pt x="445" y="20" on="1"/>
        <pt x="474" y="20" on="0"/>
        <pt x="506" y="33" on="0"/>
        <pt x="506" y="62" on="1"/>
        <pt x="506" y="85" on="0"/>
        <pt x="475" y="168" on="0"/>
        <pt x="452" y="231" on="1"/>
        <pt x="435" y="279" on="1"/>
        <pt x="211" y="279" on="1"/>
        <pt x="194" y="231" on="1"/>
        <pt x="171" y="168" on="0"/>
        <pt x="140" y="85" on="0"/>
        <pt x="140" y="62" on="1"/>
        <pt x="140" y="33" on="0"/>
        <pt x="172" y="20" on="0"/>
        <pt x="201" y="20" on="1"/>
        <pt x="206" y="16" on="1"/>
        <pt x="209" y="-2" on="1"/>
        <pt x="207" y="-6" on="1"/>
        <pt x="200" y="-6" on="0"/>
        <pt x="170" y="-4" on="0"/>
        <pt x="137" y="-2" on="0"/>
        <pt x="107" y="0" on="0"/>
        <pt x="100" y="0" on="1"/>
        <pt x="81" y="0" on="1"/>
        <pt x="74" y="0" on="0"/>
        <pt x="46" y="-2" on="0"/>
        <pt x="16" y="-4" on="0"/>
        <pt x="-11" y="-6" on="0"/>
        <pt x="-18" y="-6" on="1"/>
        <pt x="-19" y="-2" on="1"/>
        <pt x="-17" y="16" on="1"/>
        <pt x="-12" y="20" on="1"/>
        <pt x="1" y="20" on="0"/>
        <pt x="25" y="22" on="0"/>
        <pt x="49" y="35" on="0"/>
        <pt x="72" y="62" on="0"/>
        <pt x="84" y="87" on="1"/>
        <pt x="87" y="92" on="0"/>
        <pt x="92" y="105" on="0"/>
        <pt x="103" y="131" on="0"/>
        <pt x="120" y="174" on="0"/>
        <pt x="147" y="243" on="0"/>
        <pt x="186" y="343" on="0"/>
        <pt x="214" y="414" on="1"/>
        <pt x="227" y="449" on="0"/>
        <pt x="255" y="518" on="0"/>
        <pt x="279" y="578" on="0"/>
        <pt x="298" y="624" on="0"/>
        <pt x="302" y="635" on="1"/>
        <pt x="361" y="665" on="1"/>
      </contour>
      <contour>
        <pt x="228" y="322" on="1"/>
        <pt x="419" y="322" on="1"/>
        <pt x="324" y="579" on="1"/>
      </contour>
      <contour>
        <pt x="214" y="794" on="1"/>
        <pt x="214" y="812" on="0"/>
        <pt x="238" y="839" on="0"/>
        <pt x="255" y="839" on="1"/>
        <pt x="272" y="839" on="0"/>
        <pt x="297" y="812" on="0"/>
        <pt x="297" y="794" on="1"/>
        <pt x="297" y="775" on="0"/>
        <pt x="272" y="750" on="0"/>
        <pt x="255" y="750" on="1"/>
        <pt x="238" y="750" on="0"/>
        <pt x="214" y="775" on="0"/>
      </contour>
      <contour>
        <pt x="371" y="794" on="1"/>
        <pt x="371" y="812" on="0"/>
        <pt x="395" y="839" on="0"/>
        <pt x="412" y="839" on="1"/>
        <pt x="428" y="839" on="0"/>
        <pt x="453" y="812" on="0"/>
        <pt x="453" y="794" on="1"/>
        <pt x="453" y="775" on="0"/>
        <pt x="428" y="750" on="0"/>
        <pt x="412" y="750" on="1"/>
        <pt x="395" y="750" on="0"/>
        <pt x="371" y="775" on="0"/>
      </contour>
    </TTGlyph>
    <TTGlyph name="Agrave" xMin="-19" yMin="-6" xMax="687" yMax="848">
      <contour>
        <pt x="429" y="718" on="1"/>
        <pt x="228" y="795" on="1"/>
        <pt x="224" y="804" on="0"/>
        <pt x="224" y="814" on="1"/>
        <pt x="224" y="828" on="0"/>
        <pt x="242" y="847" on="0"/>
        <pt x="259" y="848" on="1"/>
        <pt x="440" y="748" on="1"/>
        <pt x="442" y="741" on="1"/>
        <pt x="437" y="721" on="1"/>
      </contour>
      <contour>
        <pt x="372" y="665" on="1"/>
        <pt x="536" y="211" on="1"/>
        <pt x="546" y="181" on="0"/>
        <pt x="561" y="141" on="0"/>
        <pt x="572" y="113" on="0"/>
        <pt x="580" y="94" on="0"/>
        <pt x="583" y="87" on="1"/>
        <pt x="594" y="62" on="0"/>
        <pt x="617" y="35" on="0"/>
        <pt x="641" y="22" on="0"/>
        <pt x="666" y="20" on="0"/>
        <pt x="679" y="20" on="1"/>
        <pt x="684" y="16" on="1"/>
        <pt x="687" y="-2" on="1"/>
        <pt x="685" y="-6" on="1"/>
        <pt x="678" y="-6" on="0"/>
        <pt x="650" y="-4" on="0"/>
        <pt x="620" y="-2" on="0"/>
        <pt x="593" y="0" on="0"/>
        <pt x="586" y="0" on="1"/>
        <pt x="553" y="0" on="1"/>
        <pt x="546" y="0" on="0"/>
        <pt x="514" y="-2" on="0"/>
        <pt x="479" y="-4" on="0"/>
        <pt x="447" y="-6" on="0"/>
        <pt x="440" y="-6" on="1"/>
        <pt x="438" y="-2" on="1"/>
        <pt x="441" y="16" on="1"/>
        <pt x="445" y="20" on="1"/>
        <pt x="474" y="20" on="0"/>
        <pt x="506" y="33" on="0"/>
        <pt x="506" y="62" on="1"/>
        <pt x="506" y="85" on="0"/>
        <pt x="475" y="168" on="0"/>
        <pt x="452" y="231" on="1"/>
        <pt x="435" y="279" on="1"/>
        <pt x="211" y="279" on="1"/>
        <pt x="194" y="231" on="1"/>
        <pt x="171" y="168" on="0"/>
        <pt x="140" y="85" on="0"/>
        <pt x="140" y="62" on="1"/>
        <pt x="140" y="33" on="0"/>
        <pt x="172" y="20" on="0"/>
        <pt x="201" y="20" on="1"/>
        <pt x="206" y="16" on="1"/>
        <pt x="209" y="-2" on="1"/>
        <pt x="207" y="-6" on="1"/>
        <pt x="200" y="-6" on="0"/>
        <pt x="170" y="-4" on="0"/>
        <pt x="137" y="-2" on="0"/>
        <pt x="107" y="0" on="0"/>
        <pt x="100" y="0" on="1"/>
        <pt x="81" y="0" on="1"/>
        <pt x="74" y="0" on="0"/>
        <pt x="46" y="-2" on="0"/>
        <pt x="16" y="-4" on="0"/>
        <pt x="-11" y="-6" on="0"/>
        <pt x="-18" y="-6" on="1"/>
        <pt x="-19" y="-2" on="1"/>
        <pt x="-17" y="16" on="1"/>
        <pt x="-12" y="20" on="1"/>
        <pt x="1" y="20" on="0"/>
        <pt x="25" y="22" on="0"/>
        <pt x="49" y="35" on="0"/>
        <pt x="72" y="62" on="0"/>
        <pt x="84" y="87" on="1"/>
        <pt x="87" y="92" on="0"/>
        <pt x="92" y="105" on="0"/>
        <pt x="103" y="131" on="0"/>
        <pt x="120" y="174" on="0"/>
        <pt x="147" y="243" on="0"/>
        <pt x="186" y="343" on="0"/>
        <pt x="214" y="414" on="1"/>
        <pt x="227" y="449" on="0"/>
        <pt x="255" y="518" on="0"/>
        <pt x="279" y="578" on="0"/>
        <pt x="298" y="624" on="0"/>
        <pt x="302" y="635" on="1"/>
        <pt x="361" y="665" on="1"/>
      </contour>
      <contour>
        <pt x="228" y="322" on="1"/>
        <pt x="419" y="322" on="1"/>
        <pt x="324" y="579" on="1"/>
      </contour>
    </TTGlyph>
    <TTGlyph name="Aring" xMin="-19" yMin="-6" xMax="687" yMax="778">
      <contour>
        <pt x="333" y="778" on="1"/>
        <pt x="372" y="778" on="0"/>
        <pt x="416" y="731" on="0"/>
        <pt x="416" y="703" on="1"/>
        <pt x="416" y="686" on="0"/>
        <pt x="397" y="654" on="0"/>
        <pt x="379" y="644" on="1"/>
        <pt x="536" y="211" on="1"/>
        <pt x="546" y="181" on="0"/>
        <pt x="561" y="141" on="0"/>
        <pt x="572" y="113" on="0"/>
        <pt x="580" y="94" on="0"/>
        <pt x="583" y="87" on="1"/>
        <pt x="594" y="62" on="0"/>
        <pt x="617" y="35" on="0"/>
        <pt x="641" y="22" on="0"/>
        <pt x="666" y="20" on="0"/>
        <pt x="679" y="20" on="1"/>
        <pt x="684" y="16" on="1"/>
        <pt x="687" y="-2" on="1"/>
        <pt x="685" y="-6" on="1"/>
        <pt x="678" y="-6" on="0"/>
        <pt x="650" y="-4" on="0"/>
        <pt x="620" y="-2" on="0"/>
        <pt x="593" y="0" on="0"/>
        <pt x="586" y="0" on="1"/>
        <pt x="553" y="0" on="1"/>
        <pt x="546" y="0" on="0"/>
        <pt x="514" y="-2" on="0"/>
        <pt x="479" y="-4" on="0"/>
        <pt x="447" y="-6" on="0"/>
        <pt x="440" y="-6" on="1"/>
        <pt x="438" y="-2" on="1"/>
        <pt x="441" y="16" on="1"/>
        <pt x="445" y="20" on="1"/>
        <pt x="474" y="20" on="0"/>
        <pt x="506" y="33" on="0"/>
        <pt x="506" y="62" on="1"/>
        <pt x="506" y="85" on="0"/>
        <pt x="475" y="168" on="0"/>
        <pt x="452" y="231" on="1"/>
        <pt x="435" y="279" on="1"/>
        <pt x="211" y="279" on="1"/>
        <pt x="194" y="231" on="1"/>
        <pt x="171" y="168" on="0"/>
        <pt x="140" y="85" on="0"/>
        <pt x="140" y="62" on="1"/>
        <pt x="140" y="33" on="0"/>
        <pt x="172" y="20" on="0"/>
        <pt x="201" y="20" on="1"/>
        <pt x="206" y="16" on="1"/>
        <pt x="209" y="-2" on="1"/>
        <pt x="207" y="-6" on="1"/>
        <pt x="200" y="-6" on="0"/>
        <pt x="170" y="-4" on="0"/>
        <pt x="137" y="-2" on="0"/>
        <pt x="107" y="0" on="0"/>
        <pt x="100" y="0" on="1"/>
        <pt x="81" y="0" on="1"/>
        <pt x="74" y="0" on="0"/>
        <pt x="46" y="-2" on="0"/>
        <pt x="16" y="-4" on="0"/>
        <pt x="-11" y="-6" on="0"/>
        <pt x="-18" y="-6" on="1"/>
        <pt x="-19" y="-2" on="1"/>
        <pt x="-17" y="16" on="1"/>
        <pt x="-12" y="20" on="1"/>
        <pt x="1" y="20" on="0"/>
        <pt x="25" y="22" on="0"/>
        <pt x="49" y="35" on="0"/>
        <pt x="72" y="62" on="0"/>
        <pt x="84" y="87" on="1"/>
        <pt x="87" y="92" on="0"/>
        <pt x="92" y="105" on="0"/>
        <pt x="103" y="131" on="0"/>
        <pt x="120" y="174" on="0"/>
        <pt x="147" y="243" on="0"/>
        <pt x="186" y="343" on="0"/>
        <pt x="214" y="414" on="1"/>
        <pt x="226" y="446" on="0"/>
        <pt x="253" y="514" on="0"/>
        <pt x="277" y="574" on="0"/>
        <pt x="297" y="623" on="0"/>
        <pt x="303" y="637" on="1"/>
        <pt x="277" y="645" on="0"/>
        <pt x="251" y="685" on="0"/>
        <pt x="251" y="705" on="1"/>
        <pt x="251" y="733" on="0"/>
        <pt x="295" y="778" on="0"/>
      </contour>
      <contour>
        <pt x="228" y="322" on="1"/>
        <pt x="419" y="322" on="1"/>
        <pt x="324" y="579" on="1"/>
      </contour>
      <contour>
        <pt x="334" y="656" on="1"/>
        <pt x="354" y="656" on="0"/>
        <pt x="378" y="686" on="0"/>
        <pt x="378" y="703" on="1"/>
        <pt x="378" y="721" on="0"/>
        <pt x="353" y="753" on="0"/>
        <pt x="332" y="753" on="1"/>
        <pt x="311" y="753" on="0"/>
        <pt x="288" y="723" on="0"/>
        <pt x="288" y="706" on="1"/>
        <pt x="288" y="687" on="0"/>
        <pt x="314" y="656" on="0"/>
      </contour>
    </TTGlyph>
    <TTGlyph name="Atilde" xMin="-19" yMin="-6" xMax="687" yMax="840">
      <contour>
        <pt x="372" y="665" on="1"/>
        <pt x="536" y="211" on="1"/>
        <pt x="546" y="181" on="0"/>
        <pt x="561" y="141" on="0"/>
        <pt x="572" y="113" on="0"/>
        <pt x="580" y="94" on="0"/>
        <pt x="583" y="87" on="1"/>
        <pt x="594" y="62" on="0"/>
        <pt x="617" y="35" on="0"/>
        <pt x="641" y="22" on="0"/>
        <pt x="666" y="20" on="0"/>
        <pt x="679" y="20" on="1"/>
        <pt x="684" y="16" on="1"/>
        <pt x="687" y="-2" on="1"/>
        <pt x="685" y="-6" on="1"/>
        <pt x="678" y="-6" on="0"/>
        <pt x="650" y="-4" on="0"/>
        <pt x="620" y="-2" on="0"/>
        <pt x="593" y="0" on="0"/>
        <pt x="586" y="0" on="1"/>
        <pt x="553" y="0" on="1"/>
        <pt x="546" y="0" on="0"/>
        <pt x="514" y="-2" on="0"/>
        <pt x="479" y="-4" on="0"/>
        <pt x="447" y="-6" on="0"/>
        <pt x="440" y="-6" on="1"/>
        <pt x="438" y="-2" on="1"/>
        <pt x="441" y="16" on="1"/>
        <pt x="445" y="20" on="1"/>
        <pt x="474" y="20" on="0"/>
        <pt x="506" y="33" on="0"/>
        <pt x="506" y="62" on="1"/>
        <pt x="506" y="85" on="0"/>
        <pt x="475" y="168" on="0"/>
        <pt x="452" y="231" on="1"/>
        <pt x="435" y="279" on="1"/>
        <pt x="211" y="279" on="1"/>
        <pt x="194" y="231" on="1"/>
        <pt x="171" y="168" on="0"/>
        <pt x="140" y="85" on="0"/>
        <pt x="140" y="62" on="1"/>
        <pt x="140" y="33" on="0"/>
        <pt x="172" y="20" on="0"/>
        <pt x="201" y="20" on="1"/>
        <pt x="206" y="16" on="1"/>
        <pt x="209" y="-2" on="1"/>
        <pt x="207" y="-6" on="1"/>
        <pt x="200" y="-6" on="0"/>
        <pt x="170" y="-4" on="0"/>
        <pt x="137" y="-2" on="0"/>
        <pt x="107" y="0" on="0"/>
        <pt x="100" y="0" on="1"/>
        <pt x="81" y="0" on="1"/>
        <pt x="74" y="0" on="0"/>
        <pt x="46" y="-2" on="0"/>
        <pt x="16" y="-4" on="0"/>
        <pt x="-11" y="-6" on="0"/>
        <pt x="-18" y="-6" on="1"/>
        <pt x="-19" y="-2" on="1"/>
        <pt x="-17" y="16" on="1"/>
        <pt x="-12" y="20" on="1"/>
        <pt x="1" y="20" on="0"/>
        <pt x="25" y="22" on="0"/>
        <pt x="49" y="35" on="0"/>
        <pt x="72" y="62" on="0"/>
        <pt x="84" y="87" on="1"/>
        <pt x="87" y="92" on="0"/>
        <pt x="92" y="105" on="0"/>
        <pt x="103" y="131" on="0"/>
        <pt x="120" y="174" on="0"/>
        <pt x="147" y="243" on="0"/>
        <pt x="186" y="343" on="0"/>
        <pt x="214" y="414" on="1"/>
        <pt x="227" y="449" on="0"/>
        <pt x="255" y="518" on="0"/>
        <pt x="279" y="578" on="0"/>
        <pt x="298" y="624" on="0"/>
        <pt x="302" y="635" on="1"/>
        <pt x="361" y="665" on="1"/>
      </contour>
      <contour>
        <pt x="228" y="322" on="1"/>
        <pt x="419" y="322" on="1"/>
        <pt x="324" y="579" on="1"/>
      </contour>
      <contour>
        <pt x="489" y="832" on="1"/>
        <pt x="486" y="818" on="0"/>
        <pt x="473" y="791" on="0"/>
        <pt x="452" y="769" on="0"/>
        <pt x="422" y="755" on="0"/>
        <pt x="401" y="755" on="1"/>
        <pt x="361" y="755" on="0"/>
        <pt x="278" y="769" on="0"/>
        <pt x="246" y="769" on="1"/>
        <pt x="221" y="769" on="0"/>
        <pt x="201" y="756" on="0"/>
        <pt x="191" y="744" on="1"/>
        <pt x="178" y="752" on="1"/>
        <pt x="182" y="765" on="0"/>
        <pt x="196" y="793" on="0"/>
        <pt x="217" y="814" on="0"/>
        <pt x="248" y="828" on="0"/>
        <pt x="269" y="828" on="1"/>
        <pt x="294" y="828" on="0"/>
        <pt x="331" y="824" on="0"/>
        <pt x="363" y="818" on="0"/>
        <pt x="393" y="814" on="0"/>
        <pt x="412" y="814" on="1"/>
        <pt x="429" y="814" on="0"/>
        <pt x="463" y="822" on="0"/>
        <pt x="477" y="840" on="1"/>
      </contour>
    </TTGlyph>
    <TTGlyph name="B" xMin="43" yMin="-6" xMax="535" yMax="660">
      <contour>
        <pt x="157" y="0" on="1"/>
        <pt x="150" y="0" on="0"/>
        <pt x="118" y="-2" on="0"/>
        <pt x="84" y="-4" on="0"/>
        <pt x="52" y="-6" on="0"/>
        <pt x="45" y="-6" on="1"/>
        <pt x="43" y="-2" on="1"/>
        <pt x="46" y="16" on="1"/>
        <pt x="51" y="20" on="1"/>
        <pt x="63" y="20" on="0"/>
        <pt x="95" y="23" on="0"/>
        <pt x="104" y="29" on="1"/>
        <pt x="112" y="35" on="0"/>
        <pt x="126" y="61" on="0"/>
        <pt x="129" y="87" on="1"/>
        <pt x="130" y="102" on="0"/>
        <pt x="131" y="162" on="0"/>
        <pt x="131" y="221" on="1"/>
        <pt x="131" y="471" on="1"/>
        <pt x="131" y="491" on="0"/>
        <pt x="131" y="542" on="0"/>
        <pt x="129" y="567" on="1"/>
        <pt x="127" y="594" on="0"/>
        <pt x="112" y="618" on="0"/>
        <pt x="104" y="624" on="1"/>
        <pt x="95" y="629" on="0"/>
        <pt x="76" y="634" on="0"/>
        <pt x="51" y="634" on="1"/>
        <pt x="46" y="638" on="1"/>
        <pt x="43" y="656" on="1"/>
        <pt x="45" y="660" on="1"/>
        <pt x="52" y="660" on="0"/>
        <pt x="75" y="658" on="0"/>
        <pt x="100" y="656" on="0"/>
        <pt x="126" y="654" on="0"/>
        <pt x="137" y="654" on="1"/>
        <pt x="173" y="654" on="1"/>
        <pt x="184" y="654" on="0"/>
        <pt x="212" y="654" on="0"/>
        <pt x="241" y="655" on="0"/>
        <pt x="265" y="655" on="0"/>
        <pt x="272" y="655" on="1"/>
        <pt x="380" y="655" on="0"/>
        <pt x="474" y="572" on="0"/>
        <pt x="474" y="504" on="1"/>
        <pt x="474" y="474" on="0"/>
        <pt x="459" y="428" on="0"/>
        <pt x="433" y="393" on="0"/>
        <pt x="401" y="368" on="0"/>
        <pt x="383" y="359" on="1"/>
        <pt x="456" y="346" on="0"/>
        <pt x="535" y="262" on="0"/>
        <pt x="535" y="188" on="1"/>
        <pt x="535" y="138" on="0"/>
        <pt x="499" y="67" on="0"/>
        <pt x="434" y="22" on="0"/>
        <pt x="344" y="0" on="0"/>
        <pt x="290" y="0" on="1"/>
      </contour>
      <contour>
        <pt x="202" y="332" on="1"/>
        <pt x="202" y="304" on="0"/>
        <pt x="202" y="228" on="0"/>
        <pt x="203" y="155" on="0"/>
        <pt x="204" y="97" on="0"/>
        <pt x="205" y="87" on="1"/>
        <pt x="207" y="60" on="0"/>
        <pt x="225" y="48" on="0"/>
        <pt x="240" y="48" on="1"/>
        <pt x="301" y="48" on="1"/>
        <pt x="325" y="48" on="0"/>
        <pt x="382" y="60" on="0"/>
        <pt x="432" y="90" on="0"/>
        <pt x="466" y="144" on="0"/>
        <pt x="466" y="186" on="1"/>
        <pt x="466" y="222" on="0"/>
        <pt x="440" y="277" on="0"/>
        <pt x="394" y="313" on="0"/>
        <pt x="333" y="332" on="0"/>
        <pt x="297" y="332" on="1"/>
      </contour>
      <contour>
        <pt x="249" y="369" on="1"/>
        <pt x="281" y="369" on="0"/>
        <pt x="339" y="377" on="0"/>
        <pt x="362" y="394" on="1"/>
        <pt x="384" y="408" on="0"/>
        <pt x="412" y="461" on="0"/>
        <pt x="412" y="497" on="1"/>
        <pt x="412" y="550" on="0"/>
        <pt x="352" y="606" on="0"/>
        <pt x="297" y="606" on="1"/>
        <pt x="207" y="606" on="1"/>
        <pt x="205" y="577" on="0"/>
        <pt x="204" y="537" on="0"/>
        <pt x="202" y="507" on="0"/>
        <pt x="202" y="483" on="0"/>
        <pt x="202" y="472" on="1"/>
        <pt x="202" y="410" on="1"/>
        <pt x="202" y="387" on="0"/>
        <pt x="206" y="369" on="0"/>
        <pt x="219" y="369" on="1"/>
      </contour>
    </TTGlyph>
    <TTGlyph name="C" xMin="54" yMin="-11" xMax="610" yMax="665">
      <contour>
        <pt x="551" y="535" on="1"/>
        <pt x="548" y="557" on="0"/>
        <pt x="516" y="587" on="0"/>
        <pt x="469" y="605" on="0"/>
        <pt x="412" y="612" on="0"/>
        <pt x="384" y="612" on="1"/>
        <pt x="285" y="612" on="0"/>
        <pt x="228" y="567" on="1"/>
        <pt x="181" y="529" on="0"/>
        <pt x="134" y="403" on="0"/>
        <pt x="134" y="328" on="1"/>
        <pt x="134" y="257" on="0"/>
        <pt x="175" y="150" on="0"/>
        <pt x="247" y="78" on="0"/>
        <pt x="346" y="41" on="0"/>
        <pt x="404" y="41" on="1"/>
        <pt x="445" y="41" on="0"/>
        <pt x="552" y="64" on="0"/>
        <pt x="600" y="97" on="1"/>
        <pt x="610" y="86" on="1"/>
        <pt x="588" y="41" on="1"/>
        <pt x="538" y="14" on="0"/>
        <pt x="439" y="-11" on="0"/>
        <pt x="386" y="-11" on="1"/>
        <pt x="311" y="-11" on="0"/>
        <pt x="189" y="37" on="0"/>
        <pt x="102" y="126" on="0"/>
        <pt x="54" y="249" on="0"/>
        <pt x="54" y="324" on="1"/>
        <pt x="54" y="394" on="0"/>
        <pt x="97" y="519" on="0"/>
        <pt x="182" y="611" on="0"/>
        <pt x="307" y="665" on="0"/>
        <pt x="390" y="665" on="1"/>
        <pt x="408" y="665" on="0"/>
        <pt x="457" y="662" on="0"/>
        <pt x="511" y="654" on="0"/>
        <pt x="567" y="641" on="0"/>
        <pt x="593" y="631" on="1"/>
        <pt x="596" y="622" on="1"/>
        <pt x="583" y="531" on="1"/>
        <pt x="554" y="531" on="1"/>
      </contour>
    </TTGlyph>
    <TTGlyph name="Ccaron" xMin="54" yMin="-11" xMax="610" yMax="841">
      <contour>
        <pt x="551" y="535" on="1"/>
        <pt x="548" y="557" on="0"/>
        <pt x="516" y="587" on="0"/>
        <pt x="469" y="605" on="0"/>
        <pt x="412" y="612" on="0"/>
        <pt x="384" y="612" on="1"/>
        <pt x="285" y="612" on="0"/>
        <pt x="228" y="567" on="1"/>
        <pt x="181" y="529" on="0"/>
        <pt x="134" y="403" on="0"/>
        <pt x="134" y="328" on="1"/>
        <pt x="134" y="257" on="0"/>
        <pt x="175" y="150" on="0"/>
        <pt x="247" y="78" on="0"/>
        <pt x="346" y="41" on="0"/>
        <pt x="404" y="41" on="1"/>
        <pt x="445" y="41" on="0"/>
        <pt x="552" y="64" on="0"/>
        <pt x="600" y="97" on="1"/>
        <pt x="610" y="86" on="1"/>
        <pt x="588" y="41" on="1"/>
        <pt x="538" y="14" on="0"/>
        <pt x="439" y="-11" on="0"/>
        <pt x="386" y="-11" on="1"/>
        <pt x="311" y="-11" on="0"/>
        <pt x="189" y="37" on="0"/>
        <pt x="102" y="126" on="0"/>
        <pt x="54" y="249" on="0"/>
        <pt x="54" y="324" on="1"/>
        <pt x="54" y="394" on="0"/>
        <pt x="97" y="519" on="0"/>
        <pt x="182" y="611" on="0"/>
        <pt x="307" y="665" on="0"/>
        <pt x="390" y="665" on="1"/>
        <pt x="408" y="665" on="0"/>
        <pt x="457" y="662" on="0"/>
        <pt x="511" y="654" on="0"/>
        <pt x="567" y="641" on="0"/>
        <pt x="593" y="631" on="1"/>
        <pt x="596" y="622" on="1"/>
        <pt x="583" y="531" on="1"/>
        <pt x="554" y="531" on="1"/>
      </contour>
      <contour>
        <pt x="377" y="713" on="1"/>
        <pt x="267" y="812" on="1"/>
        <pt x="264" y="818" on="1"/>
        <pt x="270" y="838" on="1"/>
        <pt x="277" y="841" on="1"/>
        <pt x="381" y="779" on="1"/>
        <pt x="485" y="841" on="1"/>
        <pt x="492" y="838" on="1"/>
        <pt x="498" y="818" on="1"/>
        <pt x="495" y="812" on="1"/>
        <pt x="385" y="713" on="1"/>
      </contour>
    </TTGlyph>
    <TTGlyph name="Ccedilla" xMin="55" yMin="-203" xMax="611" yMax="665">
      <contour>
        <pt x="276" y="-178" on="1"/>
        <pt x="289" y="-155" on="1"/>
        <pt x="296" y="-155" on="1"/>
        <pt x="308" y="-160" on="0"/>
        <pt x="346" y="-167" on="0"/>
        <pt x="365" y="-167" on="1"/>
        <pt x="387" y="-167" on="0"/>
        <pt x="419" y="-150" on="0"/>
        <pt x="419" y="-127" on="1"/>
        <pt x="419" y="-100" on="0"/>
        <pt x="388" y="-81" on="0"/>
        <pt x="367" y="-81" on="1"/>
        <pt x="355" y="-81" on="0"/>
        <pt x="330" y="-85" on="0"/>
        <pt x="319" y="-88" on="1"/>
        <pt x="310" y="-77" on="1"/>
        <pt x="354" y="-10" on="1"/>
        <pt x="286" y="-5" on="0"/>
        <pt x="175" y="48" on="0"/>
        <pt x="97" y="135" on="0"/>
        <pt x="55" y="253" on="0"/>
        <pt x="55" y="324" on="1"/>
        <pt x="55" y="394" on="0"/>
        <pt x="98" y="519" on="0"/>
        <pt x="183" y="611" on="0"/>
        <pt x="308" y="665" on="0"/>
        <pt x="391" y="665" on="1"/>
        <pt x="409" y="665" on="0"/>
        <pt x="458" y="662" on="0"/>
        <pt x="512" y="654" on="0"/>
        <pt x="568" y="641" on="0"/>
        <pt x="594" y="631" on="1"/>
        <pt x="597" y="622" on="1"/>
        <pt x="584" y="531" on="1"/>
        <pt x="555" y="531" on="1"/>
        <pt x="552" y="535" on="1"/>
        <pt x="549" y="557" on="0"/>
        <pt x="517" y="587" on="0"/>
        <pt x="470" y="605" on="0"/>
        <pt x="413" y="612" on="0"/>
        <pt x="385" y="612" on="1"/>
        <pt x="286" y="612" on="0"/>
        <pt x="229" y="567" on="1"/>
        <pt x="182" y="529" on="0"/>
        <pt x="135" y="403" on="0"/>
        <pt x="135" y="328" on="1"/>
        <pt x="135" y="257" on="0"/>
        <pt x="176" y="150" on="0"/>
        <pt x="248" y="78" on="0"/>
        <pt x="347" y="41" on="0"/>
        <pt x="405" y="41" on="1"/>
        <pt x="446" y="41" on="0"/>
        <pt x="553" y="64" on="0"/>
        <pt x="601" y="97" on="1"/>
        <pt x="611" y="86" on="1"/>
        <pt x="589" y="41" on="1"/>
        <pt x="541" y="15" on="0"/>
        <pt x="444" y="-10" on="0"/>
        <pt x="394" y="-11" on="1"/>
        <pt x="371" y="-51" on="1"/>
        <pt x="379" y="-48" on="0"/>
        <pt x="391" y="-47" on="0"/>
        <pt x="399" y="-47" on="1"/>
        <pt x="434" y="-47" on="0"/>
        <pt x="478" y="-88" on="0"/>
        <pt x="478" y="-119" on="1"/>
        <pt x="478" y="-136" on="0"/>
        <pt x="461" y="-166" on="0"/>
        <pt x="432" y="-189" on="0"/>
        <pt x="392" y="-203" on="0"/>
        <pt x="368" y="-203" on="1"/>
        <pt x="344" y="-203" on="0"/>
        <pt x="297" y="-192" on="0"/>
        <pt x="277" y="-184" on="1"/>
      </contour>
    </TTGlyph>
    <TTGlyph name="D" xMin="43" yMin="-6" xMax="679" yMax="660">
      <contour>
        <pt x="129" y="567" on="1"/>
        <pt x="127" y="592" on="0"/>
        <pt x="113" y="617" on="0"/>
        <pt x="104" y="624" on="1"/>
        <pt x="95" y="629" on="0"/>
        <pt x="76" y="634" on="0"/>
        <pt x="51" y="634" on="1"/>
        <pt x="46" y="638" on="1"/>
        <pt x="43" y="656" on="1"/>
        <pt x="45" y="660" on="1"/>
        <pt x="52" y="660" on="0"/>
        <pt x="78" y="658" on="0"/>
        <pt x="108" y="656" on="0"/>
        <pt x="137" y="654" on="0"/>
        <pt x="148" y="654" on="1"/>
        <pt x="205" y="654" on="1"/>
        <pt x="218" y="654" on="0"/>
        <pt x="257" y="655" on="0"/>
        <pt x="298" y="657" on="0"/>
        <pt x="337" y="658" on="0"/>
        <pt x="349" y="658" on="1"/>
        <pt x="427" y="658" on="0"/>
        <pt x="550" y="605" on="0"/>
        <pt x="634" y="515" on="0"/>
        <pt x="679" y="395" on="0"/>
        <pt x="679" y="328" on="1"/>
        <pt x="679" y="262" on="0"/>
        <pt x="636" y="143" on="0"/>
        <pt x="552" y="52" on="0"/>
        <pt x="426" y="-2" on="0"/>
        <pt x="343" y="-2" on="1"/>
        <pt x="334" y="-2" on="0"/>
        <pt x="298" y="-1" on="0"/>
        <pt x="258" y="-1" on="0"/>
        <pt x="221" y="0" on="0"/>
        <pt x="210" y="0" on="1"/>
        <pt x="157" y="0" on="1"/>
        <pt x="150" y="0" on="0"/>
        <pt x="118" y="-2" on="0"/>
        <pt x="84" y="-4" on="0"/>
        <pt x="52" y="-6" on="0"/>
        <pt x="45" y="-6" on="1"/>
        <pt x="43" y="-2" on="1"/>
        <pt x="46" y="16" on="1"/>
        <pt x="51" y="20" on="1"/>
        <pt x="63" y="20" on="0"/>
        <pt x="95" y="23" on="0"/>
        <pt x="104" y="29" on="1"/>
        <pt x="112" y="35" on="0"/>
        <pt x="126" y="61" on="0"/>
        <pt x="129" y="87" on="1"/>
        <pt x="129" y="94" on="0"/>
        <pt x="130" y="113" on="0"/>
        <pt x="131" y="141" on="0"/>
        <pt x="131" y="181" on="0"/>
        <pt x="131" y="211" on="1"/>
        <pt x="131" y="414" on="1"/>
        <pt x="131" y="424" on="0"/>
        <pt x="131" y="465" on="0"/>
        <pt x="131" y="511" on="0"/>
        <pt x="130" y="555" on="0"/>
      </contour>
      <contour>
        <pt x="350" y="48" on="1"/>
        <pt x="410" y="48" on="0"/>
        <pt x="502" y="92" on="0"/>
        <pt x="565" y="167" on="0"/>
        <pt x="598" y="269" on="0"/>
        <pt x="598" y="328" on="1"/>
        <pt x="598" y="388" on="0"/>
        <pt x="564" y="490" on="0"/>
        <pt x="499" y="564" on="0"/>
        <pt x="405" y="606" on="0"/>
        <pt x="345" y="606" on="1"/>
        <pt x="207" y="606" on="1"/>
        <pt x="205" y="577" on="0"/>
        <pt x="204" y="538" on="0"/>
        <pt x="202" y="498" on="0"/>
        <pt x="202" y="451" on="0"/>
        <pt x="202" y="415" on="1"/>
        <pt x="202" y="231" on="1"/>
        <pt x="202" y="171" on="0"/>
        <pt x="203" y="104" on="0"/>
        <pt x="205" y="87" on="1"/>
        <pt x="208" y="61" on="0"/>
        <pt x="228" y="48" on="0"/>
        <pt x="254" y="48" on="1"/>
      </contour>
    </TTGlyph>
    <TTGlyph name="Dcaron" xMin="43" yMin="-6" xMax="679" yMax="841">
      <contour>
        <pt x="129" y="567" on="1"/>
        <pt x="127" y="592" on="0"/>
        <pt x="113" y="617" on="0"/>
        <pt x="104" y="624" on="1"/>
        <pt x="95" y="629" on="0"/>
        <pt x="76" y="634" on="0"/>
        <pt x="51" y="634" on="1"/>
        <pt x="46" y="638" on="1"/>
        <pt x="43" y="656" on="1"/>
        <pt x="45" y="660" on="1"/>
        <pt x="52" y="660" on="0"/>
        <pt x="78" y="658" on="0"/>
        <pt x="108" y="656" on="0"/>
        <pt x="137" y="654" on="0"/>
        <pt x="148" y="654" on="1"/>
        <pt x="205" y="654" on="1"/>
        <pt x="218" y="654" on="0"/>
        <pt x="257" y="655" on="0"/>
        <pt x="298" y="657" on="0"/>
        <pt x="337" y="658" on="0"/>
        <pt x="349" y="658" on="1"/>
        <pt x="427" y="658" on="0"/>
        <pt x="550" y="605" on="0"/>
        <pt x="634" y="515" on="0"/>
        <pt x="679" y="395" on="0"/>
        <pt x="679" y="328" on="1"/>
        <pt x="679" y="262" on="0"/>
        <pt x="636" y="143" on="0"/>
        <pt x="552" y="52" on="0"/>
        <pt x="426" y="-2" on="0"/>
        <pt x="343" y="-2" on="1"/>
        <pt x="334" y="-2" on="0"/>
        <pt x="298" y="-1" on="0"/>
        <pt x="258" y="-1" on="0"/>
        <pt x="221" y="0" on="0"/>
        <pt x="210" y="0" on="1"/>
        <pt x="157" y="0" on="1"/>
        <pt x="150" y="0" on="0"/>
        <pt x="118" y="-2" on="0"/>
        <pt x="84" y="-4" on="0"/>
        <pt x="52" y="-6" on="0"/>
        <pt x="45" y="-6" on="1"/>
        <pt x="43" y="-2" on="1"/>
        <pt x="46" y="16" on="1"/>
        <pt x="51" y="20" on="1"/>
        <pt x="63" y="20" on="0"/>
        <pt x="95" y="23" on="0"/>
        <pt x="104" y="29" on="1"/>
        <pt x="112" y="35" on="0"/>
        <pt x="126" y="61" on="0"/>
        <pt x="129" y="87" on="1"/>
        <pt x="129" y="94" on="0"/>
        <pt x="130" y="113" on="0"/>
        <pt x="131" y="141" on="0"/>
        <pt x="131" y="181" on="0"/>
        <pt x="131" y="211" on="1"/>
        <pt x="131" y="414" on="1"/>
        <pt x="131" y="424" on="0"/>
        <pt x="131" y="465" on="0"/>
        <pt x="131" y="511" on="0"/>
        <pt x="130" y="555" on="0"/>
      </contour>
      <contour>
        <pt x="350" y="48" on="1"/>
        <pt x="410" y="48" on="0"/>
        <pt x="502" y="92" on="0"/>
        <pt x="565" y="167" on="0"/>
        <pt x="598" y="269" on="0"/>
        <pt x="598" y="328" on="1"/>
        <pt x="598" y="388" on="0"/>
        <pt x="564" y="490" on="0"/>
        <pt x="499" y="564" on="0"/>
        <pt x="405" y="606" on="0"/>
        <pt x="345" y="606" on="1"/>
        <pt x="207" y="606" on="1"/>
        <pt x="205" y="577" on="0"/>
        <pt x="204" y="538" on="0"/>
        <pt x="202" y="498" on="0"/>
        <pt x="202" y="451" on="0"/>
        <pt x="202" y="415" on="1"/>
        <pt x="202" y="231" on="1"/>
        <pt x="202" y="171" on="0"/>
        <pt x="203" y="104" on="0"/>
        <pt x="205" y="87" on="1"/>
        <pt x="208" y="61" on="0"/>
        <pt x="228" y="48" on="0"/>
        <pt x="254" y="48" on="1"/>
      </contour>
      <contour>
        <pt x="350" y="713" on="1"/>
        <pt x="240" y="812" on="1"/>
        <pt x="237" y="818" on="1"/>
        <pt x="243" y="838" on="1"/>
        <pt x="250" y="841" on="1"/>
        <pt x="354" y="779" on="1"/>
        <pt x="458" y="841" on="1"/>
        <pt x="465" y="838" on="1"/>
        <pt x="471" y="818" on="1"/>
        <pt x="468" y="812" on="1"/>
        <pt x="358" y="713" on="1"/>
      </contour>
    </TTGlyph>
    <TTGlyph name="Dcroat" xMin="44" yMin="-6" xMax="680" yMax="660">
      <contour>
        <pt x="52" y="370" on="1"/>
        <pt x="132" y="370" on="1"/>
        <pt x="132" y="414" on="1"/>
        <pt x="132" y="424" on="0"/>
        <pt x="132" y="465" on="0"/>
        <pt x="132" y="511" on="0"/>
        <pt x="131" y="555" on="0"/>
        <pt x="130" y="567" on="1"/>
        <pt x="128" y="592" on="0"/>
        <pt x="114" y="617" on="0"/>
        <pt x="105" y="624" on="1"/>
        <pt x="96" y="629" on="0"/>
        <pt x="77" y="634" on="0"/>
        <pt x="52" y="634" on="1"/>
        <pt x="47" y="638" on="1"/>
        <pt x="44" y="656" on="1"/>
        <pt x="46" y="660" on="1"/>
        <pt x="53" y="660" on="0"/>
        <pt x="79" y="658" on="0"/>
        <pt x="109" y="656" on="0"/>
        <pt x="138" y="654" on="0"/>
        <pt x="149" y="654" on="1"/>
        <pt x="206" y="654" on="1"/>
        <pt x="219" y="654" on="0"/>
        <pt x="258" y="655" on="0"/>
        <pt x="299" y="657" on="0"/>
        <pt x="338" y="658" on="0"/>
        <pt x="350" y="658" on="1"/>
        <pt x="428" y="658" on="0"/>
        <pt x="551" y="605" on="0"/>
        <pt x="635" y="515" on="0"/>
        <pt x="680" y="395" on="0"/>
        <pt x="680" y="328" on="1"/>
        <pt x="680" y="262" on="0"/>
        <pt x="637" y="143" on="0"/>
        <pt x="553" y="52" on="0"/>
        <pt x="427" y="-2" on="0"/>
        <pt x="344" y="-2" on="1"/>
        <pt x="335" y="-2" on="0"/>
        <pt x="299" y="-1" on="0"/>
        <pt x="259" y="-1" on="0"/>
        <pt x="222" y="0" on="0"/>
        <pt x="211" y="0" on="1"/>
        <pt x="158" y="0" on="1"/>
        <pt x="151" y="0" on="0"/>
        <pt x="119" y="-2" on="0"/>
        <pt x="85" y="-4" on="0"/>
        <pt x="53" y="-6" on="0"/>
        <pt x="46" y="-6" on="1"/>
        <pt x="44" y="-2" on="1"/>
        <pt x="47" y="16" on="1"/>
        <pt x="52" y="20" on="1"/>
        <pt x="64" y="20" on="0"/>
        <pt x="96" y="23" on="0"/>
        <pt x="105" y="29" on="1"/>
        <pt x="113" y="35" on="0"/>
        <pt x="127" y="61" on="0"/>
        <pt x="130" y="87" on="1"/>
        <pt x="130" y="94" on="0"/>
        <pt x="131" y="113" on="0"/>
        <pt x="132" y="141" on="0"/>
        <pt x="132" y="181" on="0"/>
        <pt x="132" y="211" on="1"/>
        <pt x="132" y="326" on="1"/>
        <pt x="44" y="326" on="1"/>
      </contour>
      <contour>
        <pt x="351" y="48" on="1"/>
        <pt x="411" y="48" on="0"/>
        <pt x="503" y="92" on="0"/>
        <pt x="566" y="167" on="0"/>
        <pt x="599" y="269" on="0"/>
        <pt x="599" y="328" on="1"/>
        <pt x="599" y="388" on="0"/>
        <pt x="565" y="490" on="0"/>
        <pt x="500" y="564" on="0"/>
        <pt x="406" y="606" on="0"/>
        <pt x="346" y="606" on="1"/>
        <pt x="208" y="606" on="1"/>
        <pt x="206" y="577" on="0"/>
        <pt x="205" y="538" on="0"/>
        <pt x="203" y="498" on="0"/>
        <pt x="203" y="451" on="0"/>
        <pt x="203" y="415" on="1"/>
        <pt x="203" y="370" on="1"/>
        <pt x="381" y="370" on="1"/>
        <pt x="373" y="326" on="1"/>
        <pt x="203" y="326" on="1"/>
        <pt x="203" y="231" on="1"/>
        <pt x="203" y="171" on="0"/>
        <pt x="204" y="104" on="0"/>
        <pt x="206" y="87" on="1"/>
        <pt x="209" y="61" on="0"/>
        <pt x="229" y="48" on="0"/>
        <pt x="255" y="48" on="1"/>
      </contour>
    </TTGlyph>
    <TTGlyph name="E" xMin="43" yMin="-6" xMax="529" yMax="660">
      <contour>
        <pt x="331" y="654" on="1"/>
        <pt x="344" y="654" on="0"/>
        <pt x="397" y="655" on="0"/>
        <pt x="451" y="657" on="0"/>
        <pt x="494" y="658" on="0"/>
        <pt x="499" y="658" on="1"/>
        <pt x="504" y="648" on="1"/>
        <pt x="500" y="539" on="1"/>
        <pt x="475" y="539" on="1"/>
        <pt x="471" y="543" on="1"/>
        <pt x="469" y="566" on="0"/>
        <pt x="462" y="592" on="0"/>
        <pt x="429" y="604" on="0"/>
        <pt x="363" y="606" on="0"/>
        <pt x="303" y="606" on="1"/>
        <pt x="207" y="606" on="1"/>
        <pt x="205" y="567" on="1"/>
        <pt x="204" y="551" on="0"/>
        <pt x="203" y="529" on="0"/>
        <pt x="202" y="497" on="0"/>
        <pt x="202" y="452" on="0"/>
        <pt x="202" y="366" on="1"/>
        <pt x="232" y="367" on="0"/>
        <pt x="292" y="367" on="0"/>
        <pt x="341" y="369" on="0"/>
        <pt x="375" y="376" on="0"/>
        <pt x="381" y="383" on="1"/>
        <pt x="389" y="391" on="0"/>
        <pt x="401" y="407" on="0"/>
        <pt x="401" y="422" on="1"/>
        <pt x="406" y="427" on="1"/>
        <pt x="423" y="429" on="1"/>
        <pt x="427" y="427" on="1"/>
        <pt x="425" y="404" on="0"/>
        <pt x="422" y="370" on="0"/>
        <pt x="422" y="348" on="1"/>
        <pt x="422" y="324" on="0"/>
        <pt x="425" y="283" on="0"/>
        <pt x="427" y="259" on="1"/>
        <pt x="423" y="257" on="1"/>
        <pt x="405" y="259" on="1"/>
        <pt x="401" y="262" on="1"/>
        <pt x="401" y="278" on="0"/>
        <pt x="389" y="305" on="0"/>
        <pt x="381" y="314" on="1"/>
        <pt x="375" y="320" on="0"/>
        <pt x="341" y="326" on="0"/>
        <pt x="293" y="328" on="0"/>
        <pt x="233" y="328" on="0"/>
        <pt x="202" y="328" on="1"/>
        <pt x="202" y="231" on="1"/>
        <pt x="202" y="195" on="0"/>
        <pt x="202" y="150" on="0"/>
        <pt x="203" y="115" on="0"/>
        <pt x="205" y="86" on="0"/>
        <pt x="207" y="67" on="1"/>
        <pt x="207" y="48" on="0"/>
        <pt x="227" y="48" on="1"/>
        <pt x="312" y="48" on="1"/>
        <pt x="372" y="48" on="0"/>
        <pt x="441" y="53" on="0"/>
        <pt x="477" y="69" on="0"/>
        <pt x="492" y="102" on="0"/>
        <pt x="499" y="129" on="1"/>
        <pt x="503" y="133" on="1"/>
        <pt x="529" y="133" on="1"/>
        <pt x="511" y="6" on="1"/>
        <pt x="503" y="-4" on="1"/>
        <pt x="498" y="-4" on="0"/>
        <pt x="462" y="-3" on="0"/>
        <pt x="417" y="-1" on="0"/>
        <pt x="372" y="0" on="0"/>
        <pt x="359" y="0" on="1"/>
        <pt x="157" y="0" on="1"/>
        <pt x="150" y="0" on="0"/>
        <pt x="118" y="-2" on="0"/>
        <pt x="84" y="-4" on="0"/>
        <pt x="52" y="-6" on="0"/>
        <pt x="45" y="-6" on="1"/>
        <pt x="43" y="-2" on="1"/>
        <pt x="46" y="16" on="1"/>
        <pt x="51" y="20" on="1"/>
        <pt x="67" y="20" on="0"/>
        <pt x="95" y="23" on="0"/>
        <pt x="104" y="30" on="1"/>
        <pt x="112" y="37" on="0"/>
        <pt x="127" y="59" on="0"/>
        <pt x="129" y="87" on="1"/>
        <pt x="129" y="94" on="0"/>
        <pt x="130" y="113" on="0"/>
        <pt x="131" y="141" on="0"/>
        <pt x="131" y="181" on="0"/>
        <pt x="131" y="211" on="1"/>
        <pt x="131" y="414" on="1"/>
        <pt x="131" y="449" on="0"/>
        <pt x="131" y="497" on="0"/>
        <pt x="131" y="531" on="0"/>
        <pt x="130" y="555" on="0"/>
        <pt x="129" y="567" on="1"/>
        <pt x="127" y="594" on="0"/>
        <pt x="112" y="617" on="0"/>
        <pt x="104" y="624" on="1"/>
        <pt x="95" y="631" on="0"/>
        <pt x="67" y="634" on="0"/>
        <pt x="51" y="634" on="1"/>
        <pt x="46" y="638" on="1"/>
        <pt x="43" y="656" on="1"/>
        <pt x="45" y="660" on="1"/>
        <pt x="52" y="660" on="0"/>
        <pt x="84" y="658" on="0"/>
        <pt x="121" y="656" on="0"/>
        <pt x="156" y="654" on="0"/>
        <pt x="167" y="654" on="1"/>
      </contour>
    </TTGlyph>
    <TTGlyph name="Eacute" xMin="43" yMin="-6" xMax="529" yMax="848">
      <contour>
        <pt x="182" y="721" on="1"/>
        <pt x="176" y="741" on="1"/>
        <pt x="179" y="748" on="1"/>
        <pt x="360" y="848" on="1"/>
        <pt x="377" y="847" on="0"/>
        <pt x="395" y="828" on="0"/>
        <pt x="395" y="814" on="1"/>
        <pt x="395" y="804" on="0"/>
        <pt x="391" y="795" on="1"/>
        <pt x="189" y="718" on="1"/>
      </contour>
      <contour>
        <pt x="331" y="654" on="1"/>
        <pt x="344" y="654" on="0"/>
        <pt x="397" y="655" on="0"/>
        <pt x="451" y="657" on="0"/>
        <pt x="494" y="658" on="0"/>
        <pt x="499" y="658" on="1"/>
        <pt x="504" y="648" on="1"/>
        <pt x="500" y="539" on="1"/>
        <pt x="475" y="539" on="1"/>
        <pt x="471" y="543" on="1"/>
        <pt x="469" y="566" on="0"/>
        <pt x="462" y="592" on="0"/>
        <pt x="429" y="604" on="0"/>
        <pt x="363" y="606" on="0"/>
        <pt x="303" y="606" on="1"/>
        <pt x="207" y="606" on="1"/>
        <pt x="205" y="567" on="1"/>
        <pt x="204" y="553" on="0"/>
        <pt x="203" y="529" on="0"/>
        <pt x="202" y="497" on="0"/>
        <pt x="202" y="451" on="0"/>
        <pt x="202" y="366" on="1"/>
        <pt x="232" y="367" on="0"/>
        <pt x="292" y="367" on="0"/>
        <pt x="341" y="369" on="0"/>
        <pt x="375" y="376" on="0"/>
        <pt x="381" y="383" on="1"/>
        <pt x="389" y="391" on="0"/>
        <pt x="401" y="407" on="0"/>
        <pt x="401" y="422" on="1"/>
        <pt x="406" y="427" on="1"/>
        <pt x="423" y="429" on="1"/>
        <pt x="427" y="427" on="1"/>
        <pt x="425" y="404" on="0"/>
        <pt x="422" y="370" on="0"/>
        <pt x="422" y="348" on="1"/>
        <pt x="422" y="324" on="0"/>
        <pt x="425" y="283" on="0"/>
        <pt x="427" y="259" on="1"/>
        <pt x="423" y="257" on="1"/>
        <pt x="405" y="259" on="1"/>
        <pt x="401" y="262" on="1"/>
        <pt x="401" y="278" on="0"/>
        <pt x="389" y="305" on="0"/>
        <pt x="381" y="314" on="1"/>
        <pt x="375" y="320" on="0"/>
        <pt x="341" y="326" on="0"/>
        <pt x="293" y="328" on="0"/>
        <pt x="233" y="328" on="0"/>
        <pt x="202" y="328" on="1"/>
        <pt x="202" y="231" on="1"/>
        <pt x="202" y="195" on="0"/>
        <pt x="202" y="150" on="0"/>
        <pt x="203" y="115" on="0"/>
        <pt x="205" y="86" on="0"/>
        <pt x="207" y="67" on="1"/>
        <pt x="207" y="48" on="0"/>
        <pt x="227" y="48" on="1"/>
        <pt x="312" y="48" on="1"/>
        <pt x="372" y="48" on="0"/>
        <pt x="441" y="53" on="0"/>
        <pt x="477" y="69" on="0"/>
        <pt x="492" y="102" on="0"/>
        <pt x="499" y="129" on="1"/>
        <pt x="503" y="133" on="1"/>
        <pt x="529" y="133" on="1"/>
        <pt x="511" y="6" on="1"/>
        <pt x="503" y="-4" on="1"/>
        <pt x="498" y="-4" on="0"/>
        <pt x="462" y="-3" on="0"/>
        <pt x="417" y="-1" on="0"/>
        <pt x="372" y="0" on="0"/>
        <pt x="359" y="0" on="1"/>
        <pt x="157" y="0" on="1"/>
        <pt x="150" y="0" on="0"/>
        <pt x="118" y="-2" on="0"/>
        <pt x="84" y="-4" on="0"/>
        <pt x="52" y="-6" on="0"/>
        <pt x="45" y="-6" on="1"/>
        <pt x="43" y="-2" on="1"/>
        <pt x="46" y="16" on="1"/>
        <pt x="51" y="20" on="1"/>
        <pt x="67" y="20" on="0"/>
        <pt x="95" y="23" on="0"/>
        <pt x="104" y="30" on="1"/>
        <pt x="112" y="37" on="0"/>
        <pt x="127" y="59" on="0"/>
        <pt x="129" y="87" on="1"/>
        <pt x="129" y="94" on="0"/>
        <pt x="130" y="113" on="0"/>
        <pt x="131" y="141" on="0"/>
        <pt x="131" y="181" on="0"/>
        <pt x="131" y="211" on="1"/>
        <pt x="131" y="414" on="1"/>
        <pt x="131" y="449" on="0"/>
        <pt x="131" y="497" on="0"/>
        <pt x="131" y="531" on="0"/>
        <pt x="130" y="555" on="0"/>
        <pt x="129" y="567" on="1"/>
        <pt x="127" y="594" on="0"/>
        <pt x="112" y="617" on="0"/>
        <pt x="104" y="624" on="1"/>
        <pt x="95" y="631" on="0"/>
        <pt x="67" y="634" on="0"/>
        <pt x="51" y="634" on="1"/>
        <pt x="46" y="638" on="1"/>
        <pt x="43" y="656" on="1"/>
        <pt x="45" y="660" on="1"/>
        <pt x="52" y="660" on="0"/>
        <pt x="84" y="658" on="0"/>
        <pt x="121" y="656" on="0"/>
        <pt x="156" y="654" on="0"/>
        <pt x="167" y="654" on="1"/>
      </contour>
    </TTGlyph>
    <TTGlyph name="Ecaron" xMin="43" yMin="-6" xMax="529" yMax="841">
      <contour>
        <pt x="331" y="654" on="1"/>
        <pt x="344" y="654" on="0"/>
        <pt x="397" y="655" on="0"/>
        <pt x="451" y="657" on="0"/>
        <pt x="494" y="658" on="0"/>
        <pt x="499" y="658" on="1"/>
        <pt x="504" y="648" on="1"/>
        <pt x="500" y="539" on="1"/>
        <pt x="475" y="539" on="1"/>
        <pt x="471" y="543" on="1"/>
        <pt x="469" y="566" on="0"/>
        <pt x="462" y="592" on="0"/>
        <pt x="429" y="604" on="0"/>
        <pt x="363" y="606" on="0"/>
        <pt x="303" y="606" on="1"/>
        <pt x="207" y="606" on="1"/>
        <pt x="205" y="567" on="1"/>
        <pt x="204" y="553" on="0"/>
        <pt x="203" y="529" on="0"/>
        <pt x="202" y="497" on="0"/>
        <pt x="202" y="451" on="0"/>
        <pt x="202" y="366" on="1"/>
        <pt x="232" y="367" on="0"/>
        <pt x="292" y="367" on="0"/>
        <pt x="341" y="369" on="0"/>
        <pt x="375" y="376" on="0"/>
        <pt x="381" y="383" on="1"/>
        <pt x="389" y="391" on="0"/>
        <pt x="401" y="407" on="0"/>
        <pt x="401" y="422" on="1"/>
        <pt x="406" y="427" on="1"/>
        <pt x="423" y="429" on="1"/>
        <pt x="427" y="427" on="1"/>
        <pt x="425" y="404" on="0"/>
        <pt x="422" y="370" on="0"/>
        <pt x="422" y="348" on="1"/>
        <pt x="422" y="324" on="0"/>
        <pt x="425" y="283" on="0"/>
        <pt x="427" y="259" on="1"/>
        <pt x="423" y="257" on="1"/>
        <pt x="405" y="259" on="1"/>
        <pt x="401" y="262" on="1"/>
        <pt x="401" y="278" on="0"/>
        <pt x="389" y="305" on="0"/>
        <pt x="381" y="314" on="1"/>
        <pt x="375" y="320" on="0"/>
        <pt x="341" y="326" on="0"/>
        <pt x="293" y="328" on="0"/>
        <pt x="233" y="328" on="0"/>
        <pt x="202" y="328" on="1"/>
        <pt x="202" y="231" on="1"/>
        <pt x="202" y="195" on="0"/>
        <pt x="202" y="150" on="0"/>
        <pt x="203" y="115" on="0"/>
        <pt x="205" y="86" on="0"/>
        <pt x="207" y="67" on="1"/>
        <pt x="207" y="48" on="0"/>
        <pt x="227" y="48" on="1"/>
        <pt x="312" y="48" on="1"/>
        <pt x="372" y="48" on="0"/>
        <pt x="441" y="53" on="0"/>
        <pt x="477" y="69" on="0"/>
        <pt x="492" y="102" on="0"/>
        <pt x="499" y="129" on="1"/>
        <pt x="503" y="133" on="1"/>
        <pt x="529" y="133" on="1"/>
        <pt x="511" y="6" on="1"/>
        <pt x="503" y="-4" on="1"/>
        <pt x="498" y="-4" on="0"/>
        <pt x="462" y="-3" on="0"/>
        <pt x="417" y="-1" on="0"/>
        <pt x="372" y="0" on="0"/>
        <pt x="359" y="0" on="1"/>
        <pt x="157" y="0" on="1"/>
        <pt x="150" y="0" on="0"/>
        <pt x="118" y="-2" on="0"/>
        <pt x="84" y="-4" on="0"/>
        <pt x="52" y="-6" on="0"/>
        <pt x="45" y="-6" on="1"/>
        <pt x="43" y="-2" on="1"/>
        <pt x="46" y="16" on="1"/>
        <pt x="51" y="20" on="1"/>
        <pt x="67" y="20" on="0"/>
        <pt x="95" y="23" on="0"/>
        <pt x="104" y="30" on="1"/>
        <pt x="112" y="37" on="0"/>
        <pt x="127" y="59" on="0"/>
        <pt x="129" y="87" on="1"/>
        <pt x="129" y="94" on="0"/>
        <pt x="130" y="113" on="0"/>
        <pt x="131" y="141" on="0"/>
        <pt x="131" y="181" on="0"/>
        <pt x="131" y="211" on="1"/>
        <pt x="131" y="414" on="1"/>
        <pt x="131" y="449" on="0"/>
        <pt x="131" y="497" on="0"/>
        <pt x="131" y="531" on="0"/>
        <pt x="130" y="555" on="0"/>
        <pt x="129" y="567" on="1"/>
        <pt x="127" y="594" on="0"/>
        <pt x="112" y="617" on="0"/>
        <pt x="104" y="624" on="1"/>
        <pt x="95" y="631" on="0"/>
        <pt x="67" y="634" on="0"/>
        <pt x="51" y="634" on="1"/>
        <pt x="46" y="638" on="1"/>
        <pt x="43" y="656" on="1"/>
        <pt x="45" y="660" on="1"/>
        <pt x="52" y="660" on="0"/>
        <pt x="84" y="658" on="0"/>
        <pt x="121" y="656" on="0"/>
        <pt x="156" y="654" on="0"/>
        <pt x="167" y="654" on="1"/>
      </contour>
      <contour>
        <pt x="277" y="713" on="1"/>
        <pt x="167" y="812" on="1"/>
        <pt x="164" y="818" on="1"/>
        <pt x="170" y="838" on="1"/>
        <pt x="177" y="841" on="1"/>
        <pt x="281" y="779" on="1"/>
        <pt x="385" y="841" on="1"/>
        <pt x="392" y="838" on="1"/>
        <pt x="398" y="818" on="1"/>
        <pt x="395" y="812" on="1"/>
        <pt x="285" y="713" on="1"/>
      </contour>
    </TTGlyph>
    <TTGlyph name="Ecircumflex" xMin="43" yMin="-6" xMax="529" yMax="842">
      <contour>
        <pt x="299" y="842" on="1"/>
        <pt x="409" y="743" on="1"/>
        <pt x="412" y="736" on="1"/>
        <pt x="406" y="716" on="1"/>
        <pt x="399" y="713" on="1"/>
        <pt x="295" y="775" on="1"/>
        <pt x="191" y="713" on="1"/>
        <pt x="184" y="716" on="1"/>
        <pt x="178" y="736" on="1"/>
        <pt x="181" y="743" on="1"/>
        <pt x="291" y="842" on="1"/>
      </contour>
      <contour>
        <pt x="331" y="654" on="1"/>
        <pt x="344" y="654" on="0"/>
        <pt x="397" y="655" on="0"/>
        <pt x="451" y="657" on="0"/>
        <pt x="494" y="658" on="0"/>
        <pt x="499" y="658" on="1"/>
        <pt x="504" y="648" on="1"/>
        <pt x="500" y="539" on="1"/>
        <pt x="475" y="539" on="1"/>
        <pt x="471" y="543" on="1"/>
        <pt x="469" y="566" on="0"/>
        <pt x="462" y="592" on="0"/>
        <pt x="429" y="604" on="0"/>
        <pt x="363" y="606" on="0"/>
        <pt x="303" y="606" on="1"/>
        <pt x="207" y="606" on="1"/>
        <pt x="205" y="567" on="1"/>
        <pt x="204" y="553" on="0"/>
        <pt x="203" y="529" on="0"/>
        <pt x="202" y="497" on="0"/>
        <pt x="202" y="451" on="0"/>
        <pt x="202" y="366" on="1"/>
        <pt x="232" y="367" on="0"/>
        <pt x="292" y="367" on="0"/>
        <pt x="341" y="369" on="0"/>
        <pt x="375" y="376" on="0"/>
        <pt x="381" y="383" on="1"/>
        <pt x="389" y="391" on="0"/>
        <pt x="401" y="407" on="0"/>
        <pt x="401" y="422" on="1"/>
        <pt x="406" y="427" on="1"/>
        <pt x="423" y="429" on="1"/>
        <pt x="427" y="427" on="1"/>
        <pt x="425" y="404" on="0"/>
        <pt x="422" y="370" on="0"/>
        <pt x="422" y="348" on="1"/>
        <pt x="422" y="324" on="0"/>
        <pt x="425" y="283" on="0"/>
        <pt x="427" y="259" on="1"/>
        <pt x="423" y="257" on="1"/>
        <pt x="405" y="259" on="1"/>
        <pt x="401" y="262" on="1"/>
        <pt x="401" y="278" on="0"/>
        <pt x="389" y="305" on="0"/>
        <pt x="381" y="314" on="1"/>
        <pt x="375" y="320" on="0"/>
        <pt x="341" y="326" on="0"/>
        <pt x="293" y="328" on="0"/>
        <pt x="233" y="328" on="0"/>
        <pt x="202" y="328" on="1"/>
        <pt x="202" y="231" on="1"/>
        <pt x="202" y="195" on="0"/>
        <pt x="202" y="150" on="0"/>
        <pt x="203" y="115" on="0"/>
        <pt x="205" y="86" on="0"/>
        <pt x="207" y="67" on="1"/>
        <pt x="207" y="48" on="0"/>
        <pt x="227" y="48" on="1"/>
        <pt x="312" y="48" on="1"/>
        <pt x="372" y="48" on="0"/>
        <pt x="441" y="53" on="0"/>
        <pt x="477" y="69" on="0"/>
        <pt x="492" y="102" on="0"/>
        <pt x="499" y="129" on="1"/>
        <pt x="503" y="133" on="1"/>
        <pt x="529" y="133" on="1"/>
        <pt x="511" y="6" on="1"/>
        <pt x="503" y="-4" on="1"/>
        <pt x="498" y="-4" on="0"/>
        <pt x="462" y="-3" on="0"/>
        <pt x="417" y="-1" on="0"/>
        <pt x="372" y="0" on="0"/>
        <pt x="359" y="0" on="1"/>
        <pt x="157" y="0" on="1"/>
        <pt x="150" y="0" on="0"/>
        <pt x="118" y="-2" on="0"/>
        <pt x="84" y="-4" on="0"/>
        <pt x="52" y="-6" on="0"/>
        <pt x="45" y="-6" on="1"/>
        <pt x="43" y="-2" on="1"/>
        <pt x="46" y="16" on="1"/>
        <pt x="51" y="20" on="1"/>
        <pt x="67" y="20" on="0"/>
        <pt x="95" y="23" on="0"/>
        <pt x="104" y="30" on="1"/>
        <pt x="112" y="37" on="0"/>
        <pt x="127" y="59" on="0"/>
        <pt x="129" y="87" on="1"/>
        <pt x="129" y="94" on="0"/>
        <pt x="130" y="113" on="0"/>
        <pt x="131" y="141" on="0"/>
        <pt x="131" y="181" on="0"/>
        <pt x="131" y="211" on="1"/>
        <pt x="131" y="414" on="1"/>
        <pt x="131" y="449" on="0"/>
        <pt x="131" y="497" on="0"/>
        <pt x="131" y="531" on="0"/>
        <pt x="130" y="555" on="0"/>
        <pt x="129" y="567" on="1"/>
        <pt x="127" y="594" on="0"/>
        <pt x="112" y="617" on="0"/>
        <pt x="104" y="624" on="1"/>
        <pt x="95" y="631" on="0"/>
        <pt x="67" y="634" on="0"/>
        <pt x="51" y="634" on="1"/>
        <pt x="46" y="638" on="1"/>
        <pt x="43" y="656" on="1"/>
        <pt x="45" y="660" on="1"/>
        <pt x="52" y="660" on="0"/>
        <pt x="84" y="658" on="0"/>
        <pt x="121" y="656" on="0"/>
        <pt x="156" y="654" on="0"/>
        <pt x="167" y="654" on="1"/>
      </contour>
    </TTGlyph>
    <TTGlyph name="Edieresis" xMin="43" yMin="-6" xMax="529" yMax="839">
      <contour>
        <pt x="331" y="654" on="1"/>
        <pt x="344" y="654" on="0"/>
        <pt x="397" y="655" on="0"/>
        <pt x="451" y="657" on="0"/>
        <pt x="494" y="658" on="0"/>
        <pt x="499" y="658" on="1"/>
        <pt x="504" y="648" on="1"/>
        <pt x="500" y="539" on="1"/>
        <pt x="475" y="539" on="1"/>
        <pt x="471" y="543" on="1"/>
        <pt x="469" y="566" on="0"/>
        <pt x="462" y="592" on="0"/>
        <pt x="429" y="604" on="0"/>
        <pt x="363" y="606" on="0"/>
        <pt x="303" y="606" on="1"/>
        <pt x="207" y="606" on="1"/>
        <pt x="205" y="567" on="1"/>
        <pt x="204" y="553" on="0"/>
        <pt x="203" y="529" on="0"/>
        <pt x="202" y="497" on="0"/>
        <pt x="202" y="451" on="0"/>
        <pt x="202" y="366" on="1"/>
        <pt x="232" y="367" on="0"/>
        <pt x="292" y="367" on="0"/>
        <pt x="341" y="369" on="0"/>
        <pt x="375" y="376" on="0"/>
        <pt x="381" y="383" on="1"/>
        <pt x="389" y="391" on="0"/>
        <pt x="401" y="407" on="0"/>
        <pt x="401" y="422" on="1"/>
        <pt x="406" y="427" on="1"/>
        <pt x="423" y="429" on="1"/>
        <pt x="427" y="427" on="1"/>
        <pt x="425" y="404" on="0"/>
        <pt x="422" y="370" on="0"/>
        <pt x="422" y="348" on="1"/>
        <pt x="422" y="324" on="0"/>
        <pt x="425" y="283" on="0"/>
        <pt x="427" y="259" on="1"/>
        <pt x="423" y="257" on="1"/>
        <pt x="405" y="259" on="1"/>
        <pt x="401" y="262" on="1"/>
        <pt x="401" y="278" on="0"/>
        <pt x="389" y="305" on="0"/>
        <pt x="381" y="314" on="1"/>
        <pt x="375" y="320" on="0"/>
        <pt x="341" y="326" on="0"/>
        <pt x="293" y="328" on="0"/>
        <pt x="233" y="328" on="0"/>
        <pt x="202" y="328" on="1"/>
        <pt x="202" y="231" on="1"/>
        <pt x="202" y="195" on="0"/>
        <pt x="202" y="150" on="0"/>
        <pt x="203" y="115" on="0"/>
        <pt x="205" y="86" on="0"/>
        <pt x="207" y="67" on="1"/>
        <pt x="207" y="48" on="0"/>
        <pt x="227" y="48" on="1"/>
        <pt x="312" y="48" on="1"/>
        <pt x="372" y="48" on="0"/>
        <pt x="441" y="53" on="0"/>
        <pt x="477" y="69" on="0"/>
        <pt x="492" y="102" on="0"/>
        <pt x="499" y="129" on="1"/>
        <pt x="503" y="133" on="1"/>
        <pt x="529" y="133" on="1"/>
        <pt x="511" y="6" on="1"/>
        <pt x="503" y="-4" on="1"/>
        <pt x="498" y="-4" on="0"/>
        <pt x="462" y="-3" on="0"/>
        <pt x="417" y="-1" on="0"/>
        <pt x="372" y="0" on="0"/>
        <pt x="359" y="0" on="1"/>
        <pt x="157" y="0" on="1"/>
        <pt x="150" y="0" on="0"/>
        <pt x="118" y="-2" on="0"/>
        <pt x="84" y="-4" on="0"/>
        <pt x="52" y="-6" on="0"/>
        <pt x="45" y="-6" on="1"/>
        <pt x="43" y="-2" on="1"/>
        <pt x="46" y="16" on="1"/>
        <pt x="51" y="20" on="1"/>
        <pt x="67" y="20" on="0"/>
        <pt x="95" y="23" on="0"/>
        <pt x="104" y="30" on="1"/>
        <pt x="112" y="37" on="0"/>
        <pt x="127" y="59" on="0"/>
        <pt x="129" y="87" on="1"/>
        <pt x="129" y="94" on="0"/>
        <pt x="130" y="113" on="0"/>
        <pt x="131" y="141" on="0"/>
        <pt x="131" y="181" on="0"/>
        <pt x="131" y="211" on="1"/>
        <pt x="131" y="414" on="1"/>
        <pt x="131" y="449" on="0"/>
        <pt x="131" y="497" on="0"/>
        <pt x="131" y="531" on="0"/>
        <pt x="130" y="555" on="0"/>
        <pt x="129" y="567" on="1"/>
        <pt x="127" y="594" on="0"/>
        <pt x="112" y="617" on="0"/>
        <pt x="104" y="624" on="1"/>
        <pt x="95" y="631" on="0"/>
        <pt x="67" y="634" on="0"/>
        <pt x="51" y="634" on="1"/>
        <pt x="46" y="638" on="1"/>
        <pt x="43" y="656" on="1"/>
        <pt x="45" y="660" on="1"/>
        <pt x="52" y="660" on="0"/>
        <pt x="84" y="658" on="0"/>
        <pt x="121" y="656" on="0"/>
        <pt x="156" y="654" on="0"/>
        <pt x="167" y="654" on="1"/>
      </contour>
      <contour>
        <pt x="166" y="794" on="1"/>
        <pt x="166" y="812" on="0"/>
        <pt x="190" y="839" on="0"/>
        <pt x="207" y="839" on="1"/>
        <pt x="224" y="839" on="0"/>
        <pt x="249" y="812" on="0"/>
        <pt x="249" y="794" on="1"/>
        <pt x="249" y="775" on="0"/>
        <pt x="224" y="750" on="0"/>
        <pt x="207" y="750" on="1"/>
        <pt x="190" y="750" on="0"/>
        <pt x="166" y="775" on="0"/>
      </contour>
      <contour>
        <pt x="323" y="794" on="1"/>
        <pt x="323" y="812" on="0"/>
        <pt x="347" y="839" on="0"/>
        <pt x="364" y="839" on="1"/>
        <pt x="381" y="839" on="0"/>
        <pt x="406" y="812" on="0"/>
        <pt x="406" y="794" on="1"/>
        <pt x="406" y="775" on="0"/>
        <pt x="381" y="750" on="0"/>
        <pt x="364" y="750" on="1"/>
        <pt x="347" y="750" on="0"/>
        <pt x="323" y="775" on="0"/>
      </contour>
    </TTGlyph>
    <TTGlyph name="Egrave" xMin="43" yMin="-6" xMax="529" yMax="848">
      <contour>
        <pt x="381" y="718" on="1"/>
        <pt x="180" y="795" on="1"/>
        <pt x="176" y="804" on="0"/>
        <pt x="176" y="814" on="1"/>
        <pt x="176" y="828" on="0"/>
        <pt x="194" y="847" on="0"/>
        <pt x="211" y="848" on="1"/>
        <pt x="392" y="748" on="1"/>
        <pt x="395" y="741" on="1"/>
        <pt x="389" y="721" on="1"/>
      </contour>
      <contour>
        <pt x="331" y="654" on="1"/>
        <pt x="344" y="654" on="0"/>
        <pt x="397" y="655" on="0"/>
        <pt x="451" y="657" on="0"/>
        <pt x="494" y="658" on="0"/>
        <pt x="499" y="658" on="1"/>
        <pt x="504" y="648" on="1"/>
        <pt x="500" y="539" on="1"/>
        <pt x="475" y="539" on="1"/>
        <pt x="471" y="543" on="1"/>
        <pt x="469" y="566" on="0"/>
        <pt x="462" y="592" on="0"/>
        <pt x="429" y="604" on="0"/>
        <pt x="363" y="606" on="0"/>
        <pt x="303" y="606" on="1"/>
        <pt x="207" y="606" on="1"/>
        <pt x="205" y="567" on="1"/>
        <pt x="204" y="553" on="0"/>
        <pt x="203" y="529" on="0"/>
        <pt x="202" y="497" on="0"/>
        <pt x="202" y="451" on="0"/>
        <pt x="202" y="366" on="1"/>
        <pt x="232" y="367" on="0"/>
        <pt x="292" y="367" on="0"/>
        <pt x="341" y="369" on="0"/>
        <pt x="375" y="376" on="0"/>
        <pt x="381" y="383" on="1"/>
        <pt x="389" y="391" on="0"/>
        <pt x="401" y="407" on="0"/>
        <pt x="401" y="422" on="1"/>
        <pt x="406" y="427" on="1"/>
        <pt x="423" y="429" on="1"/>
        <pt x="427" y="427" on="1"/>
        <pt x="425" y="404" on="0"/>
        <pt x="422" y="370" on="0"/>
        <pt x="422" y="348" on="1"/>
        <pt x="422" y="324" on="0"/>
        <pt x="425" y="283" on="0"/>
        <pt x="427" y="259" on="1"/>
        <pt x="423" y="257" on="1"/>
        <pt x="405" y="259" on="1"/>
        <pt x="401" y="262" on="1"/>
        <pt x="401" y="278" on="0"/>
        <pt x="389" y="305" on="0"/>
        <pt x="381" y="314" on="1"/>
        <pt x="375" y="320" on="0"/>
        <pt x="341" y="326" on="0"/>
        <pt x="293" y="328" on="0"/>
        <pt x="233" y="328" on="0"/>
        <pt x="202" y="328" on="1"/>
        <pt x="202" y="231" on="1"/>
        <pt x="202" y="195" on="0"/>
        <pt x="202" y="150" on="0"/>
        <pt x="203" y="115" on="0"/>
        <pt x="205" y="86" on="0"/>
        <pt x="207" y="67" on="1"/>
        <pt x="207" y="48" on="0"/>
        <pt x="227" y="48" on="1"/>
        <pt x="312" y="48" on="1"/>
        <pt x="372" y="48" on="0"/>
        <pt x="441" y="53" on="0"/>
        <pt x="477" y="69" on="0"/>
        <pt x="492" y="102" on="0"/>
        <pt x="499" y="129" on="1"/>
        <pt x="503" y="133" on="1"/>
        <pt x="529" y="133" on="1"/>
        <pt x="511" y="6" on="1"/>
        <pt x="503" y="-4" on="1"/>
        <pt x="498" y="-4" on="0"/>
        <pt x="462" y="-3" on="0"/>
        <pt x="417" y="-1" on="0"/>
        <pt x="372" y="0" on="0"/>
        <pt x="359" y="0" on="1"/>
        <pt x="157" y="0" on="1"/>
        <pt x="150" y="0" on="0"/>
        <pt x="118" y="-2" on="0"/>
        <pt x="84" y="-4" on="0"/>
        <pt x="52" y="-6" on="0"/>
        <pt x="45" y="-6" on="1"/>
        <pt x="43" y="-2" on="1"/>
        <pt x="46" y="16" on="1"/>
        <pt x="51" y="20" on="1"/>
        <pt x="67" y="20" on="0"/>
        <pt x="95" y="23" on="0"/>
        <pt x="104" y="30" on="1"/>
        <pt x="112" y="37" on="0"/>
        <pt x="127" y="59" on="0"/>
        <pt x="129" y="87" on="1"/>
        <pt x="129" y="94" on="0"/>
        <pt x="130" y="113" on="0"/>
        <pt x="131" y="141" on="0"/>
        <pt x="131" y="181" on="0"/>
        <pt x="131" y="211" on="1"/>
        <pt x="131" y="414" on="1"/>
        <pt x="131" y="449" on="0"/>
        <pt x="131" y="497" on="0"/>
        <pt x="131" y="531" on="0"/>
        <pt x="130" y="555" on="0"/>
        <pt x="129" y="567" on="1"/>
        <pt x="127" y="594" on="0"/>
        <pt x="112" y="617" on="0"/>
        <pt x="104" y="624" on="1"/>
        <pt x="95" y="631" on="0"/>
        <pt x="67" y="634" on="0"/>
        <pt x="51" y="634" on="1"/>
        <pt x="46" y="638" on="1"/>
        <pt x="43" y="656" on="1"/>
        <pt x="45" y="660" on="1"/>
        <pt x="52" y="660" on="0"/>
        <pt x="84" y="658" on="0"/>
        <pt x="121" y="656" on="0"/>
        <pt x="156" y="654" on="0"/>
        <pt x="167" y="654" on="1"/>
      </contour>
    </TTGlyph>
    <TTGlyph name="Eth" xMin="44" yMin="-6" xMax="680" yMax="660">
      <contour>
        <pt x="52" y="370" on="1"/>
        <pt x="132" y="370" on="1"/>
        <pt x="132" y="414" on="1"/>
        <pt x="132" y="424" on="0"/>
        <pt x="132" y="465" on="0"/>
        <pt x="132" y="511" on="0"/>
        <pt x="131" y="555" on="0"/>
        <pt x="130" y="567" on="1"/>
        <pt x="128" y="592" on="0"/>
        <pt x="114" y="617" on="0"/>
        <pt x="105" y="624" on="1"/>
        <pt x="96" y="629" on="0"/>
        <pt x="77" y="634" on="0"/>
        <pt x="52" y="634" on="1"/>
        <pt x="47" y="638" on="1"/>
        <pt x="44" y="656" on="1"/>
        <pt x="46" y="660" on="1"/>
        <pt x="53" y="660" on="0"/>
        <pt x="79" y="658" on="0"/>
        <pt x="109" y="656" on="0"/>
        <pt x="138" y="654" on="0"/>
        <pt x="149" y="654" on="1"/>
        <pt x="206" y="654" on="1"/>
        <pt x="219" y="654" on="0"/>
        <pt x="258" y="655" on="0"/>
        <pt x="299" y="657" on="0"/>
        <pt x="338" y="658" on="0"/>
        <pt x="350" y="658" on="1"/>
        <pt x="428" y="658" on="0"/>
        <pt x="551" y="605" on="0"/>
        <pt x="635" y="515" on="0"/>
        <pt x="680" y="395" on="0"/>
        <pt x="680" y="328" on="1"/>
        <pt x="680" y="262" on="0"/>
        <pt x="637" y="143" on="0"/>
        <pt x="553" y="52" on="0"/>
        <pt x="427" y="-2" on="0"/>
        <pt x="344" y="-2" on="1"/>
        <pt x="335" y="-2" on="0"/>
        <pt x="299" y="-1" on="0"/>
        <pt x="259" y="-1" on="0"/>
        <pt x="222" y="0" on="0"/>
        <pt x="211" y="0" on="1"/>
        <pt x="158" y="0" on="1"/>
        <pt x="151" y="0" on="0"/>
        <pt x="119" y="-2" on="0"/>
        <pt x="85" y="-4" on="0"/>
        <pt x="53" y="-6" on="0"/>
        <pt x="46" y="-6" on="1"/>
        <pt x="44" y="-2" on="1"/>
        <pt x="47" y="16" on="1"/>
        <pt x="52" y="20" on="1"/>
        <pt x="64" y="20" on="0"/>
        <pt x="96" y="23" on="0"/>
        <pt x="105" y="29" on="1"/>
        <pt x="113" y="35" on="0"/>
        <pt x="127" y="61" on="0"/>
        <pt x="130" y="87" on="1"/>
        <pt x="130" y="94" on="0"/>
        <pt x="131" y="113" on="0"/>
        <pt x="132" y="141" on="0"/>
        <pt x="132" y="181" on="0"/>
        <pt x="132" y="211" on="1"/>
        <pt x="132" y="326" on="1"/>
        <pt x="44" y="326" on="1"/>
      </contour>
      <contour>
        <pt x="351" y="48" on="1"/>
        <pt x="411" y="48" on="0"/>
        <pt x="503" y="92" on="0"/>
        <pt x="566" y="167" on="0"/>
        <pt x="599" y="269" on="0"/>
        <pt x="599" y="328" on="1"/>
        <pt x="599" y="388" on="0"/>
        <pt x="565" y="490" on="0"/>
        <pt x="500" y="564" on="0"/>
        <pt x="406" y="606" on="0"/>
        <pt x="346" y="606" on="1"/>
        <pt x="208" y="606" on="1"/>
        <pt x="206" y="577" on="0"/>
        <pt x="205" y="538" on="0"/>
        <pt x="203" y="498" on="0"/>
        <pt x="203" y="451" on="0"/>
        <pt x="203" y="415" on="1"/>
        <pt x="203" y="370" on="1"/>
        <pt x="381" y="370" on="1"/>
        <pt x="373" y="326" on="1"/>
        <pt x="203" y="326" on="1"/>
        <pt x="203" y="231" on="1"/>
        <pt x="203" y="171" on="0"/>
        <pt x="204" y="104" on="0"/>
        <pt x="206" y="87" on="1"/>
        <pt x="209" y="61" on="0"/>
        <pt x="229" y="48" on="0"/>
        <pt x="255" y="48" on="1"/>
      </contour>
    </TTGlyph>
    <TTGlyph name="Euro" xMin="39" yMin="-11" xMax="578" yMax="665">
      <contour>
        <pt x="449" y="263" on="1"/>
        <pt x="196" y="263" on="1"/>
        <pt x="203" y="208" on="0"/>
        <pt x="241" y="125" on="0"/>
        <pt x="296" y="69" on="0"/>
        <pt x="367" y="41" on="0"/>
        <pt x="408" y="41" on="1"/>
        <pt x="424" y="41" on="0"/>
        <pt x="465" y="46" on="0"/>
        <pt x="508" y="59" on="0"/>
        <pt x="551" y="80" on="0"/>
        <pt x="570" y="97" on="1"/>
        <pt x="578" y="86" on="1"/>
        <pt x="558" y="41" on="1"/>
        <pt x="519" y="14" on="0"/>
        <pt x="436" y="-11" on="0"/>
        <pt x="394" y="-11" on="1"/>
        <pt x="340" y="-11" on="0"/>
        <pt x="246" y="28" on="0"/>
        <pt x="174" y="100" on="0"/>
        <pt x="127" y="201" on="0"/>
        <pt x="119" y="263" on="1"/>
        <pt x="39" y="263" on="1"/>
        <pt x="46" y="307" on="1"/>
        <pt x="116" y="307" on="1"/>
        <pt x="116" y="360" on="1"/>
        <pt x="39" y="360" on="1"/>
        <pt x="47" y="404" on="1"/>
        <pt x="122" y="404" on="1"/>
        <pt x="132" y="460" on="0"/>
        <pt x="178" y="556" on="0"/>
        <pt x="249" y="626" on="0"/>
        <pt x="341" y="665" on="0"/>
        <pt x="397" y="665" on="1"/>
        <pt x="412" y="665" on="0"/>
        <pt x="451" y="662" on="0"/>
        <pt x="494" y="654" on="0"/>
        <pt x="539" y="641" on="0"/>
        <pt x="560" y="631" on="1"/>
        <pt x="562" y="622" on="1"/>
        <pt x="547" y="531" on="1"/>
        <pt x="519" y="531" on="1"/>
        <pt x="516" y="535" on="1"/>
        <pt x="513" y="560" on="0"/>
        <pt x="491" y="590" on="0"/>
        <pt x="458" y="606" on="0"/>
        <pt x="417" y="612" on="0"/>
        <pt x="397" y="612" on="1"/>
        <pt x="350" y="612" on="0"/>
        <pt x="292" y="590" on="0"/>
        <pt x="269" y="567" on="1"/>
        <pt x="240" y="538" on="0"/>
        <pt x="205" y="455" on="0"/>
        <pt x="197" y="404" on="1"/>
        <pt x="474" y="404" on="1"/>
        <pt x="466" y="360" on="1"/>
        <pt x="192" y="360" on="1"/>
        <pt x="192" y="307" on="1"/>
        <pt x="457" y="307" on="1"/>
      </contour>
    </TTGlyph>
    <TTGlyph name="F" xMin="43" yMin="-6" xMax="504" yMax="660">
      <contour>
        <pt x="129" y="567" on="1"/>
        <pt x="127" y="595" on="0"/>
        <pt x="112" y="617" on="0"/>
        <pt x="104" y="624" on="1"/>
        <pt x="95" y="631" on="0"/>
        <pt x="67" y="634" on="0"/>
        <pt x="51" y="634" on="1"/>
        <pt x="46" y="638" on="1"/>
        <pt x="43" y="656" on="1"/>
        <pt x="45" y="660" on="1"/>
        <pt x="52" y="660" on="0"/>
        <pt x="84" y="658" on="0"/>
        <pt x="118" y="656" on="0"/>
        <pt x="150" y="654" on="0"/>
        <pt x="157" y="654" on="1"/>
        <pt x="331" y="654" on="1"/>
        <pt x="344" y="654" on="0"/>
        <pt x="397" y="655" on="0"/>
        <pt x="451" y="657" on="0"/>
        <pt x="494" y="658" on="0"/>
        <pt x="499" y="658" on="1"/>
        <pt x="504" y="648" on="1"/>
        <pt x="500" y="539" on="1"/>
        <pt x="475" y="539" on="1"/>
        <pt x="471" y="543" on="1"/>
        <pt x="469" y="566" on="0"/>
        <pt x="462" y="592" on="0"/>
        <pt x="429" y="604" on="0"/>
        <pt x="363" y="606" on="0"/>
        <pt x="303" y="606" on="1"/>
        <pt x="207" y="606" on="1"/>
        <pt x="205" y="567" on="1"/>
        <pt x="204" y="553" on="0"/>
        <pt x="203" y="529" on="0"/>
        <pt x="202" y="497" on="0"/>
        <pt x="202" y="451" on="0"/>
        <pt x="202" y="366" on="1"/>
        <pt x="232" y="367" on="0"/>
        <pt x="292" y="367" on="0"/>
        <pt x="341" y="369" on="0"/>
        <pt x="375" y="376" on="0"/>
        <pt x="381" y="383" on="1"/>
        <pt x="389" y="391" on="0"/>
        <pt x="401" y="407" on="0"/>
        <pt x="401" y="422" on="1"/>
        <pt x="406" y="427" on="1"/>
        <pt x="423" y="429" on="1"/>
        <pt x="427" y="427" on="1"/>
        <pt x="425" y="404" on="0"/>
        <pt x="422" y="370" on="0"/>
        <pt x="422" y="348" on="1"/>
        <pt x="422" y="324" on="0"/>
        <pt x="425" y="283" on="0"/>
        <pt x="427" y="259" on="1"/>
        <pt x="423" y="257" on="1"/>
        <pt x="405" y="259" on="1"/>
        <pt x="401" y="262" on="1"/>
        <pt x="401" y="278" on="0"/>
        <pt x="389" y="305" on="0"/>
        <pt x="381" y="314" on="1"/>
        <pt x="375" y="320" on="0"/>
        <pt x="341" y="326" on="0"/>
        <pt x="293" y="328" on="0"/>
        <pt x="233" y="328" on="0"/>
        <pt x="202" y="328" on="1"/>
        <pt x="202" y="231" on="1"/>
        <pt x="202" y="195" on="0"/>
        <pt x="202" y="150" on="0"/>
        <pt x="203" y="120" on="0"/>
        <pt x="204" y="99" on="0"/>
        <pt x="205" y="87" on="1"/>
        <pt x="207" y="59" on="0"/>
        <pt x="224" y="37" on="0"/>
        <pt x="232" y="30" on="1"/>
        <pt x="241" y="23" on="0"/>
        <pt x="276" y="20" on="0"/>
        <pt x="292" y="20" on="1"/>
        <pt x="297" y="16" on="1"/>
        <pt x="300" y="-2" on="1"/>
        <pt x="298" y="-6" on="1"/>
        <pt x="291" y="-6" on="0"/>
        <pt x="256" y="-4" on="0"/>
        <pt x="218" y="-2" on="0"/>
        <pt x="183" y="0" on="0"/>
        <pt x="176" y="0" on="1"/>
        <pt x="157" y="0" on="1"/>
        <pt x="150" y="0" on="0"/>
        <pt x="118" y="-2" on="0"/>
        <pt x="84" y="-4" on="0"/>
        <pt x="52" y="-6" on="0"/>
        <pt x="45" y="-6" on="1"/>
        <pt x="43" y="-2" on="1"/>
        <pt x="46" y="16" on="1"/>
        <pt x="51" y="20" on="1"/>
        <pt x="67" y="20" on="0"/>
        <pt x="95" y="23" on="0"/>
        <pt x="104" y="30" on="1"/>
        <pt x="112" y="37" on="0"/>
        <pt x="127" y="59" on="0"/>
        <pt x="129" y="87" on="1"/>
        <pt x="129" y="94" on="0"/>
        <pt x="130" y="113" on="0"/>
        <pt x="131" y="141" on="0"/>
        <pt x="131" y="181" on="0"/>
        <pt x="131" y="211" on="1"/>
        <pt x="131" y="414" on="1"/>
        <pt x="131" y="449" on="0"/>
        <pt x="131" y="497" on="0"/>
        <pt x="130" y="531" on="0"/>
        <pt x="129" y="555" on="0"/>
      </contour>
    </TTGlyph>
    <TTGlyph name="G" xMin="54" yMin="-11" xMax="672" yMax="665">
      <contour>
        <pt x="607" y="25" on="1"/>
        <pt x="559" y="10" on="0"/>
        <pt x="454" y="-11" on="0"/>
        <pt x="397" y="-11" on="1"/>
        <pt x="310" y="-11" on="0"/>
        <pt x="181" y="42" on="0"/>
        <pt x="96" y="134" on="0"/>
        <pt x="54" y="256" on="0"/>
        <pt x="54" y="324" on="1"/>
        <pt x="54" y="396" on="0"/>
        <pt x="99" y="520" on="0"/>
        <pt x="187" y="612" on="0"/>
        <pt x="317" y="665" on="0"/>
        <pt x="403" y="665" on="1"/>
        <pt x="421" y="665" on="0"/>
        <pt x="472" y="662" on="0"/>
        <pt x="528" y="654" on="0"/>
        <pt x="586" y="641" on="0"/>
        <pt x="612" y="631" on="1"/>
        <pt x="614" y="622" on="1"/>
        <pt x="597" y="525" on="1"/>
        <pt x="569" y="525" on="1"/>
        <pt x="565" y="528" on="1"/>
        <pt x="558" y="568" on="0"/>
        <pt x="479" y="612" on="0"/>
        <pt x="398" y="612" on="1"/>
        <pt x="285" y="612" on="0"/>
        <pt x="226" y="565" on="1"/>
        <pt x="202" y="546" on="0"/>
        <pt x="168" y="494" on="0"/>
        <pt x="145" y="432" on="0"/>
        <pt x="134" y="363" on="0"/>
        <pt x="134" y="329" on="1"/>
        <pt x="134" y="262" on="0"/>
        <pt x="173" y="156" on="0"/>
        <pt x="241" y="83" on="0"/>
        <pt x="335" y="44" on="0"/>
        <pt x="390" y="44" on="1"/>
        <pt x="407" y="44" on="0"/>
        <pt x="450" y="47" on="0"/>
        <pt x="491" y="53" on="0"/>
        <pt x="523" y="61" on="0"/>
        <pt x="529" y="65" on="1"/>
        <pt x="537" y="70" on="0"/>
        <pt x="537" y="86" on="1"/>
        <pt x="537" y="93" on="0"/>
        <pt x="537" y="117" on="0"/>
        <pt x="537" y="144" on="0"/>
        <pt x="536" y="171" on="0"/>
        <pt x="535" y="181" on="1"/>
        <pt x="533" y="207" on="0"/>
        <pt x="516" y="234" on="0"/>
        <pt x="510" y="238" on="1"/>
        <pt x="501" y="245" on="0"/>
        <pt x="465" y="248" on="0"/>
        <pt x="449" y="248" on="1"/>
        <pt x="444" y="252" on="1"/>
        <pt x="441" y="274" on="1"/>
        <pt x="443" y="278" on="1"/>
        <pt x="450" y="278" on="0"/>
        <pt x="481" y="276" on="0"/>
        <pt x="514" y="274" on="0"/>
        <pt x="545" y="272" on="0"/>
        <pt x="552" y="272" on="1"/>
        <pt x="582" y="272" on="1"/>
        <pt x="589" y="272" on="0"/>
        <pt x="613" y="274" on="0"/>
        <pt x="639" y="276" on="0"/>
        <pt x="663" y="278" on="0"/>
        <pt x="670" y="278" on="1"/>
        <pt x="672" y="274" on="1"/>
        <pt x="670" y="250" on="1"/>
        <pt x="665" y="246" on="1"/>
        <pt x="636" y="246" on="0"/>
        <pt x="613" y="213" on="0"/>
        <pt x="611" y="181" on="1"/>
        <pt x="609" y="156" on="0"/>
        <pt x="608" y="99" on="0"/>
        <pt x="608" y="85" on="1"/>
        <pt x="608" y="70" on="0"/>
        <pt x="609" y="35" on="0"/>
        <pt x="611" y="30" on="1"/>
      </contour>
    </TTGlyph>
    <TTGlyph name="H" xMin="43" yMin="-6" xMax="717" yMax="660">
      <contour>
        <pt x="715" y="-6" on="1"/>
        <pt x="708" y="-6" on="0"/>
        <pt x="676" y="-4" on="0"/>
        <pt x="642" y="-2" on="0"/>
        <pt x="610" y="0" on="0"/>
        <pt x="603" y="0" on="1"/>
        <pt x="584" y="0" on="1"/>
        <pt x="577" y="0" on="0"/>
        <pt x="545" y="-2" on="0"/>
        <pt x="511" y="-4" on="0"/>
        <pt x="479" y="-6" on="0"/>
        <pt x="472" y="-6" on="1"/>
        <pt x="470" y="-2" on="1"/>
        <pt x="473" y="16" on="1"/>
        <pt x="477" y="20" on="1"/>
        <pt x="493" y="20" on="0"/>
        <pt x="522" y="23" on="0"/>
        <pt x="531" y="30" on="1"/>
        <pt x="539" y="37" on="0"/>
        <pt x="552" y="59" on="0"/>
        <pt x="555" y="87" on="1"/>
        <pt x="556" y="94" on="0"/>
        <pt x="557" y="113" on="0"/>
        <pt x="558" y="141" on="0"/>
        <pt x="558" y="181" on="0"/>
        <pt x="558" y="211" on="1"/>
        <pt x="558" y="326" on="1"/>
        <pt x="202" y="326" on="1"/>
        <pt x="202" y="231" on="1"/>
        <pt x="202" y="195" on="0"/>
        <pt x="202" y="150" on="0"/>
        <pt x="203" y="120" on="0"/>
        <pt x="204" y="99" on="0"/>
        <pt x="205" y="87" on="1"/>
        <pt x="207" y="59" on="0"/>
        <pt x="221" y="37" on="0"/>
        <pt x="229" y="30" on="1"/>
        <pt x="238" y="23" on="0"/>
        <pt x="267" y="20" on="0"/>
        <pt x="283" y="20" on="1"/>
        <pt x="287" y="16" on="1"/>
        <pt x="290" y="-2" on="1"/>
        <pt x="288" y="-6" on="1"/>
        <pt x="281" y="-6" on="0"/>
        <pt x="249" y="-4" on="0"/>
        <pt x="215" y="-2" on="0"/>
        <pt x="183" y="0" on="0"/>
        <pt x="176" y="0" on="1"/>
        <pt x="157" y="0" on="1"/>
        <pt x="150" y="0" on="0"/>
        <pt x="118" y="-2" on="0"/>
        <pt x="84" y="-4" on="0"/>
        <pt x="52" y="-6" on="0"/>
        <pt x="45" y="-6" on="1"/>
        <pt x="43" y="-2" on="1"/>
        <pt x="46" y="16" on="1"/>
        <pt x="51" y="20" on="1"/>
        <pt x="67" y="20" on="0"/>
        <pt x="95" y="23" on="0"/>
        <pt x="104" y="30" on="1"/>
        <pt x="112" y="37" on="0"/>
        <pt x="127" y="59" on="0"/>
        <pt x="129" y="87" on="1"/>
        <pt x="129" y="94" on="0"/>
        <pt x="130" y="113" on="0"/>
        <pt x="131" y="141" on="0"/>
        <pt x="131" y="181" on="0"/>
        <pt x="131" y="211" on="1"/>
        <pt x="131" y="414" on="1"/>
        <pt x="131" y="449" on="0"/>
        <pt x="131" y="497" on="0"/>
        <pt x="130" y="531" on="0"/>
        <pt x="129" y="555" on="0"/>
        <pt x="128" y="567" on="1"/>
        <pt x="126" y="594" on="0"/>
        <pt x="112" y="617" on="0"/>
        <pt x="104" y="624" on="1"/>
        <pt x="95" y="631" on="0"/>
        <pt x="67" y="634" on="0"/>
        <pt x="51" y="634" on="1"/>
        <pt x="46" y="638" on="1"/>
        <pt x="43" y="656" on="1"/>
        <pt x="45" y="660" on="1"/>
        <pt x="52" y="660" on="0"/>
        <pt x="84" y="658" on="0"/>
        <pt x="118" y="656" on="0"/>
        <pt x="150" y="654" on="0"/>
        <pt x="157" y="654" on="1"/>
        <pt x="176" y="654" on="1"/>
        <pt x="183" y="654" on="0"/>
        <pt x="215" y="656" on="0"/>
        <pt x="249" y="658" on="0"/>
        <pt x="281" y="660" on="0"/>
        <pt x="288" y="660" on="1"/>
        <pt x="290" y="656" on="1"/>
        <pt x="287" y="638" on="1"/>
        <pt x="283" y="634" on="1"/>
        <pt x="267" y="634" on="0"/>
        <pt x="238" y="631" on="0"/>
        <pt x="229" y="624" on="1"/>
        <pt x="221" y="617" on="0"/>
        <pt x="207" y="595" on="0"/>
        <pt x="205" y="567" on="1"/>
        <pt x="204" y="553" on="0"/>
        <pt x="203" y="529" on="0"/>
        <pt x="202" y="497" on="0"/>
        <pt x="202" y="451" on="0"/>
        <pt x="202" y="415" on="1"/>
        <pt x="202" y="370" on="1"/>
        <pt x="558" y="370" on="1"/>
        <pt x="558" y="414" on="1"/>
        <pt x="558" y="449" on="0"/>
        <pt x="558" y="497" on="0"/>
        <pt x="557" y="531" on="0"/>
        <pt x="556" y="555" on="0"/>
        <pt x="555" y="567" on="1"/>
        <pt x="553" y="595" on="0"/>
        <pt x="539" y="617" on="0"/>
        <pt x="531" y="624" on="1"/>
        <pt x="522" y="631" on="0"/>
        <pt x="493" y="634" on="0"/>
        <pt x="477" y="634" on="1"/>
        <pt x="473" y="638" on="1"/>
        <pt x="470" y="656" on="1"/>
        <pt x="472" y="660" on="1"/>
        <pt x="479" y="660" on="0"/>
        <pt x="511" y="658" on="0"/>
        <pt x="545" y="656" on="0"/>
        <pt x="577" y="654" on="0"/>
        <pt x="584" y="654" on="1"/>
        <pt x="603" y="654" on="1"/>
        <pt x="610" y="654" on="0"/>
        <pt x="642" y="656" on="0"/>
        <pt x="676" y="658" on="0"/>
        <pt x="708" y="660" on="0"/>
        <pt x="715" y="660" on="1"/>
        <pt x="717" y="656" on="1"/>
        <pt x="714" y="638" on="1"/>
        <pt x="709" y="634" on="1"/>
        <pt x="693" y="634" on="0"/>
        <pt x="665" y="631" on="0"/>
        <pt x="656" y="624" on="1"/>
        <pt x="648" y="617" on="0"/>
        <pt x="633" y="595" on="0"/>
        <pt x="631" y="567" on="1"/>
        <pt x="630" y="553" on="0"/>
        <pt x="629" y="529" on="0"/>
        <pt x="629" y="497" on="0"/>
        <pt x="629" y="451" on="0"/>
        <pt x="629" y="415" on="1"/>
        <pt x="629" y="231" on="1"/>
        <pt x="629" y="195" on="0"/>
        <pt x="629" y="150" on="0"/>
        <pt x="629" y="120" on="0"/>
        <pt x="630" y="99" on="0"/>
        <pt x="631" y="87" on="1"/>
        <pt x="633" y="59" on="0"/>
        <pt x="648" y="37" on="0"/>
        <pt x="656" y="30" on="1"/>
        <pt x="665" y="23" on="0"/>
        <pt x="693" y="20" on="0"/>
        <pt x="709" y="20" on="1"/>
        <pt x="714" y="16" on="1"/>
        <pt x="717" y="-2" on="1"/>
      </contour>
    </TTGlyph>
    <TTGlyph name="I" xMin="43" yMin="-6" xMax="290" yMax="660">
      <contour>
        <pt x="290" y="656" on="1"/>
        <pt x="287" y="638" on="1"/>
        <pt x="283" y="634" on="1"/>
        <pt x="267" y="634" on="0"/>
        <pt x="238" y="631" on="0"/>
        <pt x="229" y="624" on="1"/>
        <pt x="221" y="617" on="0"/>
        <pt x="207" y="595" on="0"/>
        <pt x="205" y="567" on="1"/>
        <pt x="204" y="553" on="0"/>
        <pt x="203" y="529" on="0"/>
        <pt x="202" y="497" on="0"/>
        <pt x="202" y="451" on="0"/>
        <pt x="202" y="415" on="1"/>
        <pt x="202" y="231" on="1"/>
        <pt x="202" y="195" on="0"/>
        <pt x="202" y="150" on="0"/>
        <pt x="203" y="120" on="0"/>
        <pt x="204" y="99" on="0"/>
        <pt x="205" y="87" on="1"/>
        <pt x="207" y="59" on="0"/>
        <pt x="221" y="37" on="0"/>
        <pt x="229" y="30" on="1"/>
        <pt x="238" y="23" on="0"/>
        <pt x="267" y="20" on="0"/>
        <pt x="283" y="20" on="1"/>
        <pt x="287" y="16" on="1"/>
        <pt x="290" y="-2" on="1"/>
        <pt x="288" y="-6" on="1"/>
        <pt x="281" y="-6" on="0"/>
        <pt x="249" y="-4" on="0"/>
        <pt x="215" y="-2" on="0"/>
        <pt x="183" y="0" on="0"/>
        <pt x="176" y="0" on="1"/>
        <pt x="157" y="0" on="1"/>
        <pt x="150" y="0" on="0"/>
        <pt x="118" y="-2" on="0"/>
        <pt x="84" y="-4" on="0"/>
        <pt x="52" y="-6" on="0"/>
        <pt x="45" y="-6" on="1"/>
        <pt x="43" y="-2" on="1"/>
        <pt x="46" y="16" on="1"/>
        <pt x="51" y="20" on="1"/>
        <pt x="67" y="20" on="0"/>
        <pt x="95" y="23" on="0"/>
        <pt x="104" y="30" on="1"/>
        <pt x="112" y="37" on="0"/>
        <pt x="127" y="59" on="0"/>
        <pt x="129" y="87" on="1"/>
        <pt x="129" y="94" on="0"/>
        <pt x="130" y="113" on="0"/>
        <pt x="131" y="141" on="0"/>
        <pt x="131" y="181" on="0"/>
        <pt x="131" y="211" on="1"/>
        <pt x="131" y="414" on="1"/>
        <pt x="131" y="449" on="0"/>
        <pt x="131" y="497" on="0"/>
        <pt x="130" y="531" on="0"/>
        <pt x="129" y="555" on="0"/>
        <pt x="128" y="567" on="1"/>
        <pt x="126" y="593" on="0"/>
        <pt x="112" y="617" on="0"/>
        <pt x="104" y="624" on="1"/>
        <pt x="95" y="631" on="0"/>
        <pt x="67" y="634" on="0"/>
        <pt x="51" y="634" on="1"/>
        <pt x="46" y="638" on="1"/>
        <pt x="43" y="656" on="1"/>
        <pt x="45" y="660" on="1"/>
        <pt x="52" y="660" on="0"/>
        <pt x="84" y="658" on="0"/>
        <pt x="118" y="656" on="0"/>
        <pt x="150" y="654" on="0"/>
        <pt x="157" y="654" on="1"/>
        <pt x="176" y="654" on="1"/>
        <pt x="183" y="654" on="0"/>
        <pt x="215" y="656" on="0"/>
        <pt x="249" y="658" on="0"/>
        <pt x="281" y="660" on="0"/>
        <pt x="288" y="660" on="1"/>
      </contour>
    </TTGlyph>
    <TTGlyph name="IJ" xMin="43" yMin="-156" xMax="618" yMax="660">
      <contour>
        <pt x="290" y="656" on="1"/>
        <pt x="287" y="638" on="1"/>
        <pt x="283" y="634" on="1"/>
        <pt x="267" y="634" on="0"/>
        <pt x="238" y="631" on="0"/>
        <pt x="229" y="624" on="1"/>
        <pt x="221" y="617" on="0"/>
        <pt x="207" y="595" on="0"/>
        <pt x="205" y="567" on="1"/>
        <pt x="204" y="553" on="0"/>
        <pt x="203" y="529" on="0"/>
        <pt x="202" y="497" on="0"/>
        <pt x="202" y="451" on="0"/>
        <pt x="202" y="415" on="1"/>
        <pt x="202" y="231" on="1"/>
        <pt x="202" y="195" on="0"/>
        <pt x="202" y="150" on="0"/>
        <pt x="203" y="120" on="0"/>
        <pt x="204" y="99" on="0"/>
        <pt x="205" y="87" on="1"/>
        <pt x="207" y="59" on="0"/>
        <pt x="221" y="37" on="0"/>
        <pt x="229" y="30" on="1"/>
        <pt x="238" y="23" on="0"/>
        <pt x="267" y="20" on="0"/>
        <pt x="283" y="20" on="1"/>
        <pt x="287" y="16" on="1"/>
        <pt x="290" y="-2" on="1"/>
        <pt x="288" y="-6" on="1"/>
        <pt x="281" y="-6" on="0"/>
        <pt x="249" y="-4" on="0"/>
        <pt x="215" y="-2" on="0"/>
        <pt x="183" y="0" on="0"/>
        <pt x="176" y="0" on="1"/>
        <pt x="157" y="0" on="1"/>
        <pt x="150" y="0" on="0"/>
        <pt x="118" y="-2" on="0"/>
        <pt x="84" y="-4" on="0"/>
        <pt x="52" y="-6" on="0"/>
        <pt x="45" y="-6" on="1"/>
        <pt x="43" y="-2" on="1"/>
        <pt x="46" y="16" on="1"/>
        <pt x="51" y="20" on="1"/>
        <pt x="67" y="20" on="0"/>
        <pt x="95" y="23" on="0"/>
        <pt x="104" y="30" on="1"/>
        <pt x="112" y="37" on="0"/>
        <pt x="127" y="59" on="0"/>
        <pt x="129" y="87" on="1"/>
        <pt x="129" y="94" on="0"/>
        <pt x="130" y="113" on="0"/>
        <pt x="131" y="141" on="0"/>
        <pt x="131" y="181" on="0"/>
        <pt x="131" y="211" on="1"/>
        <pt x="131" y="414" on="1"/>
        <pt x="131" y="449" on="0"/>
        <pt x="131" y="497" on="0"/>
        <pt x="130" y="531" on="0"/>
        <pt x="129" y="555" on="0"/>
        <pt x="128" y="567" on="1"/>
        <pt x="126" y="593" on="0"/>
        <pt x="112" y="617" on="0"/>
        <pt x="104" y="624" on="1"/>
        <pt x="95" y="631" on="0"/>
        <pt x="67" y="634" on="0"/>
        <pt x="51" y="634" on="1"/>
        <pt x="46" y="638" on="1"/>
        <pt x="43" y="656" on="1"/>
        <pt x="45" y="660" on="1"/>
        <pt x="52" y="660" on="0"/>
        <pt x="84" y="658" on="0"/>
        <pt x="118" y="656" on="0"/>
        <pt x="150" y="654" on="0"/>
        <pt x="157" y="654" on="1"/>
        <pt x="176" y="654" on="1"/>
        <pt x="183" y="654" on="0"/>
        <pt x="215" y="656" on="0"/>
        <pt x="249" y="658" on="0"/>
        <pt x="281" y="660" on="0"/>
        <pt x="288" y="660" on="1"/>
      </contour>
      <contour>
        <pt x="618" y="656" on="1"/>
        <pt x="615" y="638" on="1"/>
        <pt x="611" y="634" on="1"/>
        <pt x="595" y="634" on="0"/>
        <pt x="566" y="631" on="0"/>
        <pt x="557" y="624" on="1"/>
        <pt x="549" y="617" on="0"/>
        <pt x="535" y="595" on="0"/>
        <pt x="533" y="567" on="1"/>
        <pt x="532" y="553" on="0"/>
        <pt x="531" y="529" on="0"/>
        <pt x="530" y="497" on="0"/>
        <pt x="530" y="451" on="0"/>
        <pt x="530" y="415" on="1"/>
        <pt x="530" y="231" on="1"/>
        <pt x="530" y="195" on="0"/>
        <pt x="530" y="146" on="0"/>
        <pt x="529" y="112" on="0"/>
        <pt x="529" y="87" on="0"/>
        <pt x="529" y="76" on="1"/>
        <pt x="529" y="36" on="0"/>
        <pt x="511" y="-42" on="0"/>
        <pt x="478" y="-105" on="0"/>
        <pt x="429" y="-147" on="0"/>
        <pt x="398" y="-153" on="1"/>
        <pt x="390" y="-155" on="0"/>
        <pt x="370" y="-156" on="0"/>
        <pt x="362" y="-156" on="1"/>
        <pt x="354" y="-153" on="1"/>
        <pt x="352" y="-131" on="1"/>
        <pt x="356" y="-126" on="1"/>
        <pt x="369" y="-126" on="0"/>
        <pt x="389" y="-125" on="0"/>
        <pt x="399" y="-121" on="1"/>
        <pt x="411" y="-114" on="0"/>
        <pt x="422" y="-103" on="1"/>
        <pt x="450" y="-75" on="0"/>
        <pt x="459" y="77" on="0"/>
        <pt x="459" y="211" on="1"/>
        <pt x="459" y="414" on="1"/>
        <pt x="459" y="449" on="0"/>
        <pt x="459" y="497" on="0"/>
        <pt x="458" y="531" on="0"/>
        <pt x="457" y="555" on="0"/>
        <pt x="456" y="567" on="1"/>
        <pt x="454" y="594" on="0"/>
        <pt x="440" y="617" on="0"/>
        <pt x="432" y="624" on="1"/>
        <pt x="423" y="631" on="0"/>
        <pt x="395" y="634" on="0"/>
        <pt x="379" y="634" on="1"/>
        <pt x="374" y="638" on="1"/>
        <pt x="371" y="656" on="1"/>
        <pt x="373" y="660" on="1"/>
        <pt x="380" y="660" on="0"/>
        <pt x="412" y="658" on="0"/>
        <pt x="446" y="656" on="0"/>
        <pt x="478" y="654" on="0"/>
        <pt x="485" y="654" on="1"/>
        <pt x="504" y="654" on="1"/>
        <pt x="511" y="654" on="0"/>
        <pt x="543" y="656" on="0"/>
        <pt x="577" y="658" on="0"/>
        <pt x="609" y="660" on="0"/>
        <pt x="616" y="660" on="1"/>
      </contour>
    </TTGlyph>
    <TTGlyph name="Iacute" xMin="43" yMin="-6" xMax="290" yMax="848">
      <contour>
        <pt x="63" y="721" on="1"/>
        <pt x="57" y="741" on="1"/>
        <pt x="60" y="748" on="1"/>
        <pt x="241" y="848" on="1"/>
        <pt x="258" y="847" on="0"/>
        <pt x="276" y="828" on="0"/>
        <pt x="276" y="814" on="1"/>
        <pt x="276" y="804" on="0"/>
        <pt x="272" y="795" on="1"/>
        <pt x="71" y="718" on="1"/>
      </contour>
      <contour>
        <pt x="290" y="656" on="1"/>
        <pt x="287" y="638" on="1"/>
        <pt x="283" y="634" on="1"/>
        <pt x="267" y="634" on="0"/>
        <pt x="238" y="631" on="0"/>
        <pt x="229" y="624" on="1"/>
        <pt x="221" y="617" on="0"/>
        <pt x="207" y="595" on="0"/>
        <pt x="205" y="567" on="1"/>
        <pt x="204" y="553" on="0"/>
        <pt x="203" y="529" on="0"/>
        <pt x="202" y="497" on="0"/>
        <pt x="202" y="451" on="0"/>
        <pt x="202" y="415" on="1"/>
        <pt x="202" y="231" on="1"/>
        <pt x="202" y="195" on="0"/>
        <pt x="202" y="150" on="0"/>
        <pt x="203" y="120" on="0"/>
        <pt x="204" y="99" on="0"/>
        <pt x="205" y="87" on="1"/>
        <pt x="207" y="59" on="0"/>
        <pt x="221" y="37" on="0"/>
        <pt x="229" y="30" on="1"/>
        <pt x="238" y="23" on="0"/>
        <pt x="267" y="20" on="0"/>
        <pt x="283" y="20" on="1"/>
        <pt x="287" y="16" on="1"/>
        <pt x="290" y="-2" on="1"/>
        <pt x="288" y="-6" on="1"/>
        <pt x="281" y="-6" on="0"/>
        <pt x="249" y="-4" on="0"/>
        <pt x="215" y="-2" on="0"/>
        <pt x="183" y="0" on="0"/>
        <pt x="176" y="0" on="1"/>
        <pt x="157" y="0" on="1"/>
        <pt x="150" y="0" on="0"/>
        <pt x="118" y="-2" on="0"/>
        <pt x="84" y="-4" on="0"/>
        <pt x="52" y="-6" on="0"/>
        <pt x="45" y="-6" on="1"/>
        <pt x="43" y="-2" on="1"/>
        <pt x="46" y="16" on="1"/>
        <pt x="51" y="20" on="1"/>
        <pt x="67" y="20" on="0"/>
        <pt x="95" y="23" on="0"/>
        <pt x="104" y="30" on="1"/>
        <pt x="112" y="37" on="0"/>
        <pt x="127" y="59" on="0"/>
        <pt x="129" y="87" on="1"/>
        <pt x="129" y="94" on="0"/>
        <pt x="130" y="113" on="0"/>
        <pt x="131" y="141" on="0"/>
        <pt x="131" y="181" on="0"/>
        <pt x="131" y="211" on="1"/>
        <pt x="131" y="414" on="1"/>
        <pt x="131" y="449" on="0"/>
        <pt x="131" y="497" on="0"/>
        <pt x="130" y="531" on="0"/>
        <pt x="129" y="555" on="0"/>
        <pt x="128" y="567" on="1"/>
        <pt x="126" y="593" on="0"/>
        <pt x="112" y="617" on="0"/>
        <pt x="104" y="624" on="1"/>
        <pt x="95" y="631" on="0"/>
        <pt x="67" y="634" on="0"/>
        <pt x="51" y="634" on="1"/>
        <pt x="46" y="638" on="1"/>
        <pt x="43" y="656" on="1"/>
        <pt x="45" y="660" on="1"/>
        <pt x="52" y="660" on="0"/>
        <pt x="84" y="658" on="0"/>
        <pt x="118" y="656" on="0"/>
        <pt x="150" y="654" on="0"/>
        <pt x="157" y="654" on="1"/>
        <pt x="176" y="654" on="1"/>
        <pt x="183" y="654" on="0"/>
        <pt x="215" y="656" on="0"/>
        <pt x="249" y="658" on="0"/>
        <pt x="281" y="660" on="0"/>
        <pt x="288" y="660" on="1"/>
      </contour>
    </TTGlyph>
    <TTGlyph name="Icircumflex" xMin="43" yMin="-6" xMax="290" yMax="842">
      <contour>
        <pt x="170" y="842" on="1"/>
        <pt x="281" y="743" on="1"/>
        <pt x="284" y="736" on="1"/>
        <pt x="278" y="716" on="1"/>
        <pt x="270" y="713" on="1"/>
        <pt x="167" y="775" on="1"/>
        <pt x="63" y="713" on="1"/>
        <pt x="55" y="716" on="1"/>
        <pt x="50" y="736" on="1"/>
        <pt x="53" y="743" on="1"/>
        <pt x="163" y="842" on="1"/>
      </contour>
      <contour>
        <pt x="290" y="656" on="1"/>
        <pt x="287" y="638" on="1"/>
        <pt x="283" y="634" on="1"/>
        <pt x="267" y="634" on="0"/>
        <pt x="238" y="631" on="0"/>
        <pt x="229" y="624" on="1"/>
        <pt x="221" y="617" on="0"/>
        <pt x="207" y="595" on="0"/>
        <pt x="205" y="567" on="1"/>
        <pt x="204" y="553" on="0"/>
        <pt x="203" y="529" on="0"/>
        <pt x="202" y="497" on="0"/>
        <pt x="202" y="451" on="0"/>
        <pt x="202" y="415" on="1"/>
        <pt x="202" y="231" on="1"/>
        <pt x="202" y="195" on="0"/>
        <pt x="202" y="150" on="0"/>
        <pt x="203" y="120" on="0"/>
        <pt x="204" y="99" on="0"/>
        <pt x="205" y="87" on="1"/>
        <pt x="207" y="59" on="0"/>
        <pt x="221" y="37" on="0"/>
        <pt x="229" y="30" on="1"/>
        <pt x="238" y="23" on="0"/>
        <pt x="267" y="20" on="0"/>
        <pt x="283" y="20" on="1"/>
        <pt x="287" y="16" on="1"/>
        <pt x="290" y="-2" on="1"/>
        <pt x="288" y="-6" on="1"/>
        <pt x="281" y="-6" on="0"/>
        <pt x="249" y="-4" on="0"/>
        <pt x="215" y="-2" on="0"/>
        <pt x="183" y="0" on="0"/>
        <pt x="176" y="0" on="1"/>
        <pt x="157" y="0" on="1"/>
        <pt x="150" y="0" on="0"/>
        <pt x="118" y="-2" on="0"/>
        <pt x="84" y="-4" on="0"/>
        <pt x="52" y="-6" on="0"/>
        <pt x="45" y="-6" on="1"/>
        <pt x="43" y="-2" on="1"/>
        <pt x="46" y="16" on="1"/>
        <pt x="51" y="20" on="1"/>
        <pt x="67" y="20" on="0"/>
        <pt x="95" y="23" on="0"/>
        <pt x="104" y="30" on="1"/>
        <pt x="112" y="37" on="0"/>
        <pt x="127" y="59" on="0"/>
        <pt x="129" y="87" on="1"/>
        <pt x="129" y="94" on="0"/>
        <pt x="130" y="113" on="0"/>
        <pt x="131" y="141" on="0"/>
        <pt x="131" y="181" on="0"/>
        <pt x="131" y="211" on="1"/>
        <pt x="131" y="414" on="1"/>
        <pt x="131" y="449" on="0"/>
        <pt x="131" y="497" on="0"/>
        <pt x="130" y="531" on="0"/>
        <pt x="129" y="555" on="0"/>
        <pt x="128" y="567" on="1"/>
        <pt x="126" y="593" on="0"/>
        <pt x="112" y="617" on="0"/>
        <pt x="104" y="624" on="1"/>
        <pt x="95" y="631" on="0"/>
        <pt x="67" y="634" on="0"/>
        <pt x="51" y="634" on="1"/>
        <pt x="46" y="638" on="1"/>
        <pt x="43" y="656" on="1"/>
        <pt x="45" y="660" on="1"/>
        <pt x="52" y="660" on="0"/>
        <pt x="84" y="658" on="0"/>
        <pt x="118" y="656" on="0"/>
        <pt x="150" y="654" on="0"/>
        <pt x="157" y="654" on="1"/>
        <pt x="176" y="654" on="1"/>
        <pt x="183" y="654" on="0"/>
        <pt x="215" y="656" on="0"/>
        <pt x="249" y="658" on="0"/>
        <pt x="281" y="660" on="0"/>
        <pt x="288" y="660" on="1"/>
      </contour>
    </TTGlyph>
    <TTGlyph name="Idieresis" xMin="43" yMin="-6" xMax="291" yMax="839">
      <contour>
        <pt x="290" y="656" on="1"/>
        <pt x="287" y="638" on="1"/>
        <pt x="283" y="634" on="1"/>
        <pt x="267" y="634" on="0"/>
        <pt x="238" y="631" on="0"/>
        <pt x="229" y="624" on="1"/>
        <pt x="221" y="617" on="0"/>
        <pt x="207" y="595" on="0"/>
        <pt x="205" y="567" on="1"/>
        <pt x="204" y="553" on="0"/>
        <pt x="203" y="529" on="0"/>
        <pt x="202" y="497" on="0"/>
        <pt x="202" y="451" on="0"/>
        <pt x="202" y="415" on="1"/>
        <pt x="202" y="231" on="1"/>
        <pt x="202" y="195" on="0"/>
        <pt x="202" y="150" on="0"/>
        <pt x="203" y="120" on="0"/>
        <pt x="204" y="99" on="0"/>
        <pt x="205" y="87" on="1"/>
        <pt x="207" y="59" on="0"/>
        <pt x="221" y="37" on="0"/>
        <pt x="229" y="30" on="1"/>
        <pt x="238" y="23" on="0"/>
        <pt x="267" y="20" on="0"/>
        <pt x="283" y="20" on="1"/>
        <pt x="287" y="16" on="1"/>
        <pt x="290" y="-2" on="1"/>
        <pt x="288" y="-6" on="1"/>
        <pt x="281" y="-6" on="0"/>
        <pt x="249" y="-4" on="0"/>
        <pt x="215" y="-2" on="0"/>
        <pt x="183" y="0" on="0"/>
        <pt x="176" y="0" on="1"/>
        <pt x="157" y="0" on="1"/>
        <pt x="150" y="0" on="0"/>
        <pt x="118" y="-2" on="0"/>
        <pt x="84" y="-4" on="0"/>
        <pt x="52" y="-6" on="0"/>
        <pt x="45" y="-6" on="1"/>
        <pt x="43" y="-2" on="1"/>
        <pt x="46" y="16" on="1"/>
        <pt x="51" y="20" on="1"/>
        <pt x="67" y="20" on="0"/>
        <pt x="95" y="23" on="0"/>
        <pt x="104" y="30" on="1"/>
        <pt x="112" y="37" on="0"/>
        <pt x="127" y="59" on="0"/>
        <pt x="129" y="87" on="1"/>
        <pt x="129" y="94" on="0"/>
        <pt x="130" y="113" on="0"/>
        <pt x="131" y="141" on="0"/>
        <pt x="131" y="181" on="0"/>
        <pt x="131" y="211" on="1"/>
        <pt x="131" y="414" on="1"/>
        <pt x="131" y="449" on="0"/>
        <pt x="131" y="497" on="0"/>
        <pt x="130" y="531" on="0"/>
        <pt x="129" y="555" on="0"/>
        <pt x="128" y="567" on="1"/>
        <pt x="126" y="593" on="0"/>
        <pt x="112" y="617" on="0"/>
        <pt x="104" y="624" on="1"/>
        <pt x="95" y="631" on="0"/>
        <pt x="67" y="634" on="0"/>
        <pt x="51" y="634" on="1"/>
        <pt x="46" y="638" on="1"/>
        <pt x="43" y="656" on="1"/>
        <pt x="45" y="660" on="1"/>
        <pt x="52" y="660" on="0"/>
        <pt x="84" y="658" on="0"/>
        <pt x="118" y="656" on="0"/>
        <pt x="150" y="654" on="0"/>
        <pt x="157" y="654" on="1"/>
        <pt x="176" y="654" on="1"/>
        <pt x="183" y="654" on="0"/>
        <pt x="215" y="656" on="0"/>
        <pt x="249" y="658" on="0"/>
        <pt x="281" y="660" on="0"/>
        <pt x="288" y="660" on="1"/>
      </contour>
      <contour>
        <pt x="51" y="794" on="1"/>
        <pt x="51" y="812" on="0"/>
        <pt x="75" y="839" on="0"/>
        <pt x="92" y="839" on="1"/>
        <pt x="109" y="839" on="0"/>
        <pt x="134" y="812" on="0"/>
        <pt x="134" y="794" on="1"/>
        <pt x="134" y="775" on="0"/>
        <pt x="109" y="750" on="0"/>
        <pt x="92" y="750" on="1"/>
        <pt x="75" y="750" on="0"/>
        <pt x="51" y="775" on="0"/>
      </contour>
      <contour>
        <pt x="208" y="794" on="1"/>
        <pt x="208" y="812" on="0"/>
        <pt x="232" y="839" on="0"/>
        <pt x="249" y="839" on="1"/>
        <pt x="266" y="839" on="0"/>
        <pt x="291" y="812" on="0"/>
        <pt x="291" y="794" on="1"/>
        <pt x="291" y="775" on="0"/>
        <pt x="266" y="750" on="0"/>
        <pt x="249" y="750" on="1"/>
        <pt x="232" y="750" on="0"/>
        <pt x="208" y="775" on="0"/>
      </contour>
    </TTGlyph>
    <TTGlyph name="Igrave" xMin="43" yMin="-6" xMax="290" yMax="848">
      <contour>
        <pt x="263" y="718" on="1"/>
        <pt x="61" y="795" on="1"/>
        <pt x="57" y="804" on="0"/>
        <pt x="57" y="814" on="1"/>
        <pt x="57" y="828" on="0"/>
        <pt x="75" y="847" on="0"/>
        <pt x="92" y="848" on="1"/>
        <pt x="273" y="748" on="1"/>
        <pt x="276" y="741" on="1"/>
        <pt x="270" y="721" on="1"/>
      </contour>
      <contour>
        <pt x="290" y="656" on="1"/>
        <pt x="287" y="638" on="1"/>
        <pt x="283" y="634" on="1"/>
        <pt x="267" y="634" on="0"/>
        <pt x="238" y="631" on="0"/>
        <pt x="229" y="624" on="1"/>
        <pt x="221" y="617" on="0"/>
        <pt x="207" y="595" on="0"/>
        <pt x="205" y="567" on="1"/>
        <pt x="204" y="553" on="0"/>
        <pt x="203" y="529" on="0"/>
        <pt x="202" y="497" on="0"/>
        <pt x="202" y="451" on="0"/>
        <pt x="202" y="415" on="1"/>
        <pt x="202" y="231" on="1"/>
        <pt x="202" y="195" on="0"/>
        <pt x="202" y="150" on="0"/>
        <pt x="203" y="120" on="0"/>
        <pt x="204" y="99" on="0"/>
        <pt x="205" y="87" on="1"/>
        <pt x="207" y="59" on="0"/>
        <pt x="221" y="37" on="0"/>
        <pt x="229" y="30" on="1"/>
        <pt x="238" y="23" on="0"/>
        <pt x="267" y="20" on="0"/>
        <pt x="283" y="20" on="1"/>
        <pt x="287" y="16" on="1"/>
        <pt x="290" y="-2" on="1"/>
        <pt x="288" y="-6" on="1"/>
        <pt x="281" y="-6" on="0"/>
        <pt x="249" y="-4" on="0"/>
        <pt x="215" y="-2" on="0"/>
        <pt x="183" y="0" on="0"/>
        <pt x="176" y="0" on="1"/>
        <pt x="157" y="0" on="1"/>
        <pt x="150" y="0" on="0"/>
        <pt x="118" y="-2" on="0"/>
        <pt x="84" y="-4" on="0"/>
        <pt x="52" y="-6" on="0"/>
        <pt x="45" y="-6" on="1"/>
        <pt x="43" y="-2" on="1"/>
        <pt x="46" y="16" on="1"/>
        <pt x="51" y="20" on="1"/>
        <pt x="67" y="20" on="0"/>
        <pt x="95" y="23" on="0"/>
        <pt x="104" y="30" on="1"/>
        <pt x="112" y="37" on="0"/>
        <pt x="127" y="59" on="0"/>
        <pt x="129" y="87" on="1"/>
        <pt x="129" y="94" on="0"/>
        <pt x="130" y="113" on="0"/>
        <pt x="131" y="141" on="0"/>
        <pt x="131" y="181" on="0"/>
        <pt x="131" y="211" on="1"/>
        <pt x="131" y="414" on="1"/>
        <pt x="131" y="449" on="0"/>
        <pt x="131" y="497" on="0"/>
        <pt x="130" y="531" on="0"/>
        <pt x="129" y="555" on="0"/>
        <pt x="128" y="567" on="1"/>
        <pt x="126" y="593" on="0"/>
        <pt x="112" y="617" on="0"/>
        <pt x="104" y="624" on="1"/>
        <pt x="95" y="631" on="0"/>
        <pt x="67" y="634" on="0"/>
        <pt x="51" y="634" on="1"/>
        <pt x="46" y="638" on="1"/>
        <pt x="43" y="656" on="1"/>
        <pt x="45" y="660" on="1"/>
        <pt x="52" y="660" on="0"/>
        <pt x="84" y="658" on="0"/>
        <pt x="118" y="656" on="0"/>
        <pt x="150" y="654" on="0"/>
        <pt x="157" y="654" on="1"/>
        <pt x="176" y="654" on="1"/>
        <pt x="183" y="654" on="0"/>
        <pt x="215" y="656" on="0"/>
        <pt x="249" y="658" on="0"/>
        <pt x="281" y="660" on="0"/>
        <pt x="288" y="660" on="1"/>
      </contour>
    </TTGlyph>
    <TTGlyph name="J" xMin="17" yMin="-156" xMax="283" yMax="660">
      <contour>
        <pt x="283" y="656" on="1"/>
        <pt x="280" y="638" on="1"/>
        <pt x="276" y="634" on="1"/>
        <pt x="260" y="634" on="0"/>
        <pt x="231" y="631" on="0"/>
        <pt x="222" y="624" on="1"/>
        <pt x="214" y="617" on="0"/>
        <pt x="200" y="595" on="0"/>
        <pt x="198" y="567" on="1"/>
        <pt x="197" y="553" on="0"/>
        <pt x="196" y="529" on="0"/>
        <pt x="195" y="497" on="0"/>
        <pt x="195" y="451" on="0"/>
        <pt x="195" y="415" on="1"/>
        <pt x="195" y="231" on="1"/>
        <pt x="195" y="195" on="0"/>
        <pt x="195" y="146" on="0"/>
        <pt x="194" y="112" on="0"/>
        <pt x="194" y="87" on="0"/>
        <pt x="194" y="76" on="1"/>
        <pt x="194" y="36" on="0"/>
        <pt x="176" y="-42" on="0"/>
        <pt x="143" y="-105" on="0"/>
        <pt x="94" y="-147" on="0"/>
        <pt x="63" y="-153" on="1"/>
        <pt x="55" y="-155" on="0"/>
        <pt x="35" y="-156" on="0"/>
        <pt x="27" y="-156" on="1"/>
        <pt x="19" y="-153" on="1"/>
        <pt x="17" y="-131" on="1"/>
        <pt x="21" y="-126" on="1"/>
        <pt x="34" y="-126" on="0"/>
        <pt x="54" y="-125" on="0"/>
        <pt x="64" y="-121" on="1"/>
        <pt x="76" y="-114" on="0"/>
        <pt x="87" y="-103" on="1"/>
        <pt x="115" y="-75" on="0"/>
        <pt x="124" y="77" on="0"/>
        <pt x="124" y="211" on="1"/>
        <pt x="124" y="414" on="1"/>
        <pt x="124" y="449" on="0"/>
        <pt x="124" y="497" on="0"/>
        <pt x="123" y="531" on="0"/>
        <pt x="122" y="555" on="0"/>
        <pt x="121" y="567" on="1"/>
        <pt x="119" y="594" on="0"/>
        <pt x="105" y="617" on="0"/>
        <pt x="97" y="624" on="1"/>
        <pt x="88" y="631" on="0"/>
        <pt x="60" y="634" on="0"/>
        <pt x="44" y="634" on="1"/>
        <pt x="39" y="638" on="1"/>
        <pt x="36" y="656" on="1"/>
        <pt x="38" y="660" on="1"/>
        <pt x="45" y="660" on="0"/>
        <pt x="77" y="658" on="0"/>
        <pt x="111" y="656" on="0"/>
        <pt x="143" y="654" on="0"/>
        <pt x="150" y="654" on="1"/>
        <pt x="169" y="654" on="1"/>
        <pt x="176" y="654" on="0"/>
        <pt x="208" y="656" on="0"/>
        <pt x="242" y="658" on="0"/>
        <pt x="274" y="660" on="0"/>
        <pt x="281" y="660" on="1"/>
      </contour>
    </TTGlyph>
    <TTGlyph name="K" xMin="43" yMin="-10" xMax="669" yMax="660">
      <contour>
        <pt x="290" y="656" on="1"/>
        <pt x="287" y="638" on="1"/>
        <pt x="283" y="634" on="1"/>
        <pt x="267" y="634" on="0"/>
        <pt x="238" y="631" on="0"/>
        <pt x="229" y="624" on="1"/>
        <pt x="221" y="617" on="0"/>
        <pt x="207" y="595" on="0"/>
        <pt x="205" y="567" on="1"/>
        <pt x="204" y="553" on="0"/>
        <pt x="203" y="529" on="0"/>
        <pt x="202" y="497" on="0"/>
        <pt x="202" y="451" on="0"/>
        <pt x="202" y="415" on="1"/>
        <pt x="202" y="347" on="1"/>
        <pt x="229" y="364" on="0"/>
        <pt x="306" y="428" on="0"/>
        <pt x="342" y="464" on="1"/>
        <pt x="385" y="507" on="0"/>
        <pt x="443" y="582" on="0"/>
        <pt x="443" y="596" on="1"/>
        <pt x="443" y="607" on="0"/>
        <pt x="433" y="620" on="0"/>
        <pt x="418" y="628" on="0"/>
        <pt x="399" y="632" on="0"/>
        <pt x="389" y="634" on="1"/>
        <pt x="384" y="638" on="1"/>
        <pt x="384" y="656" on="1"/>
        <pt x="389" y="660" on="1"/>
        <pt x="429" y="654" on="0"/>
        <pt x="477" y="654" on="1"/>
        <pt x="526" y="654" on="1"/>
        <pt x="538" y="654" on="0"/>
        <pt x="555" y="654" on="0"/>
        <pt x="572" y="656" on="0"/>
        <pt x="592" y="658" on="0"/>
        <pt x="606" y="660" on="1"/>
        <pt x="610" y="656" on="1"/>
        <pt x="610" y="638" on="1"/>
        <pt x="606" y="634" on="1"/>
        <pt x="593" y="631" on="0"/>
        <pt x="549" y="622" on="0"/>
        <pt x="534" y="612" on="1"/>
        <pt x="524" y="606" on="0"/>
        <pt x="499" y="580" on="0"/>
        <pt x="464" y="540" on="0"/>
        <pt x="416" y="486" on="0"/>
        <pt x="382" y="452" on="1"/>
        <pt x="302" y="370" on="1"/>
        <pt x="385" y="244" on="0"/>
        <pt x="486" y="125" on="1"/>
        <pt x="506" y="102" on="0"/>
        <pt x="540" y="66" on="0"/>
        <pt x="579" y="40" on="0"/>
        <pt x="627" y="24" on="0"/>
        <pt x="661" y="20" on="1"/>
        <pt x="667" y="16" on="1"/>
        <pt x="669" y="-2" on="1"/>
        <pt x="667" y="-6" on="1"/>
        <pt x="645" y="-6" on="0"/>
        <pt x="589" y="-10" on="0"/>
        <pt x="573" y="-10" on="1"/>
        <pt x="547" y="-10" on="0"/>
        <pt x="509" y="1" on="0"/>
        <pt x="474" y="27" on="0"/>
        <pt x="436" y="69" on="0"/>
        <pt x="412" y="99" on="1"/>
        <pt x="409" y="103" on="0"/>
        <pt x="369" y="158" on="0"/>
        <pt x="318" y="231" on="0"/>
        <pt x="265" y="306" on="0"/>
        <pt x="249" y="330" on="1"/>
        <pt x="245" y="330" on="1"/>
        <pt x="234" y="322" on="0"/>
        <pt x="214" y="309" on="0"/>
        <pt x="202" y="299" on="1"/>
        <pt x="202" y="231" on="1"/>
        <pt x="202" y="195" on="0"/>
        <pt x="202" y="150" on="0"/>
        <pt x="203" y="120" on="0"/>
        <pt x="204" y="99" on="0"/>
        <pt x="205" y="87" on="1"/>
        <pt x="207" y="59" on="0"/>
        <pt x="221" y="37" on="0"/>
        <pt x="229" y="30" on="1"/>
        <pt x="238" y="23" on="0"/>
        <pt x="267" y="20" on="0"/>
        <pt x="283" y="20" on="1"/>
        <pt x="287" y="16" on="1"/>
        <pt x="290" y="-2" on="1"/>
        <pt x="288" y="-6" on="1"/>
        <pt x="281" y="-6" on="0"/>
        <pt x="249" y="-4" on="0"/>
        <pt x="215" y="-2" on="0"/>
        <pt x="183" y="0" on="0"/>
        <pt x="176" y="0" on="1"/>
        <pt x="157" y="0" on="1"/>
        <pt x="150" y="0" on="0"/>
        <pt x="118" y="-2" on="0"/>
        <pt x="84" y="-4" on="0"/>
        <pt x="52" y="-6" on="0"/>
        <pt x="45" y="-6" on="1"/>
        <pt x="43" y="-2" on="1"/>
        <pt x="46" y="16" on="1"/>
        <pt x="51" y="20" on="1"/>
        <pt x="67" y="20" on="0"/>
        <pt x="95" y="23" on="0"/>
        <pt x="104" y="30" on="1"/>
        <pt x="112" y="37" on="0"/>
        <pt x="127" y="59" on="0"/>
        <pt x="129" y="87" on="1"/>
        <pt x="129" y="94" on="0"/>
        <pt x="130" y="113" on="0"/>
        <pt x="131" y="141" on="0"/>
        <pt x="131" y="181" on="0"/>
        <pt x="131" y="211" on="1"/>
        <pt x="131" y="414" on="1"/>
        <pt x="131" y="449" on="0"/>
        <pt x="131" y="497" on="0"/>
        <pt x="131" y="531" on="0"/>
        <pt x="130" y="555" on="0"/>
        <pt x="129" y="567" on="1"/>
        <pt x="127" y="594" on="0"/>
        <pt x="112" y="617" on="0"/>
        <pt x="104" y="624" on="1"/>
        <pt x="95" y="631" on="0"/>
        <pt x="67" y="634" on="0"/>
        <pt x="51" y="634" on="1"/>
        <pt x="46" y="638" on="1"/>
        <pt x="43" y="656" on="1"/>
        <pt x="45" y="660" on="1"/>
        <pt x="52" y="660" on="0"/>
        <pt x="84" y="658" on="0"/>
        <pt x="118" y="656" on="0"/>
        <pt x="150" y="654" on="0"/>
        <pt x="157" y="654" on="1"/>
        <pt x="176" y="654" on="1"/>
        <pt x="183" y="654" on="0"/>
        <pt x="215" y="656" on="0"/>
        <pt x="249" y="658" on="0"/>
        <pt x="281" y="660" on="0"/>
        <pt x="288" y="660" on="1"/>
      </contour>
    </TTGlyph>
    <TTGlyph name="L" xMin="43" yMin="-6" xMax="502" yMax="660">
      <contour>
        <pt x="128" y="567" on="1"/>
        <pt x="126" y="595" on="0"/>
        <pt x="112" y="617" on="0"/>
        <pt x="104" y="624" on="1"/>
        <pt x="95" y="631" on="0"/>
        <pt x="67" y="634" on="0"/>
        <pt x="51" y="634" on="1"/>
        <pt x="46" y="638" on="1"/>
        <pt x="43" y="656" on="1"/>
        <pt x="45" y="660" on="1"/>
        <pt x="52" y="660" on="0"/>
        <pt x="84" y="658" on="0"/>
        <pt x="118" y="656" on="0"/>
        <pt x="150" y="654" on="0"/>
        <pt x="157" y="654" on="1"/>
        <pt x="176" y="654" on="1"/>
        <pt x="183" y="654" on="0"/>
        <pt x="215" y="656" on="0"/>
        <pt x="249" y="658" on="0"/>
        <pt x="281" y="660" on="0"/>
        <pt x="288" y="660" on="1"/>
        <pt x="290" y="656" on="1"/>
        <pt x="287" y="638" on="1"/>
        <pt x="283" y="634" on="1"/>
        <pt x="267" y="634" on="0"/>
        <pt x="238" y="631" on="0"/>
        <pt x="229" y="624" on="1"/>
        <pt x="221" y="617" on="0"/>
        <pt x="206" y="594" on="0"/>
        <pt x="204" y="567" on="1"/>
        <pt x="203" y="553" on="0"/>
        <pt x="202" y="529" on="0"/>
        <pt x="202" y="497" on="0"/>
        <pt x="202" y="451" on="0"/>
        <pt x="202" y="415" on="1"/>
        <pt x="202" y="231" on="1"/>
        <pt x="202" y="196" on="0"/>
        <pt x="202" y="150" on="0"/>
        <pt x="203" y="116" on="0"/>
        <pt x="205" y="86" on="0"/>
        <pt x="206" y="67" on="1"/>
        <pt x="207" y="48" on="0"/>
        <pt x="227" y="48" on="1"/>
        <pt x="312" y="48" on="1"/>
        <pt x="372" y="48" on="0"/>
        <pt x="433" y="53" on="0"/>
        <pt x="460" y="69" on="0"/>
        <pt x="466" y="102" on="0"/>
        <pt x="473" y="129" on="1"/>
        <pt x="476" y="133" on="1"/>
        <pt x="502" y="133" on="1"/>
        <pt x="484" y="6" on="1"/>
        <pt x="476" y="-4" on="1"/>
        <pt x="471" y="-4" on="0"/>
        <pt x="444" y="-3" on="0"/>
        <pt x="409" y="-1" on="0"/>
        <pt x="372" y="0" on="0"/>
        <pt x="359" y="0" on="1"/>
        <pt x="157" y="0" on="1"/>
        <pt x="150" y="0" on="0"/>
        <pt x="118" y="-2" on="0"/>
        <pt x="84" y="-4" on="0"/>
        <pt x="52" y="-6" on="0"/>
        <pt x="45" y="-6" on="1"/>
        <pt x="43" y="-2" on="1"/>
        <pt x="46" y="16" on="1"/>
        <pt x="51" y="20" on="1"/>
        <pt x="67" y="20" on="0"/>
        <pt x="95" y="23" on="0"/>
        <pt x="104" y="30" on="1"/>
        <pt x="112" y="37" on="0"/>
        <pt x="126" y="63" on="0"/>
        <pt x="129" y="87" on="1"/>
        <pt x="130" y="94" on="0"/>
        <pt x="131" y="113" on="0"/>
        <pt x="131" y="141" on="0"/>
        <pt x="131" y="181" on="0"/>
        <pt x="131" y="211" on="1"/>
        <pt x="131" y="414" on="1"/>
        <pt x="131" y="449" on="0"/>
        <pt x="131" y="497" on="0"/>
        <pt x="130" y="531" on="0"/>
        <pt x="129" y="555" on="0"/>
      </contour>
    </TTGlyph>
    <TTGlyph name="M" xMin="25" yMin="-6" xMax="875" yMax="660">
      <contour>
        <pt x="874" y="-6" on="1"/>
        <pt x="867" y="-6" on="0"/>
        <pt x="835" y="-4" on="0"/>
        <pt x="801" y="-2" on="0"/>
        <pt x="769" y="0" on="0"/>
        <pt x="762" y="0" on="1"/>
        <pt x="743" y="0" on="1"/>
        <pt x="736" y="0" on="0"/>
        <pt x="704" y="-2" on="0"/>
        <pt x="670" y="-4" on="0"/>
        <pt x="638" y="-6" on="0"/>
        <pt x="631" y="-6" on="1"/>
        <pt x="628" y="-2" on="1"/>
        <pt x="631" y="16" on="1"/>
        <pt x="635" y="20" on="1"/>
        <pt x="651" y="20" on="0"/>
        <pt x="680" y="23" on="0"/>
        <pt x="688" y="30" on="1"/>
        <pt x="695" y="37" on="0"/>
        <pt x="708" y="59" on="0"/>
        <pt x="708" y="87" on="1"/>
        <pt x="708" y="94" on="0"/>
        <pt x="708" y="113" on="0"/>
        <pt x="707" y="141" on="0"/>
        <pt x="705" y="181" on="0"/>
        <pt x="703" y="211" on="1"/>
        <pt x="695" y="316" on="0"/>
        <pt x="686" y="441" on="0"/>
        <pt x="680" y="511" on="0"/>
        <pt x="677" y="541" on="0"/>
        <pt x="676" y="551" on="1"/>
        <pt x="669" y="533" on="0"/>
        <pt x="639" y="458" on="0"/>
        <pt x="600" y="361" on="0"/>
        <pt x="556" y="251" on="0"/>
        <pt x="513" y="143" on="0"/>
        <pt x="474" y="47" on="0"/>
        <pt x="460" y="13" on="1"/>
        <pt x="413" y="13" on="1"/>
        <pt x="213" y="549" on="1"/>
        <pt x="212" y="539" on="0"/>
        <pt x="210" y="517" on="0"/>
        <pt x="208" y="486" on="0"/>
        <pt x="205" y="445" on="0"/>
        <pt x="203" y="415" on="1"/>
        <pt x="189" y="231" on="1"/>
        <pt x="186" y="197" on="0"/>
        <pt x="184" y="153" on="0"/>
        <pt x="182" y="121" on="0"/>
        <pt x="182" y="99" on="0"/>
        <pt x="182" y="87" on="1"/>
        <pt x="182" y="59" on="0"/>
        <pt x="195" y="37" on="0"/>
        <pt x="203" y="30" on="1"/>
        <pt x="211" y="23" on="0"/>
        <pt x="232" y="20" on="0"/>
        <pt x="248" y="20" on="1"/>
        <pt x="252" y="16" on="1"/>
        <pt x="255" y="-2" on="1"/>
        <pt x="253" y="-6" on="1"/>
        <pt x="246" y="-6" on="0"/>
        <pt x="219" y="-4" on="0"/>
        <pt x="191" y="-2" on="0"/>
        <pt x="164" y="0" on="0"/>
        <pt x="157" y="0" on="1"/>
        <pt x="138" y="0" on="1"/>
        <pt x="131" y="0" on="0"/>
        <pt x="100" y="-2" on="0"/>
        <pt x="65" y="-4" on="0"/>
        <pt x="34" y="-6" on="0"/>
        <pt x="27" y="-6" on="1"/>
        <pt x="25" y="-2" on="1"/>
        <pt x="28" y="16" on="1"/>
        <pt x="34" y="20" on="1"/>
        <pt x="49" y="20" on="0"/>
        <pt x="77" y="23" on="0"/>
        <pt x="87" y="30" on="1"/>
        <pt x="95" y="37" on="0"/>
        <pt x="112" y="59" on="0"/>
        <pt x="116" y="87" on="1"/>
        <pt x="117" y="94" on="0"/>
        <pt x="119" y="113" on="0"/>
        <pt x="122" y="141" on="0"/>
        <pt x="126" y="181" on="0"/>
        <pt x="128" y="211" on="1"/>
        <pt x="142" y="414" on="1"/>
        <pt x="145" y="449" on="0"/>
        <pt x="148" y="497" on="0"/>
        <pt x="149" y="531" on="0"/>
        <pt x="150" y="555" on="0"/>
        <pt x="150" y="567" on="1"/>
        <pt x="150" y="595" on="0"/>
        <pt x="133" y="618" on="0"/>
        <pt x="125" y="624" on="1"/>
        <pt x="116" y="631" on="0"/>
        <pt x="88" y="634" on="0"/>
        <pt x="72" y="634" on="1"/>
        <pt x="67" y="638" on="1"/>
        <pt x="64" y="656" on="1"/>
        <pt x="66" y="660" on="1"/>
        <pt x="73" y="660" on="0"/>
        <pt x="105" y="658" on="0"/>
        <pt x="139" y="656" on="0"/>
        <pt x="171" y="654" on="0"/>
        <pt x="178" y="654" on="1"/>
        <pt x="213" y="654" on="1"/>
        <pt x="221" y="654" on="0"/>
        <pt x="250" y="656" on="0"/>
        <pt x="259" y="658" on="1"/>
        <pt x="264" y="655" on="1"/>
        <pt x="265" y="642" on="0"/>
        <pt x="278" y="599" on="0"/>
        <pt x="297" y="545" on="0"/>
        <pt x="319" y="484" on="0"/>
        <pt x="330" y="454" on="1"/>
        <pt x="398" y="269" on="1"/>
        <pt x="415" y="221" on="0"/>
        <pt x="443" y="154" on="0"/>
        <pt x="454" y="128" on="1"/>
        <pt x="457" y="133" on="0"/>
        <pt x="485" y="200" on="0"/>
        <pt x="526" y="299" on="0"/>
        <pt x="572" y="417" on="0"/>
        <pt x="614" y="530" on="0"/>
        <pt x="644" y="626" on="0"/>
        <pt x="648" y="654" on="1"/>
        <pt x="653" y="658" on="1"/>
        <pt x="661" y="656" on="0"/>
        <pt x="679" y="654" on="0"/>
        <pt x="687" y="654" on="1"/>
        <pt x="723" y="654" on="1"/>
        <pt x="730" y="654" on="0"/>
        <pt x="762" y="656" on="0"/>
        <pt x="796" y="658" on="0"/>
        <pt x="828" y="660" on="0"/>
        <pt x="835" y="660" on="1"/>
        <pt x="837" y="656" on="1"/>
        <pt x="834" y="638" on="1"/>
        <pt x="829" y="634" on="1"/>
        <pt x="813" y="634" on="0"/>
        <pt x="784" y="631" on="0"/>
        <pt x="776" y="624" on="1"/>
        <pt x="768" y="618" on="0"/>
        <pt x="751" y="594" on="0"/>
        <pt x="751" y="567" on="1"/>
        <pt x="751" y="553" on="0"/>
        <pt x="752" y="529" on="0"/>
        <pt x="753" y="497" on="0"/>
        <pt x="756" y="451" on="0"/>
        <pt x="759" y="415" on="1"/>
        <pt x="771" y="231" on="1"/>
        <pt x="774" y="195" on="0"/>
        <pt x="777" y="150" on="0"/>
        <pt x="780" y="120" on="0"/>
        <pt x="783" y="99" on="0"/>
        <pt x="785" y="87" on="1"/>
        <pt x="789" y="59" on="0"/>
        <pt x="805" y="37" on="0"/>
        <pt x="813" y="30" on="1"/>
        <pt x="822" y="23" on="0"/>
        <pt x="851" y="20" on="0"/>
        <pt x="867" y="20" on="1"/>
        <pt x="872" y="16" on="1"/>
        <pt x="875" y="-2" on="1"/>
      </contour>
    </TTGlyph>
    <TTGlyph name="M.salt" xMin="43" yMin="-6" xMax="816" yMax="660">
      <contour>
        <pt x="814" y="-6" on="1"/>
        <pt x="807" y="-6" on="0"/>
        <pt x="775" y="-4" on="0"/>
        <pt x="741" y="-2" on="0"/>
        <pt x="709" y="0" on="0"/>
        <pt x="702" y="0" on="1"/>
        <pt x="683" y="0" on="1"/>
        <pt x="676" y="0" on="0"/>
        <pt x="644" y="-2" on="0"/>
        <pt x="610" y="-4" on="0"/>
        <pt x="578" y="-6" on="0"/>
        <pt x="571" y="-6" on="1"/>
        <pt x="569" y="-2" on="1"/>
        <pt x="572" y="16" on="1"/>
        <pt x="576" y="20" on="1"/>
        <pt x="592" y="20" on="0"/>
        <pt x="621" y="23" on="0"/>
        <pt x="630" y="30" on="1"/>
        <pt x="638" y="37" on="0"/>
        <pt x="652" y="59" on="0"/>
        <pt x="654" y="87" on="1"/>
        <pt x="655" y="94" on="0"/>
        <pt x="656" y="113" on="0"/>
        <pt x="657" y="141" on="0"/>
        <pt x="657" y="181" on="0"/>
        <pt x="657" y="211" on="1"/>
        <pt x="657" y="414" on="1"/>
        <pt x="657" y="471" on="0"/>
        <pt x="655" y="530" on="0"/>
        <pt x="654" y="549" on="1"/>
        <pt x="648" y="534" on="0"/>
        <pt x="630" y="490" on="0"/>
        <pt x="604" y="423" on="0"/>
        <pt x="568" y="330" on="0"/>
        <pt x="543" y="268" on="1"/>
        <pt x="519" y="206" on="0"/>
        <pt x="470" y="98" on="0"/>
        <pt x="450" y="53" on="1"/>
        <pt x="441" y="41" on="1"/>
        <pt x="418" y="33" on="1"/>
        <pt x="401" y="33" on="1"/>
        <pt x="387" y="43" on="1"/>
        <pt x="379" y="56" on="1"/>
        <pt x="194" y="547" on="1"/>
        <pt x="193" y="537" on="0"/>
        <pt x="192" y="515" on="0"/>
        <pt x="192" y="485" on="0"/>
        <pt x="192" y="444" on="0"/>
        <pt x="192" y="415" on="1"/>
        <pt x="192" y="231" on="1"/>
        <pt x="192" y="195" on="0"/>
        <pt x="192" y="150" on="0"/>
        <pt x="193" y="120" on="0"/>
        <pt x="194" y="99" on="0"/>
        <pt x="195" y="87" on="1"/>
        <pt x="197" y="59" on="0"/>
        <pt x="212" y="36" on="0"/>
        <pt x="220" y="30" on="1"/>
        <pt x="228" y="23" on="0"/>
        <pt x="250" y="20" on="0"/>
        <pt x="265" y="20" on="1"/>
        <pt x="270" y="16" on="1"/>
        <pt x="273" y="-2" on="1"/>
        <pt x="271" y="-6" on="1"/>
        <pt x="264" y="-6" on="0"/>
        <pt x="238" y="-4" on="0"/>
        <pt x="209" y="-2" on="0"/>
        <pt x="183" y="0" on="0"/>
        <pt x="176" y="0" on="1"/>
        <pt x="157" y="0" on="1"/>
        <pt x="150" y="0" on="0"/>
        <pt x="118" y="-2" on="0"/>
        <pt x="84" y="-4" on="0"/>
        <pt x="52" y="-6" on="0"/>
        <pt x="45" y="-6" on="1"/>
        <pt x="43" y="-2" on="1"/>
        <pt x="46" y="16" on="1"/>
        <pt x="51" y="20" on="1"/>
        <pt x="67" y="20" on="0"/>
        <pt x="95" y="23" on="0"/>
        <pt x="104" y="30" on="1"/>
        <pt x="112" y="37" on="0"/>
        <pt x="127" y="59" on="0"/>
        <pt x="129" y="87" on="1"/>
        <pt x="129" y="94" on="0"/>
        <pt x="130" y="113" on="0"/>
        <pt x="131" y="141" on="0"/>
        <pt x="131" y="181" on="0"/>
        <pt x="131" y="211" on="1"/>
        <pt x="131" y="414" on="1"/>
        <pt x="131" y="449" on="0"/>
        <pt x="131" y="497" on="0"/>
        <pt x="131" y="531" on="0"/>
        <pt x="130" y="555" on="0"/>
        <pt x="129" y="567" on="1"/>
        <pt x="127" y="595" on="0"/>
        <pt x="111" y="618" on="0"/>
        <pt x="104" y="624" on="1"/>
        <pt x="95" y="631" on="0"/>
        <pt x="67" y="634" on="0"/>
        <pt x="51" y="634" on="1"/>
        <pt x="46" y="638" on="1"/>
        <pt x="43" y="656" on="1"/>
        <pt x="45" y="660" on="1"/>
        <pt x="52" y="660" on="0"/>
        <pt x="84" y="658" on="0"/>
        <pt x="118" y="656" on="0"/>
        <pt x="150" y="654" on="0"/>
        <pt x="157" y="654" on="1"/>
        <pt x="192" y="654" on="1"/>
        <pt x="200" y="654" on="0"/>
        <pt x="223" y="656" on="0"/>
        <pt x="232" y="658" on="1"/>
        <pt x="237" y="655" on="1"/>
        <pt x="238" y="642" on="0"/>
        <pt x="252" y="598" on="0"/>
        <pt x="272" y="543" on="0"/>
        <pt x="295" y="482" on="0"/>
        <pt x="306" y="452" on="1"/>
        <pt x="374" y="267" on="1"/>
        <pt x="383" y="243" on="0"/>
        <pt x="397" y="207" on="0"/>
        <pt x="410" y="175" on="0"/>
        <pt x="423" y="145" on="0"/>
        <pt x="431" y="128" on="1"/>
        <pt x="440" y="145" on="0"/>
        <pt x="463" y="193" on="0"/>
        <pt x="495" y="268" on="0"/>
        <pt x="537" y="375" on="0"/>
        <pt x="564" y="452" on="1"/>
        <pt x="588" y="520" on="0"/>
        <pt x="622" y="613" on="0"/>
        <pt x="627" y="654" on="1"/>
        <pt x="632" y="658" on="1"/>
        <pt x="648" y="654" on="0"/>
        <pt x="666" y="654" on="1"/>
        <pt x="702" y="654" on="1"/>
        <pt x="709" y="654" on="0"/>
        <pt x="741" y="656" on="0"/>
        <pt x="775" y="658" on="0"/>
        <pt x="807" y="660" on="0"/>
        <pt x="814" y="660" on="1"/>
        <pt x="816" y="656" on="1"/>
        <pt x="813" y="638" on="1"/>
        <pt x="808" y="634" on="1"/>
        <pt x="792" y="634" on="0"/>
        <pt x="763" y="631" on="0"/>
        <pt x="755" y="624" on="1"/>
        <pt x="747" y="617" on="0"/>
        <pt x="732" y="595" on="0"/>
        <pt x="730" y="567" on="1"/>
        <pt x="729" y="553" on="0"/>
        <pt x="728" y="529" on="0"/>
        <pt x="727" y="497" on="0"/>
        <pt x="727" y="451" on="0"/>
        <pt x="727" y="415" on="1"/>
        <pt x="727" y="231" on="1"/>
        <pt x="727" y="195" on="0"/>
        <pt x="727" y="150" on="0"/>
        <pt x="728" y="120" on="0"/>
        <pt x="729" y="99" on="0"/>
        <pt x="730" y="87" on="1"/>
        <pt x="732" y="59" on="0"/>
        <pt x="748" y="36" on="0"/>
        <pt x="755" y="30" on="1"/>
        <pt x="763" y="23" on="0"/>
        <pt x="792" y="20" on="0"/>
        <pt x="808" y="20" on="1"/>
        <pt x="813" y="16" on="1"/>
        <pt x="816" y="-2" on="1"/>
      </contour>
    </TTGlyph>
    <TTGlyph name="N" xMin="43" yMin="-9" xMax="708" yMax="660">
      <contour>
        <pt x="708" y="656" on="1"/>
        <pt x="706" y="638" on="1"/>
        <pt x="701" y="634" on="1"/>
        <pt x="685" y="634" on="0"/>
        <pt x="656" y="631" on="0"/>
        <pt x="648" y="624" on="1"/>
        <pt x="640" y="617" on="0"/>
        <pt x="627" y="595" on="0"/>
        <pt x="625" y="567" on="1"/>
        <pt x="624" y="553" on="0"/>
        <pt x="623" y="529" on="0"/>
        <pt x="622" y="497" on="0"/>
        <pt x="622" y="451" on="0"/>
        <pt x="622" y="415" on="1"/>
        <pt x="622" y="239" on="1"/>
        <pt x="622" y="183" on="0"/>
        <pt x="623" y="111" on="0"/>
        <pt x="624" y="60" on="0"/>
        <pt x="627" y="20" on="0"/>
        <pt x="629" y="-4" on="1"/>
        <pt x="621" y="-9" on="1"/>
        <pt x="559" y="-5" on="1"/>
        <pt x="549" y="7" on="1"/>
        <pt x="193" y="540" on="1"/>
        <pt x="193" y="530" on="0"/>
        <pt x="192" y="510" on="0"/>
        <pt x="192" y="481" on="0"/>
        <pt x="192" y="443" on="0"/>
        <pt x="192" y="415" on="1"/>
        <pt x="192" y="231" on="1"/>
        <pt x="192" y="219" on="0"/>
        <pt x="192" y="180" on="0"/>
        <pt x="193" y="138" on="0"/>
        <pt x="194" y="99" on="0"/>
        <pt x="195" y="87" on="1"/>
        <pt x="197" y="62" on="0"/>
        <pt x="210" y="37" on="0"/>
        <pt x="220" y="30" on="1"/>
        <pt x="228" y="24" on="0"/>
        <pt x="254" y="20" on="0"/>
        <pt x="274" y="20" on="1"/>
        <pt x="279" y="16" on="1"/>
        <pt x="282" y="-2" on="1"/>
        <pt x="280" y="-6" on="1"/>
        <pt x="273" y="-6" on="0"/>
        <pt x="244" y="-4" on="0"/>
        <pt x="212" y="-2" on="0"/>
        <pt x="183" y="0" on="0"/>
        <pt x="176" y="0" on="1"/>
        <pt x="157" y="0" on="1"/>
        <pt x="150" y="0" on="0"/>
        <pt x="118" y="-2" on="0"/>
        <pt x="84" y="-4" on="0"/>
        <pt x="52" y="-6" on="0"/>
        <pt x="45" y="-6" on="1"/>
        <pt x="43" y="-2" on="1"/>
        <pt x="46" y="16" on="1"/>
        <pt x="51" y="20" on="1"/>
        <pt x="69" y="20" on="0"/>
        <pt x="94" y="23" on="0"/>
        <pt x="104" y="30" on="1"/>
        <pt x="111" y="35" on="0"/>
        <pt x="126" y="58" on="0"/>
        <pt x="129" y="87" on="1"/>
        <pt x="130" y="94" on="0"/>
        <pt x="131" y="113" on="0"/>
        <pt x="131" y="141" on="0"/>
        <pt x="131" y="181" on="0"/>
        <pt x="131" y="211" on="1"/>
        <pt x="131" y="414" on="1"/>
        <pt x="131" y="449" on="0"/>
        <pt x="131" y="497" on="0"/>
        <pt x="131" y="531" on="0"/>
        <pt x="130" y="555" on="0"/>
        <pt x="129" y="567" on="1"/>
        <pt x="127" y="588" on="0"/>
        <pt x="113" y="617" on="0"/>
        <pt x="104" y="624" on="1"/>
        <pt x="95" y="631" on="0"/>
        <pt x="68" y="634" on="0"/>
        <pt x="51" y="634" on="1"/>
        <pt x="46" y="638" on="1"/>
        <pt x="43" y="656" on="1"/>
        <pt x="45" y="660" on="1"/>
        <pt x="52" y="660" on="0"/>
        <pt x="79" y="658" on="0"/>
        <pt x="107" y="656" on="0"/>
        <pt x="134" y="654" on="0"/>
        <pt x="141" y="654" on="1"/>
        <pt x="176" y="654" on="1"/>
        <pt x="184" y="654" on="0"/>
        <pt x="213" y="656" on="0"/>
        <pt x="222" y="658" on="1"/>
        <pt x="227" y="655" on="1"/>
        <pt x="231" y="641" on="0"/>
        <pt x="256" y="592" on="0"/>
        <pt x="291" y="532" on="0"/>
        <pt x="332" y="464" on="0"/>
        <pt x="353" y="431" on="1"/>
        <pt x="429" y="309" on="0"/>
        <pt x="542" y="155" on="0"/>
        <pt x="558" y="132" on="1"/>
        <pt x="558" y="139" on="0"/>
        <pt x="559" y="151" on="0"/>
        <pt x="559" y="167" on="0"/>
        <pt x="559" y="191" on="0"/>
        <pt x="559" y="211" on="1"/>
        <pt x="559" y="414" on="1"/>
        <pt x="559" y="449" on="0"/>
        <pt x="559" y="497" on="0"/>
        <pt x="558" y="531" on="0"/>
        <pt x="557" y="555" on="0"/>
        <pt x="556" y="567" on="1"/>
        <pt x="554" y="595" on="0"/>
        <pt x="540" y="617" on="0"/>
        <pt x="532" y="624" on="1"/>
        <pt x="523" y="631" on="0"/>
        <pt x="494" y="634" on="0"/>
        <pt x="478" y="634" on="1"/>
        <pt x="474" y="638" on="1"/>
        <pt x="471" y="656" on="1"/>
        <pt x="473" y="660" on="1"/>
        <pt x="480" y="660" on="0"/>
        <pt x="506" y="658" on="0"/>
        <pt x="533" y="656" on="0"/>
        <pt x="559" y="654" on="0"/>
        <pt x="566" y="654" on="1"/>
        <pt x="613" y="654" on="1"/>
        <pt x="620" y="654" on="0"/>
        <pt x="646" y="655" on="0"/>
        <pt x="674" y="657" on="0"/>
        <pt x="700" y="659" on="0"/>
        <pt x="707" y="660" on="1"/>
      </contour>
    </TTGlyph>
    <TTGlyph name="Nacute" xMin="43" yMin="-9" xMax="708" yMax="849">
      <contour>
        <pt x="708" y="656" on="1"/>
        <pt x="706" y="638" on="1"/>
        <pt x="701" y="634" on="1"/>
        <pt x="685" y="634" on="0"/>
        <pt x="656" y="631" on="0"/>
        <pt x="648" y="624" on="1"/>
        <pt x="640" y="617" on="0"/>
        <pt x="627" y="595" on="0"/>
        <pt x="625" y="567" on="1"/>
        <pt x="624" y="553" on="0"/>
        <pt x="623" y="529" on="0"/>
        <pt x="622" y="497" on="0"/>
        <pt x="622" y="451" on="0"/>
        <pt x="622" y="415" on="1"/>
        <pt x="622" y="239" on="1"/>
        <pt x="622" y="183" on="0"/>
        <pt x="623" y="111" on="0"/>
        <pt x="624" y="60" on="0"/>
        <pt x="627" y="20" on="0"/>
        <pt x="629" y="-4" on="1"/>
        <pt x="621" y="-9" on="1"/>
        <pt x="559" y="-5" on="1"/>
        <pt x="549" y="7" on="1"/>
        <pt x="193" y="540" on="1"/>
        <pt x="193" y="530" on="0"/>
        <pt x="192" y="510" on="0"/>
        <pt x="192" y="481" on="0"/>
        <pt x="192" y="443" on="0"/>
        <pt x="192" y="415" on="1"/>
        <pt x="192" y="231" on="1"/>
        <pt x="192" y="219" on="0"/>
        <pt x="192" y="180" on="0"/>
        <pt x="193" y="138" on="0"/>
        <pt x="194" y="99" on="0"/>
        <pt x="195" y="87" on="1"/>
        <pt x="197" y="62" on="0"/>
        <pt x="210" y="37" on="0"/>
        <pt x="220" y="30" on="1"/>
        <pt x="228" y="24" on="0"/>
        <pt x="254" y="20" on="0"/>
        <pt x="274" y="20" on="1"/>
        <pt x="279" y="16" on="1"/>
        <pt x="282" y="-2" on="1"/>
        <pt x="280" y="-6" on="1"/>
        <pt x="273" y="-6" on="0"/>
        <pt x="244" y="-4" on="0"/>
        <pt x="212" y="-2" on="0"/>
        <pt x="183" y="0" on="0"/>
        <pt x="176" y="0" on="1"/>
        <pt x="157" y="0" on="1"/>
        <pt x="150" y="0" on="0"/>
        <pt x="118" y="-2" on="0"/>
        <pt x="84" y="-4" on="0"/>
        <pt x="52" y="-6" on="0"/>
        <pt x="45" y="-6" on="1"/>
        <pt x="43" y="-2" on="1"/>
        <pt x="46" y="16" on="1"/>
        <pt x="51" y="20" on="1"/>
        <pt x="69" y="20" on="0"/>
        <pt x="94" y="23" on="0"/>
        <pt x="104" y="30" on="1"/>
        <pt x="111" y="35" on="0"/>
        <pt x="126" y="58" on="0"/>
        <pt x="129" y="87" on="1"/>
        <pt x="130" y="94" on="0"/>
        <pt x="131" y="113" on="0"/>
        <pt x="131" y="141" on="0"/>
        <pt x="131" y="181" on="0"/>
        <pt x="131" y="211" on="1"/>
        <pt x="131" y="414" on="1"/>
        <pt x="131" y="449" on="0"/>
        <pt x="131" y="497" on="0"/>
        <pt x="131" y="531" on="0"/>
        <pt x="130" y="555" on="0"/>
        <pt x="129" y="567" on="1"/>
        <pt x="127" y="588" on="0"/>
        <pt x="113" y="617" on="0"/>
        <pt x="104" y="624" on="1"/>
        <pt x="95" y="631" on="0"/>
        <pt x="68" y="634" on="0"/>
        <pt x="51" y="634" on="1"/>
        <pt x="46" y="638" on="1"/>
        <pt x="43" y="656" on="1"/>
        <pt x="45" y="660" on="1"/>
        <pt x="52" y="660" on="0"/>
        <pt x="79" y="658" on="0"/>
        <pt x="107" y="656" on="0"/>
        <pt x="134" y="654" on="0"/>
        <pt x="141" y="654" on="1"/>
        <pt x="176" y="654" on="1"/>
        <pt x="184" y="654" on="0"/>
        <pt x="213" y="656" on="0"/>
        <pt x="222" y="658" on="1"/>
        <pt x="227" y="655" on="1"/>
        <pt x="231" y="641" on="0"/>
        <pt x="256" y="592" on="0"/>
        <pt x="291" y="532" on="0"/>
        <pt x="332" y="464" on="0"/>
        <pt x="353" y="431" on="1"/>
        <pt x="429" y="309" on="0"/>
        <pt x="542" y="155" on="0"/>
        <pt x="558" y="132" on="1"/>
        <pt x="558" y="139" on="0"/>
        <pt x="559" y="151" on="0"/>
        <pt x="559" y="167" on="0"/>
        <pt x="559" y="191" on="0"/>
        <pt x="559" y="211" on="1"/>
        <pt x="559" y="414" on="1"/>
        <pt x="559" y="449" on="0"/>
        <pt x="559" y="497" on="0"/>
        <pt x="558" y="531" on="0"/>
        <pt x="557" y="555" on="0"/>
        <pt x="556" y="567" on="1"/>
        <pt x="554" y="595" on="0"/>
        <pt x="540" y="617" on="0"/>
        <pt x="532" y="624" on="1"/>
        <pt x="523" y="631" on="0"/>
        <pt x="494" y="634" on="0"/>
        <pt x="478" y="634" on="1"/>
        <pt x="474" y="638" on="1"/>
        <pt x="471" y="656" on="1"/>
        <pt x="473" y="660" on="1"/>
        <pt x="480" y="660" on="0"/>
        <pt x="506" y="658" on="0"/>
        <pt x="533" y="656" on="0"/>
        <pt x="559" y="654" on="0"/>
        <pt x="566" y="654" on="1"/>
        <pt x="613" y="654" on="1"/>
        <pt x="620" y="654" on="0"/>
        <pt x="646" y="655" on="0"/>
        <pt x="674" y="657" on="0"/>
        <pt x="700" y="659" on="0"/>
        <pt x="707" y="660" on="1"/>
      </contour>
      <contour>
        <pt x="323" y="721" on="1"/>
        <pt x="317" y="741" on="1"/>
        <pt x="320" y="748" on="1"/>
        <pt x="500" y="849" on="1"/>
        <pt x="517" y="848" on="0"/>
        <pt x="536" y="828" on="0"/>
        <pt x="536" y="814" on="1"/>
        <pt x="536" y="804" on="0"/>
        <pt x="532" y="795" on="1"/>
        <pt x="330" y="718" on="1"/>
      </contour>
    </TTGlyph>
    <TTGlyph name="Ntilde" xMin="43" yMin="-9" xMax="708" yMax="840">
      <contour>
        <pt x="522" y="832" on="1"/>
        <pt x="519" y="818" on="0"/>
        <pt x="506" y="791" on="0"/>
        <pt x="485" y="769" on="0"/>
        <pt x="455" y="755" on="0"/>
        <pt x="434" y="755" on="1"/>
        <pt x="394" y="755" on="0"/>
        <pt x="311" y="769" on="0"/>
        <pt x="279" y="769" on="1"/>
        <pt x="254" y="769" on="0"/>
        <pt x="234" y="756" on="0"/>
        <pt x="224" y="744" on="1"/>
        <pt x="211" y="752" on="1"/>
        <pt x="215" y="765" on="0"/>
        <pt x="229" y="793" on="0"/>
        <pt x="250" y="814" on="0"/>
        <pt x="281" y="828" on="0"/>
        <pt x="302" y="828" on="1"/>
        <pt x="327" y="828" on="0"/>
        <pt x="364" y="824" on="0"/>
        <pt x="396" y="818" on="0"/>
        <pt x="426" y="814" on="0"/>
        <pt x="445" y="814" on="1"/>
        <pt x="462" y="814" on="0"/>
        <pt x="496" y="822" on="0"/>
        <pt x="510" y="840" on="1"/>
      </contour>
      <contour>
        <pt x="708" y="656" on="1"/>
        <pt x="706" y="638" on="1"/>
        <pt x="701" y="634" on="1"/>
        <pt x="685" y="634" on="0"/>
        <pt x="656" y="631" on="0"/>
        <pt x="648" y="624" on="1"/>
        <pt x="640" y="617" on="0"/>
        <pt x="627" y="595" on="0"/>
        <pt x="625" y="567" on="1"/>
        <pt x="624" y="553" on="0"/>
        <pt x="623" y="529" on="0"/>
        <pt x="622" y="497" on="0"/>
        <pt x="622" y="451" on="0"/>
        <pt x="622" y="415" on="1"/>
        <pt x="622" y="239" on="1"/>
        <pt x="622" y="183" on="0"/>
        <pt x="623" y="111" on="0"/>
        <pt x="624" y="60" on="0"/>
        <pt x="627" y="20" on="0"/>
        <pt x="629" y="-4" on="1"/>
        <pt x="621" y="-9" on="1"/>
        <pt x="559" y="-5" on="1"/>
        <pt x="549" y="7" on="1"/>
        <pt x="193" y="540" on="1"/>
        <pt x="193" y="530" on="0"/>
        <pt x="192" y="510" on="0"/>
        <pt x="192" y="481" on="0"/>
        <pt x="192" y="443" on="0"/>
        <pt x="192" y="415" on="1"/>
        <pt x="192" y="231" on="1"/>
        <pt x="192" y="219" on="0"/>
        <pt x="192" y="180" on="0"/>
        <pt x="193" y="138" on="0"/>
        <pt x="194" y="99" on="0"/>
        <pt x="195" y="87" on="1"/>
        <pt x="197" y="62" on="0"/>
        <pt x="210" y="37" on="0"/>
        <pt x="220" y="30" on="1"/>
        <pt x="228" y="24" on="0"/>
        <pt x="254" y="20" on="0"/>
        <pt x="274" y="20" on="1"/>
        <pt x="279" y="16" on="1"/>
        <pt x="282" y="-2" on="1"/>
        <pt x="280" y="-6" on="1"/>
        <pt x="273" y="-6" on="0"/>
        <pt x="244" y="-4" on="0"/>
        <pt x="212" y="-2" on="0"/>
        <pt x="183" y="0" on="0"/>
        <pt x="176" y="0" on="1"/>
        <pt x="157" y="0" on="1"/>
        <pt x="150" y="0" on="0"/>
        <pt x="118" y="-2" on="0"/>
        <pt x="84" y="-4" on="0"/>
        <pt x="52" y="-6" on="0"/>
        <pt x="45" y="-6" on="1"/>
        <pt x="43" y="-2" on="1"/>
        <pt x="46" y="16" on="1"/>
        <pt x="51" y="20" on="1"/>
        <pt x="69" y="20" on="0"/>
        <pt x="94" y="23" on="0"/>
        <pt x="104" y="30" on="1"/>
        <pt x="111" y="35" on="0"/>
        <pt x="126" y="58" on="0"/>
        <pt x="129" y="87" on="1"/>
        <pt x="130" y="94" on="0"/>
        <pt x="131" y="113" on="0"/>
        <pt x="131" y="141" on="0"/>
        <pt x="131" y="181" on="0"/>
        <pt x="131" y="211" on="1"/>
        <pt x="131" y="414" on="1"/>
        <pt x="131" y="449" on="0"/>
        <pt x="131" y="497" on="0"/>
        <pt x="131" y="531" on="0"/>
        <pt x="130" y="555" on="0"/>
        <pt x="129" y="567" on="1"/>
        <pt x="127" y="588" on="0"/>
        <pt x="113" y="617" on="0"/>
        <pt x="104" y="624" on="1"/>
        <pt x="95" y="631" on="0"/>
        <pt x="68" y="634" on="0"/>
        <pt x="51" y="634" on="1"/>
        <pt x="46" y="638" on="1"/>
        <pt x="43" y="656" on="1"/>
        <pt x="45" y="660" on="1"/>
        <pt x="52" y="660" on="0"/>
        <pt x="79" y="658" on="0"/>
        <pt x="107" y="656" on="0"/>
        <pt x="134" y="654" on="0"/>
        <pt x="141" y="654" on="1"/>
        <pt x="176" y="654" on="1"/>
        <pt x="184" y="654" on="0"/>
        <pt x="213" y="656" on="0"/>
        <pt x="222" y="658" on="1"/>
        <pt x="227" y="655" on="1"/>
        <pt x="231" y="641" on="0"/>
        <pt x="256" y="592" on="0"/>
        <pt x="291" y="532" on="0"/>
        <pt x="332" y="464" on="0"/>
        <pt x="353" y="431" on="1"/>
        <pt x="429" y="309" on="0"/>
        <pt x="542" y="155" on="0"/>
        <pt x="558" y="132" on="1"/>
        <pt x="558" y="139" on="0"/>
        <pt x="559" y="151" on="0"/>
        <pt x="559" y="167" on="0"/>
        <pt x="559" y="191" on="0"/>
        <pt x="559" y="211" on="1"/>
        <pt x="559" y="414" on="1"/>
        <pt x="559" y="449" on="0"/>
        <pt x="559" y="497" on="0"/>
        <pt x="558" y="531" on="0"/>
        <pt x="557" y="555" on="0"/>
        <pt x="556" y="567" on="1"/>
        <pt x="554" y="595" on="0"/>
        <pt x="540" y="617" on="0"/>
        <pt x="532" y="624" on="1"/>
        <pt x="523" y="631" on="0"/>
        <pt x="494" y="634" on="0"/>
        <pt x="478" y="634" on="1"/>
        <pt x="474" y="638" on="1"/>
        <pt x="471" y="656" on="1"/>
        <pt x="473" y="660" on="1"/>
        <pt x="480" y="660" on="0"/>
        <pt x="506" y="658" on="0"/>
        <pt x="533" y="656" on="0"/>
        <pt x="559" y="654" on="0"/>
        <pt x="566" y="654" on="1"/>
        <pt x="613" y="654" on="1"/>
        <pt x="620" y="654" on="0"/>
        <pt x="646" y="655" on="0"/>
        <pt x="674" y="657" on="0"/>
        <pt x="700" y="659" on="0"/>
        <pt x="707" y="660" on="1"/>
      </contour>
    </TTGlyph>
    <TTGlyph name="O" xMin="55" yMin="-11" xMax="709" yMax="665">
      <contour>
        <pt x="382" y="665" on="1"/>
        <pt x="460" y="665" on="0"/>
        <pt x="582" y="611" on="0"/>
        <pt x="665" y="518" on="0"/>
        <pt x="709" y="396" on="0"/>
        <pt x="709" y="329" on="1"/>
        <pt x="709" y="263" on="0"/>
        <pt x="666" y="140" on="0"/>
        <pt x="582" y="46" on="0"/>
        <pt x="457" y="-11" on="0"/>
        <pt x="375" y="-11" on="1"/>
        <pt x="295" y="-11" on="0"/>
        <pt x="176" y="43" on="0"/>
        <pt x="95" y="134" on="0"/>
        <pt x="55" y="255" on="0"/>
        <pt x="55" y="322" on="1"/>
        <pt x="55" y="393" on="0"/>
        <pt x="99" y="518" on="0"/>
        <pt x="183" y="611" on="0"/>
        <pt x="305" y="665" on="0"/>
      </contour>
      <contour>
        <pt x="381" y="42" on="1"/>
        <pt x="441" y="42" on="0"/>
        <pt x="534" y="87" on="0"/>
        <pt x="598" y="165" on="0"/>
        <pt x="632" y="269" on="0"/>
        <pt x="632" y="328" on="1"/>
        <pt x="632" y="388" on="0"/>
        <pt x="597" y="492" on="0"/>
        <pt x="531" y="569" on="0"/>
        <pt x="436" y="612" on="0"/>
        <pt x="376" y="612" on="1"/>
        <pt x="317" y="612" on="0"/>
        <pt x="226" y="569" on="0"/>
        <pt x="164" y="493" on="0"/>
        <pt x="133" y="390" on="0"/>
        <pt x="133" y="329" on="1"/>
        <pt x="133" y="262" on="0"/>
        <pt x="169" y="156" on="0"/>
        <pt x="235" y="82" on="0"/>
        <pt x="326" y="42" on="0"/>
      </contour>
    </TTGlyph>
    <TTGlyph name="OE" xMin="56" yMin="-11" xMax="921" yMax="665">
      <contour>
        <pt x="520" y="546" on="1"/>
        <pt x="508" y="581" on="0"/>
        <pt x="451" y="612" on="0"/>
        <pt x="392" y="612" on="1"/>
        <pt x="320" y="612" on="0"/>
        <pt x="222" y="571" on="0"/>
        <pt x="162" y="498" on="0"/>
        <pt x="136" y="397" on="0"/>
        <pt x="136" y="337" on="1"/>
        <pt x="136" y="260" on="0"/>
        <pt x="173" y="149" on="0"/>
        <pt x="242" y="76" on="0"/>
        <pt x="339" y="41" on="0"/>
        <pt x="399" y="41" on="1"/>
        <pt x="423" y="41" on="0"/>
        <pt x="487" y="50" on="0"/>
        <pt x="525" y="66" on="1"/>
        <pt x="527" y="81" on="0"/>
        <pt x="530" y="108" on="0"/>
        <pt x="532" y="140" on="0"/>
        <pt x="533" y="181" on="0"/>
        <pt x="533" y="211" on="1"/>
        <pt x="533" y="414" on="1"/>
        <pt x="533" y="467" on="0"/>
        <pt x="527" y="526" on="0"/>
      </contour>
      <contour>
        <pt x="723" y="654" on="1"/>
        <pt x="736" y="654" on="0"/>
        <pt x="789" y="655" on="0"/>
        <pt x="843" y="657" on="0"/>
        <pt x="886" y="658" on="0"/>
        <pt x="891" y="658" on="1"/>
        <pt x="896" y="648" on="1"/>
        <pt x="892" y="539" on="1"/>
        <pt x="866" y="539" on="1"/>
        <pt x="863" y="543" on="1"/>
        <pt x="861" y="566" on="0"/>
        <pt x="854" y="592" on="0"/>
        <pt x="821" y="604" on="0"/>
        <pt x="754" y="606" on="0"/>
        <pt x="694" y="606" on="1"/>
        <pt x="609" y="606" on="1"/>
        <pt x="606" y="567" on="1"/>
        <pt x="605" y="552" on="0"/>
        <pt x="604" y="511" on="0"/>
        <pt x="603" y="467" on="0"/>
        <pt x="603" y="428" on="0"/>
        <pt x="603" y="415" on="1"/>
        <pt x="603" y="366" on="1"/>
        <pt x="676" y="367" on="0"/>
        <pt x="759" y="369" on="0"/>
        <pt x="773" y="383" on="1"/>
        <pt x="779" y="389" on="0"/>
        <pt x="793" y="417" on="0"/>
        <pt x="793" y="432" on="1"/>
        <pt x="798" y="436" on="1"/>
        <pt x="815" y="438" on="1"/>
        <pt x="819" y="436" on="1"/>
        <pt x="817" y="414" on="0"/>
        <pt x="814" y="370" on="0"/>
        <pt x="814" y="347" on="1"/>
        <pt x="814" y="324" on="0"/>
        <pt x="817" y="283" on="0"/>
        <pt x="819" y="259" on="1"/>
        <pt x="815" y="257" on="1"/>
        <pt x="797" y="259" on="1"/>
        <pt x="793" y="262" on="1"/>
        <pt x="793" y="278" on="0"/>
        <pt x="780" y="308" on="0"/>
        <pt x="773" y="314" on="1"/>
        <pt x="759" y="327" on="0"/>
        <pt x="672" y="327" on="0"/>
        <pt x="603" y="328" on="1"/>
        <pt x="603" y="231" on="1"/>
        <pt x="603" y="195" on="0"/>
        <pt x="603" y="150" on="0"/>
        <pt x="604" y="115" on="0"/>
        <pt x="606" y="86" on="0"/>
        <pt x="608" y="67" on="1"/>
        <pt x="609" y="48" on="0"/>
        <pt x="629" y="48" on="1"/>
        <pt x="704" y="48" on="1"/>
        <pt x="764" y="48" on="0"/>
        <pt x="832" y="53" on="0"/>
        <pt x="869" y="69" on="0"/>
        <pt x="884" y="102" on="0"/>
        <pt x="891" y="129" on="1"/>
        <pt x="895" y="133" on="1"/>
        <pt x="921" y="133" on="1"/>
        <pt x="902" y="6" on="1"/>
        <pt x="895" y="-4" on="1"/>
        <pt x="890" y="-4" on="0"/>
        <pt x="854" y="-3" on="0"/>
        <pt x="809" y="-1" on="0"/>
        <pt x="763" y="0" on="0"/>
        <pt x="750" y="0" on="1"/>
        <pt x="596" y="0" on="1"/>
        <pt x="575" y="0" on="0"/>
        <pt x="525" y="-3" on="0"/>
        <pt x="471" y="-8" on="0"/>
        <pt x="416" y="-11" on="0"/>
        <pt x="392" y="-11" on="1"/>
        <pt x="308" y="-11" on="0"/>
        <pt x="182" y="37" on="0"/>
        <pt x="98" y="125" on="0"/>
        <pt x="56" y="248" on="0"/>
        <pt x="56" y="322" on="1"/>
        <pt x="56" y="393" on="0"/>
        <pt x="95" y="518" on="0"/>
        <pt x="175" y="611" on="0"/>
        <pt x="299" y="665" on="0"/>
        <pt x="383" y="665" on="1"/>
        <pt x="428" y="665" on="0"/>
        <pt x="512" y="654" on="0"/>
        <pt x="568" y="654" on="1"/>
      </contour>
    </TTGlyph>
    <TTGlyph name="Oacute" xMin="55" yMin="-11" xMax="709" yMax="848">
      <contour>
        <pt x="382" y="665" on="1"/>
        <pt x="460" y="665" on="0"/>
        <pt x="582" y="611" on="0"/>
        <pt x="665" y="518" on="0"/>
        <pt x="709" y="396" on="0"/>
        <pt x="709" y="329" on="1"/>
        <pt x="709" y="263" on="0"/>
        <pt x="666" y="140" on="0"/>
        <pt x="582" y="46" on="0"/>
        <pt x="457" y="-11" on="0"/>
        <pt x="375" y="-11" on="1"/>
        <pt x="295" y="-11" on="0"/>
        <pt x="176" y="43" on="0"/>
        <pt x="95" y="134" on="0"/>
        <pt x="55" y="255" on="0"/>
        <pt x="55" y="322" on="1"/>
        <pt x="55" y="393" on="0"/>
        <pt x="99" y="518" on="0"/>
        <pt x="183" y="611" on="0"/>
        <pt x="305" y="665" on="0"/>
      </contour>
      <contour>
        <pt x="381" y="42" on="1"/>
        <pt x="441" y="42" on="0"/>
        <pt x="534" y="87" on="0"/>
        <pt x="598" y="165" on="0"/>
        <pt x="632" y="269" on="0"/>
        <pt x="632" y="328" on="1"/>
        <pt x="632" y="388" on="0"/>
        <pt x="597" y="492" on="0"/>
        <pt x="531" y="569" on="0"/>
        <pt x="436" y="612" on="0"/>
        <pt x="376" y="612" on="1"/>
        <pt x="317" y="612" on="0"/>
        <pt x="226" y="569" on="0"/>
        <pt x="164" y="493" on="0"/>
        <pt x="133" y="390" on="0"/>
        <pt x="133" y="329" on="1"/>
        <pt x="133" y="262" on="0"/>
        <pt x="169" y="156" on="0"/>
        <pt x="235" y="82" on="0"/>
        <pt x="326" y="42" on="0"/>
      </contour>
      <contour>
        <pt x="306" y="721" on="1"/>
        <pt x="301" y="741" on="1"/>
        <pt x="304" y="748" on="1"/>
        <pt x="484" y="848" on="1"/>
        <pt x="501" y="847" on="0"/>
        <pt x="519" y="828" on="0"/>
        <pt x="519" y="814" on="1"/>
        <pt x="519" y="805" on="0"/>
        <pt x="516" y="795" on="1"/>
        <pt x="314" y="718" on="1"/>
      </contour>
    </TTGlyph>
    <TTGlyph name="Ocircumflex" xMin="55" yMin="-11" xMax="709" yMax="842">
      <contour>
        <pt x="382" y="665" on="1"/>
        <pt x="460" y="665" on="0"/>
        <pt x="582" y="611" on="0"/>
        <pt x="665" y="518" on="0"/>
        <pt x="709" y="396" on="0"/>
        <pt x="709" y="329" on="1"/>
        <pt x="709" y="263" on="0"/>
        <pt x="666" y="140" on="0"/>
        <pt x="582" y="46" on="0"/>
        <pt x="457" y="-11" on="0"/>
        <pt x="375" y="-11" on="1"/>
        <pt x="295" y="-11" on="0"/>
        <pt x="176" y="43" on="0"/>
        <pt x="95" y="134" on="0"/>
        <pt x="55" y="255" on="0"/>
        <pt x="55" y="322" on="1"/>
        <pt x="55" y="393" on="0"/>
        <pt x="99" y="518" on="0"/>
        <pt x="183" y="611" on="0"/>
        <pt x="305" y="665" on="0"/>
      </contour>
      <contour>
        <pt x="381" y="42" on="1"/>
        <pt x="441" y="42" on="0"/>
        <pt x="534" y="87" on="0"/>
        <pt x="598" y="165" on="0"/>
        <pt x="632" y="269" on="0"/>
        <pt x="632" y="328" on="1"/>
        <pt x="632" y="388" on="0"/>
        <pt x="597" y="492" on="0"/>
        <pt x="531" y="569" on="0"/>
        <pt x="436" y="612" on="0"/>
        <pt x="376" y="612" on="1"/>
        <pt x="317" y="612" on="0"/>
        <pt x="226" y="569" on="0"/>
        <pt x="164" y="493" on="0"/>
        <pt x="133" y="390" on="0"/>
        <pt x="133" y="329" on="1"/>
        <pt x="133" y="262" on="0"/>
        <pt x="169" y="156" on="0"/>
        <pt x="235" y="82" on="0"/>
        <pt x="326" y="42" on="0"/>
      </contour>
      <contour>
        <pt x="396" y="842" on="1"/>
        <pt x="506" y="743" on="1"/>
        <pt x="509" y="736" on="1"/>
        <pt x="503" y="716" on="1"/>
        <pt x="496" y="713" on="1"/>
        <pt x="392" y="775" on="1"/>
        <pt x="288" y="713" on="1"/>
        <pt x="281" y="716" on="1"/>
        <pt x="275" y="736" on="1"/>
        <pt x="278" y="743" on="1"/>
        <pt x="388" y="842" on="1"/>
      </contour>
    </TTGlyph>
    <TTGlyph name="Odieresis" xMin="55" yMin="-11" xMax="709" yMax="839">
      <contour>
        <pt x="382" y="665" on="1"/>
        <pt x="460" y="665" on="0"/>
        <pt x="582" y="611" on="0"/>
        <pt x="665" y="518" on="0"/>
        <pt x="709" y="396" on="0"/>
        <pt x="709" y="329" on="1"/>
        <pt x="709" y="263" on="0"/>
        <pt x="666" y="140" on="0"/>
        <pt x="582" y="46" on="0"/>
        <pt x="457" y="-11" on="0"/>
        <pt x="375" y="-11" on="1"/>
        <pt x="295" y="-11" on="0"/>
        <pt x="176" y="43" on="0"/>
        <pt x="95" y="134" on="0"/>
        <pt x="55" y="255" on="0"/>
        <pt x="55" y="322" on="1"/>
        <pt x="55" y="393" on="0"/>
        <pt x="99" y="518" on="0"/>
        <pt x="183" y="611" on="0"/>
        <pt x="305" y="665" on="0"/>
      </contour>
      <contour>
        <pt x="381" y="42" on="1"/>
        <pt x="441" y="42" on="0"/>
        <pt x="534" y="87" on="0"/>
        <pt x="598" y="165" on="0"/>
        <pt x="632" y="269" on="0"/>
        <pt x="632" y="328" on="1"/>
        <pt x="632" y="388" on="0"/>
        <pt x="597" y="492" on="0"/>
        <pt x="531" y="569" on="0"/>
        <pt x="436" y="612" on="0"/>
        <pt x="376" y="612" on="1"/>
        <pt x="317" y="612" on="0"/>
        <pt x="226" y="569" on="0"/>
        <pt x="164" y="493" on="0"/>
        <pt x="133" y="390" on="0"/>
        <pt x="133" y="329" on="1"/>
        <pt x="133" y="262" on="0"/>
        <pt x="169" y="156" on="0"/>
        <pt x="235" y="82" on="0"/>
        <pt x="326" y="42" on="0"/>
      </contour>
      <contour>
        <pt x="263" y="794" on="1"/>
        <pt x="263" y="812" on="0"/>
        <pt x="287" y="839" on="0"/>
        <pt x="304" y="839" on="1"/>
        <pt x="321" y="839" on="0"/>
        <pt x="346" y="812" on="0"/>
        <pt x="346" y="794" on="1"/>
        <pt x="346" y="775" on="0"/>
        <pt x="321" y="750" on="0"/>
        <pt x="304" y="750" on="1"/>
        <pt x="287" y="750" on="0"/>
        <pt x="263" y="775" on="0"/>
      </contour>
      <contour>
        <pt x="420" y="794" on="1"/>
        <pt x="420" y="812" on="0"/>
        <pt x="444" y="839" on="0"/>
        <pt x="461" y="839" on="1"/>
        <pt x="478" y="839" on="0"/>
        <pt x="503" y="812" on="0"/>
        <pt x="503" y="794" on="1"/>
        <pt x="503" y="775" on="0"/>
        <pt x="478" y="750" on="0"/>
        <pt x="461" y="750" on="1"/>
        <pt x="444" y="750" on="0"/>
        <pt x="420" y="775" on="0"/>
      </contour>
    </TTGlyph>
    <TTGlyph name="Ograve" xMin="55" yMin="-11" xMax="709" yMax="848">
      <contour>
        <pt x="382" y="665" on="1"/>
        <pt x="460" y="665" on="0"/>
        <pt x="582" y="611" on="0"/>
        <pt x="665" y="518" on="0"/>
        <pt x="709" y="396" on="0"/>
        <pt x="709" y="329" on="1"/>
        <pt x="709" y="263" on="0"/>
        <pt x="666" y="140" on="0"/>
        <pt x="582" y="46" on="0"/>
        <pt x="457" y="-11" on="0"/>
        <pt x="375" y="-11" on="1"/>
        <pt x="295" y="-11" on="0"/>
        <pt x="176" y="43" on="0"/>
        <pt x="95" y="134" on="0"/>
        <pt x="55" y="255" on="0"/>
        <pt x="55" y="322" on="1"/>
        <pt x="55" y="393" on="0"/>
        <pt x="99" y="518" on="0"/>
        <pt x="183" y="611" on="0"/>
        <pt x="305" y="665" on="0"/>
      </contour>
      <contour>
        <pt x="381" y="42" on="1"/>
        <pt x="441" y="42" on="0"/>
        <pt x="534" y="87" on="0"/>
        <pt x="598" y="165" on="0"/>
        <pt x="632" y="269" on="0"/>
        <pt x="632" y="328" on="1"/>
        <pt x="632" y="388" on="0"/>
        <pt x="597" y="492" on="0"/>
        <pt x="531" y="569" on="0"/>
        <pt x="436" y="612" on="0"/>
        <pt x="376" y="612" on="1"/>
        <pt x="317" y="612" on="0"/>
        <pt x="226" y="569" on="0"/>
        <pt x="164" y="493" on="0"/>
        <pt x="133" y="390" on="0"/>
        <pt x="133" y="329" on="1"/>
        <pt x="133" y="262" on="0"/>
        <pt x="169" y="156" on="0"/>
        <pt x="235" y="82" on="0"/>
        <pt x="326" y="42" on="0"/>
      </contour>
      <contour>
        <pt x="449" y="718" on="1"/>
        <pt x="248" y="795" on="1"/>
        <pt x="244" y="804" on="0"/>
        <pt x="244" y="814" on="1"/>
        <pt x="244" y="828" on="0"/>
        <pt x="262" y="847" on="0"/>
        <pt x="279" y="848" on="1"/>
        <pt x="459" y="748" on="1"/>
        <pt x="462" y="741" on="1"/>
        <pt x="457" y="721" on="1"/>
      </contour>
    </TTGlyph>
    <TTGlyph name="Oslash" xMin="41" yMin="-19" xMax="710" yMax="676">
      <contour>
        <pt x="382" y="665" on="1"/>
        <pt x="442" y="665" on="0"/>
        <pt x="540" y="634" on="0"/>
        <pt x="579" y="605" on="1"/>
        <pt x="637" y="672" on="1"/>
        <pt x="643" y="676" on="1"/>
        <pt x="709" y="676" on="1"/>
        <pt x="707" y="672" on="1"/>
        <pt x="619" y="569" on="1"/>
        <pt x="664" y="523" on="0"/>
        <pt x="710" y="398" on="0"/>
        <pt x="710" y="329" on="1"/>
        <pt x="710" y="263" on="0"/>
        <pt x="667" y="140" on="0"/>
        <pt x="583" y="46" on="0"/>
        <pt x="458" y="-11" on="0"/>
        <pt x="376" y="-11" on="1"/>
        <pt x="312" y="-11" on="0"/>
        <pt x="211" y="22" on="0"/>
        <pt x="172" y="53" on="1"/>
        <pt x="113" y="-15" on="1"/>
        <pt x="108" y="-19" on="1"/>
        <pt x="41" y="-19" on="1"/>
        <pt x="43" y="-15" on="1"/>
        <pt x="134" y="90" on="1"/>
        <pt x="95" y="136" on="0"/>
        <pt x="55" y="255" on="0"/>
        <pt x="55" y="322" on="1"/>
        <pt x="55" y="393" on="0"/>
        <pt x="100" y="518" on="0"/>
        <pt x="184" y="611" on="0"/>
        <pt x="305" y="665" on="0"/>
      </contour>
      <contour>
        <pt x="381" y="42" on="1"/>
        <pt x="441" y="42" on="0"/>
        <pt x="534" y="87" on="0"/>
        <pt x="599" y="165" on="0"/>
        <pt x="632" y="269" on="0"/>
        <pt x="632" y="328" on="1"/>
        <pt x="632" y="384" on="0"/>
        <pt x="602" y="480" on="0"/>
        <pt x="573" y="517" on="1"/>
        <pt x="217" y="105" on="1"/>
        <pt x="282" y="42" on="0"/>
      </contour>
      <contour>
        <pt x="134" y="329" on="1"/>
        <pt x="134" y="218" on="0"/>
        <pt x="183" y="146" on="1"/>
        <pt x="537" y="556" on="1"/>
        <pt x="505" y="582" on="0"/>
        <pt x="425" y="612" on="0"/>
        <pt x="377" y="612" on="1"/>
        <pt x="318" y="612" on="0"/>
        <pt x="227" y="569" on="0"/>
        <pt x="165" y="493" on="0"/>
        <pt x="134" y="390" on="0"/>
      </contour>
    </TTGlyph>
    <TTGlyph name="Otilde" xMin="55" yMin="-11" xMax="709" yMax="840">
      <contour>
        <pt x="382" y="665" on="1"/>
        <pt x="460" y="665" on="0"/>
        <pt x="582" y="611" on="0"/>
        <pt x="665" y="518" on="0"/>
        <pt x="709" y="396" on="0"/>
        <pt x="709" y="329" on="1"/>
        <pt x="709" y="263" on="0"/>
        <pt x="666" y="140" on="0"/>
        <pt x="582" y="46" on="0"/>
        <pt x="457" y="-11" on="0"/>
        <pt x="375" y="-11" on="1"/>
        <pt x="295" y="-11" on="0"/>
        <pt x="176" y="43" on="0"/>
        <pt x="95" y="134" on="0"/>
        <pt x="55" y="255" on="0"/>
        <pt x="55" y="322" on="1"/>
        <pt x="55" y="393" on="0"/>
        <pt x="99" y="518" on="0"/>
        <pt x="183" y="611" on="0"/>
        <pt x="305" y="665" on="0"/>
      </contour>
      <contour>
        <pt x="381" y="42" on="1"/>
        <pt x="441" y="42" on="0"/>
        <pt x="534" y="87" on="0"/>
        <pt x="598" y="165" on="0"/>
        <pt x="632" y="269" on="0"/>
        <pt x="632" y="328" on="1"/>
        <pt x="632" y="388" on="0"/>
        <pt x="597" y="492" on="0"/>
        <pt x="531" y="569" on="0"/>
        <pt x="436" y="612" on="0"/>
        <pt x="376" y="612" on="1"/>
        <pt x="317" y="612" on="0"/>
        <pt x="226" y="569" on="0"/>
        <pt x="164" y="493" on="0"/>
        <pt x="133" y="390" on="0"/>
        <pt x="133" y="329" on="1"/>
        <pt x="133" y="262" on="0"/>
        <pt x="169" y="156" on="0"/>
        <pt x="235" y="82" on="0"/>
        <pt x="326" y="42" on="0"/>
      </contour>
      <contour>
        <pt x="539" y="832" on="1"/>
        <pt x="536" y="818" on="0"/>
        <pt x="523" y="791" on="0"/>
        <pt x="502" y="769" on="0"/>
        <pt x="472" y="755" on="0"/>
        <pt x="451" y="755" on="1"/>
        <pt x="411" y="755" on="0"/>
        <pt x="328" y="769" on="0"/>
        <pt x="296" y="769" on="1"/>
        <pt x="271" y="769" on="0"/>
        <pt x="251" y="756" on="0"/>
        <pt x="241" y="744" on="1"/>
        <pt x="228" y="752" on="1"/>
        <pt x="232" y="765" on="0"/>
        <pt x="246" y="793" on="0"/>
        <pt x="267" y="814" on="0"/>
        <pt x="298" y="828" on="0"/>
        <pt x="319" y="828" on="1"/>
        <pt x="344" y="828" on="0"/>
        <pt x="381" y="824" on="0"/>
        <pt x="413" y="818" on="0"/>
        <pt x="443" y="814" on="0"/>
        <pt x="462" y="814" on="1"/>
        <pt x="479" y="814" on="0"/>
        <pt x="513" y="822" on="0"/>
        <pt x="527" y="840" on="1"/>
      </contour>
    </TTGlyph>
    <TTGlyph name="P" xMin="43" yMin="-6" xMax="518" yMax="660">
      <contour>
        <pt x="288" y="-6" on="1"/>
        <pt x="281" y="-6" on="0"/>
        <pt x="249" y="-4" on="0"/>
        <pt x="215" y="-2" on="0"/>
        <pt x="183" y="0" on="0"/>
        <pt x="176" y="0" on="1"/>
        <pt x="157" y="0" on="1"/>
        <pt x="150" y="0" on="0"/>
        <pt x="118" y="-2" on="0"/>
        <pt x="84" y="-4" on="0"/>
        <pt x="52" y="-6" on="0"/>
        <pt x="45" y="-6" on="1"/>
        <pt x="43" y="-2" on="1"/>
        <pt x="46" y="16" on="1"/>
        <pt x="51" y="20" on="1"/>
        <pt x="63" y="20" on="0"/>
        <pt x="95" y="23" on="0"/>
        <pt x="104" y="29" on="1"/>
        <pt x="112" y="35" on="0"/>
        <pt x="126" y="61" on="0"/>
        <pt x="129" y="87" on="1"/>
        <pt x="129" y="94" on="0"/>
        <pt x="130" y="113" on="0"/>
        <pt x="131" y="141" on="0"/>
        <pt x="131" y="181" on="0"/>
        <pt x="131" y="211" on="1"/>
        <pt x="131" y="471" on="1"/>
        <pt x="131" y="491" on="0"/>
        <pt x="131" y="542" on="0"/>
        <pt x="129" y="567" on="1"/>
        <pt x="127" y="593" on="0"/>
        <pt x="112" y="617" on="0"/>
        <pt x="104" y="624" on="1"/>
        <pt x="95" y="629" on="0"/>
        <pt x="76" y="634" on="0"/>
        <pt x="51" y="634" on="1"/>
        <pt x="46" y="638" on="1"/>
        <pt x="43" y="656" on="1"/>
        <pt x="45" y="660" on="1"/>
        <pt x="52" y="660" on="0"/>
        <pt x="75" y="658" on="0"/>
        <pt x="100" y="656" on="0"/>
        <pt x="126" y="654" on="0"/>
        <pt x="137" y="654" on="1"/>
        <pt x="173" y="654" on="1"/>
        <pt x="184" y="654" on="0"/>
        <pt x="212" y="654" on="0"/>
        <pt x="241" y="655" on="0"/>
        <pt x="265" y="655" on="0"/>
        <pt x="273" y="655" on="1"/>
        <pt x="340" y="655" on="0"/>
        <pt x="433" y="629" on="0"/>
        <pt x="491" y="581" on="0"/>
        <pt x="518" y="514" on="0"/>
        <pt x="518" y="474" on="1"/>
        <pt x="518" y="416" on="0"/>
        <pt x="470" y="341" on="0"/>
        <pt x="395" y="298" on="0"/>
        <pt x="302" y="282" on="0"/>
        <pt x="258" y="282" on="1"/>
        <pt x="202" y="282" on="1"/>
        <pt x="202" y="255" on="0"/>
        <pt x="202" y="195" on="0"/>
        <pt x="203" y="141" on="0"/>
        <pt x="204" y="97" on="0"/>
        <pt x="205" y="87" on="1"/>
        <pt x="207" y="58" on="0"/>
        <pt x="223" y="35" on="0"/>
        <pt x="229" y="30" on="1"/>
        <pt x="238" y="25" on="0"/>
        <pt x="257" y="20" on="0"/>
        <pt x="283" y="20" on="1"/>
        <pt x="287" y="16" on="1"/>
        <pt x="290" y="-2" on="1"/>
      </contour>
      <contour>
        <pt x="293" y="326" on="1"/>
        <pt x="377" y="326" on="0"/>
        <pt x="449" y="402" on="0"/>
        <pt x="449" y="469" on="1"/>
        <pt x="449" y="538" on="0"/>
        <pt x="366" y="606" on="0"/>
        <pt x="294" y="606" on="1"/>
        <pt x="207" y="606" on="1"/>
        <pt x="205" y="577" on="0"/>
        <pt x="204" y="537" on="0"/>
        <pt x="202" y="507" on="0"/>
        <pt x="202" y="483" on="0"/>
        <pt x="202" y="472" on="1"/>
        <pt x="202" y="363" on="1"/>
        <pt x="202" y="350" on="0"/>
        <pt x="204" y="335" on="0"/>
        <pt x="212" y="328" on="0"/>
        <pt x="227" y="326" on="0"/>
        <pt x="240" y="326" on="1"/>
      </contour>
    </TTGlyph>
    <TTGlyph name="Q" xMin="55" yMin="-138" xMax="796" yMax="665">
      <contour>
        <pt x="382" y="665" on="1"/>
        <pt x="460" y="665" on="0"/>
        <pt x="582" y="611" on="0"/>
        <pt x="665" y="519" on="0"/>
        <pt x="709" y="397" on="0"/>
        <pt x="709" y="330" on="1"/>
        <pt x="709" y="266" on="0"/>
        <pt x="669" y="147" on="0"/>
        <pt x="591" y="54" on="0"/>
        <pt x="475" y="-6" on="0"/>
        <pt x="399" y="-10" on="1"/>
        <pt x="451" y="-11" on="0"/>
        <pt x="532" y="-33" on="0"/>
        <pt x="604" y="-60" on="0"/>
        <pt x="673" y="-82" on="0"/>
        <pt x="714" y="-82" on="1"/>
        <pt x="728" y="-82" on="0"/>
        <pt x="767" y="-76" on="0"/>
        <pt x="789" y="-63" on="1"/>
        <pt x="792" y="-65" on="1"/>
        <pt x="796" y="-73" on="1"/>
        <pt x="795" y="-77" on="1"/>
        <pt x="773" y="-103" on="0"/>
        <pt x="713" y="-138" on="0"/>
        <pt x="675" y="-138" on="1"/>
        <pt x="641" y="-138" on="0"/>
        <pt x="569" y="-110" on="0"/>
        <pt x="491" y="-76" on="0"/>
        <pt x="407" y="-48" on="0"/>
        <pt x="361" y="-48" on="1"/>
        <pt x="323" y="-48" on="0"/>
        <pt x="254" y="-67" on="0"/>
        <pt x="237" y="-78" on="1"/>
        <pt x="234" y="-77" on="1"/>
        <pt x="229" y="-63" on="1"/>
        <pt x="230" y="-60" on="1"/>
        <pt x="252" y="-45" on="0"/>
        <pt x="326" y="-14" on="0"/>
        <pt x="369" y="-11" on="1"/>
        <pt x="291" y="-10" on="0"/>
        <pt x="173" y="44" on="0"/>
        <pt x="95" y="135" on="0"/>
        <pt x="55" y="255" on="0"/>
        <pt x="55" y="322" on="1"/>
        <pt x="55" y="393" on="0"/>
        <pt x="99" y="518" on="0"/>
        <pt x="183" y="611" on="0"/>
        <pt x="305" y="665" on="0"/>
      </contour>
      <contour>
        <pt x="381" y="42" on="1"/>
        <pt x="441" y="42" on="0"/>
        <pt x="534" y="87" on="0"/>
        <pt x="598" y="165" on="0"/>
        <pt x="632" y="269" on="0"/>
        <pt x="632" y="328" on="1"/>
        <pt x="632" y="388" on="0"/>
        <pt x="597" y="492" on="0"/>
        <pt x="531" y="569" on="0"/>
        <pt x="436" y="612" on="0"/>
        <pt x="376" y="612" on="1"/>
        <pt x="317" y="612" on="0"/>
        <pt x="226" y="569" on="0"/>
        <pt x="164" y="493" on="0"/>
        <pt x="133" y="390" on="0"/>
        <pt x="133" y="329" on="1"/>
        <pt x="133" y="262" on="0"/>
        <pt x="169" y="156" on="0"/>
        <pt x="235" y="82" on="0"/>
        <pt x="326" y="42" on="0"/>
      </contour>
    </TTGlyph>
    <TTGlyph name="Q.salt" xMin="55" yMin="-154" xMax="732" yMax="665">
      <contour>
        <pt x="382" y="665" on="1"/>
        <pt x="460" y="665" on="0"/>
        <pt x="582" y="611" on="0"/>
        <pt x="665" y="518" on="0"/>
        <pt x="709" y="396" on="0"/>
        <pt x="709" y="329" on="1"/>
        <pt x="709" y="275" on="0"/>
        <pt x="681" y="174" on="0"/>
        <pt x="625" y="88" on="0"/>
        <pt x="542" y="22" on="0"/>
        <pt x="488" y="5" on="1"/>
        <pt x="467" y="-2" on="0"/>
        <pt x="421" y="-10" on="0"/>
        <pt x="376" y="-18" on="0"/>
        <pt x="334" y="-28" on="0"/>
        <pt x="317" y="-36" on="1"/>
        <pt x="318" y="-39" on="1"/>
        <pt x="367" y="-41" on="0"/>
        <pt x="452" y="-57" on="0"/>
        <pt x="530" y="-73" on="0"/>
        <pt x="605" y="-86" on="0"/>
        <pt x="645" y="-86" on="1"/>
        <pt x="659" y="-86" on="0"/>
        <pt x="701" y="-79" on="0"/>
        <pt x="724" y="-64" on="1"/>
        <pt x="728" y="-66" on="1"/>
        <pt x="732" y="-76" on="1"/>
        <pt x="731" y="-81" on="1"/>
        <pt x="706" y="-113" on="0"/>
        <pt x="643" y="-154" on="0"/>
        <pt x="602" y="-154" on="1"/>
        <pt x="566" y="-154" on="0"/>
        <pt x="495" y="-134" on="0"/>
        <pt x="418" y="-110" on="0"/>
        <pt x="328" y="-90" on="0"/>
        <pt x="273" y="-90" on="1"/>
        <pt x="260" y="-90" on="0"/>
        <pt x="228" y="-92" on="0"/>
        <pt x="195" y="-97" on="0"/>
        <pt x="165" y="-107" on="0"/>
        <pt x="156" y="-114" on="1"/>
        <pt x="152" y="-113" on="1"/>
        <pt x="147" y="-96" on="1"/>
        <pt x="148" y="-93" on="1"/>
        <pt x="166" y="-78" on="0"/>
        <pt x="219" y="-48" on="0"/>
        <pt x="251" y="-41" on="1"/>
        <pt x="303" y="-7" on="1"/>
        <pt x="302" y="-4" on="1"/>
        <pt x="240" y="7" on="0"/>
        <pt x="148" y="67" on="0"/>
        <pt x="86" y="154" on="0"/>
        <pt x="55" y="263" on="0"/>
        <pt x="55" y="322" on="1"/>
        <pt x="55" y="393" on="0"/>
        <pt x="99" y="518" on="0"/>
        <pt x="183" y="611" on="0"/>
        <pt x="305" y="665" on="0"/>
      </contour>
      <contour>
        <pt x="381" y="42" on="1"/>
        <pt x="441" y="42" on="0"/>
        <pt x="534" y="87" on="0"/>
        <pt x="598" y="165" on="0"/>
        <pt x="632" y="269" on="0"/>
        <pt x="632" y="328" on="1"/>
        <pt x="632" y="388" on="0"/>
        <pt x="597" y="492" on="0"/>
        <pt x="531" y="569" on="0"/>
        <pt x="436" y="612" on="0"/>
        <pt x="376" y="612" on="1"/>
        <pt x="317" y="612" on="0"/>
        <pt x="226" y="569" on="0"/>
        <pt x="164" y="493" on="0"/>
        <pt x="133" y="390" on="0"/>
        <pt x="133" y="329" on="1"/>
        <pt x="133" y="262" on="0"/>
        <pt x="169" y="156" on="0"/>
        <pt x="235" y="82" on="0"/>
        <pt x="326" y="42" on="0"/>
      </contour>
    </TTGlyph>
    <TTGlyph name="R" xMin="43" yMin="-10" xMax="669" yMax="660">
      <contour>
        <pt x="288" y="-6" on="1"/>
        <pt x="281" y="-6" on="0"/>
        <pt x="249" y="-4" on="0"/>
        <pt x="215" y="-2" on="0"/>
        <pt x="183" y="0" on="0"/>
        <pt x="176" y="0" on="1"/>
        <pt x="157" y="0" on="1"/>
        <pt x="150" y="0" on="0"/>
        <pt x="118" y="-2" on="0"/>
        <pt x="84" y="-4" on="0"/>
        <pt x="52" y="-6" on="0"/>
        <pt x="45" y="-6" on="1"/>
        <pt x="43" y="-2" on="1"/>
        <pt x="46" y="16" on="1"/>
        <pt x="51" y="20" on="1"/>
        <pt x="63" y="20" on="0"/>
        <pt x="95" y="23" on="0"/>
        <pt x="104" y="29" on="1"/>
        <pt x="112" y="35" on="0"/>
        <pt x="126" y="61" on="0"/>
        <pt x="129" y="87" on="1"/>
        <pt x="129" y="94" on="0"/>
        <pt x="130" y="113" on="0"/>
        <pt x="131" y="141" on="0"/>
        <pt x="131" y="181" on="0"/>
        <pt x="131" y="211" on="1"/>
        <pt x="131" y="471" on="1"/>
        <pt x="131" y="491" on="0"/>
        <pt x="130" y="542" on="0"/>
        <pt x="128" y="567" on="1"/>
        <pt x="126" y="590" on="0"/>
        <pt x="112" y="617" on="0"/>
        <pt x="104" y="624" on="1"/>
        <pt x="95" y="629" on="0"/>
        <pt x="76" y="634" on="0"/>
        <pt x="51" y="634" on="1"/>
        <pt x="46" y="638" on="1"/>
        <pt x="43" y="656" on="1"/>
        <pt x="45" y="660" on="1"/>
        <pt x="52" y="660" on="0"/>
        <pt x="75" y="658" on="0"/>
        <pt x="100" y="656" on="0"/>
        <pt x="126" y="654" on="0"/>
        <pt x="137" y="654" on="1"/>
        <pt x="173" y="654" on="1"/>
        <pt x="184" y="654" on="0"/>
        <pt x="212" y="654" on="0"/>
        <pt x="241" y="655" on="0"/>
        <pt x="265" y="655" on="0"/>
        <pt x="273" y="655" on="1"/>
        <pt x="340" y="655" on="0"/>
        <pt x="433" y="629" on="0"/>
        <pt x="491" y="584" on="0"/>
        <pt x="518" y="521" on="0"/>
        <pt x="518" y="485" on="1"/>
        <pt x="518" y="442" on="0"/>
        <pt x="487" y="379" on="0"/>
        <pt x="439" y="334" on="0"/>
        <pt x="379" y="307" on="0"/>
        <pt x="350" y="300" on="1"/>
        <pt x="382" y="255" on="0"/>
        <pt x="450" y="167" on="0"/>
        <pt x="486" y="125" on="1"/>
        <pt x="506" y="102" on="0"/>
        <pt x="540" y="66" on="0"/>
        <pt x="579" y="40" on="0"/>
        <pt x="627" y="24" on="0"/>
        <pt x="661" y="20" on="1"/>
        <pt x="667" y="16" on="1"/>
        <pt x="669" y="-2" on="1"/>
        <pt x="667" y="-6" on="1"/>
        <pt x="645" y="-7" on="0"/>
        <pt x="589" y="-10" on="0"/>
        <pt x="573" y="-10" on="1"/>
        <pt x="547" y="-10" on="0"/>
        <pt x="509" y="2" on="0"/>
        <pt x="473" y="28" on="0"/>
        <pt x="436" y="70" on="0"/>
        <pt x="412" y="99" on="1"/>
        <pt x="409" y="102" on="0"/>
        <pt x="380" y="143" on="0"/>
        <pt x="339" y="200" on="0"/>
        <pt x="294" y="265" on="0"/>
        <pt x="275" y="293" on="1"/>
        <pt x="202" y="293" on="1"/>
        <pt x="202" y="266" on="0"/>
        <pt x="202" y="202" on="0"/>
        <pt x="203" y="144" on="0"/>
        <pt x="204" y="97" on="0"/>
        <pt x="205" y="87" on="1"/>
        <pt x="207" y="58" on="0"/>
        <pt x="223" y="35" on="0"/>
        <pt x="229" y="30" on="1"/>
        <pt x="238" y="25" on="0"/>
        <pt x="257" y="20" on="0"/>
        <pt x="283" y="20" on="1"/>
        <pt x="287" y="16" on="1"/>
        <pt x="290" y="-2" on="1"/>
      </contour>
      <contour>
        <pt x="293" y="337" on="1"/>
        <pt x="376" y="337" on="0"/>
        <pt x="449" y="414" on="0"/>
        <pt x="449" y="479" on="1"/>
        <pt x="449" y="540" on="0"/>
        <pt x="366" y="606" on="0"/>
        <pt x="294" y="606" on="1"/>
        <pt x="207" y="606" on="1"/>
        <pt x="205" y="577" on="0"/>
        <pt x="204" y="537" on="0"/>
        <pt x="202" y="507" on="0"/>
        <pt x="202" y="483" on="0"/>
        <pt x="202" y="472" on="1"/>
        <pt x="202" y="374" on="1"/>
        <pt x="202" y="361" on="0"/>
        <pt x="204" y="346" on="0"/>
        <pt x="212" y="339" on="0"/>
        <pt x="227" y="337" on="0"/>
        <pt x="240" y="337" on="1"/>
      </contour>
    </TTGlyph>
    <TTGlyph name="S" xMin="55" yMin="-11" xMax="505" yMax="665">
      <contour>
        <pt x="138" y="508" on="1"/>
        <pt x="138" y="480" on="0"/>
        <pt x="158" y="443" on="0"/>
        <pt x="199" y="415" on="0"/>
        <pt x="262" y="392" on="0"/>
        <pt x="305" y="379" on="1"/>
        <pt x="342" y="367" on="0"/>
        <pt x="414" y="337" on="0"/>
        <pt x="471" y="290" on="0"/>
        <pt x="505" y="223" on="0"/>
        <pt x="505" y="175" on="1"/>
        <pt x="505" y="124" on="0"/>
        <pt x="465" y="53" on="0"/>
        <pt x="399" y="9" on="0"/>
        <pt x="312" y="-11" on="0"/>
        <pt x="264" y="-11" on="1"/>
        <pt x="202" y="-11" on="0"/>
        <pt x="100" y="17" on="0"/>
        <pt x="59" y="38" on="1"/>
        <pt x="55" y="51" on="1"/>
        <pt x="72" y="158" on="1"/>
        <pt x="97" y="158" on="1"/>
        <pt x="102" y="152" on="1"/>
        <pt x="107" y="91" on="0"/>
        <pt x="195" y="34" on="0"/>
        <pt x="271" y="34" on="1"/>
        <pt x="349" y="34" on="0"/>
        <pt x="428" y="105" on="0"/>
        <pt x="428" y="162" on="1"/>
        <pt x="428" y="197" on="0"/>
        <pt x="398" y="244" on="0"/>
        <pt x="349" y="277" on="0"/>
        <pt x="286" y="299" on="0"/>
        <pt x="254" y="310" on="1"/>
        <pt x="214" y="323" on="0"/>
        <pt x="145" y="354" on="0"/>
        <pt x="94" y="396" on="0"/>
        <pt x="65" y="454" on="0"/>
        <pt x="65" y="494" on="1"/>
        <pt x="65" y="541" on="0"/>
        <pt x="98" y="606" on="0"/>
        <pt x="156" y="647" on="0"/>
        <pt x="233" y="665" on="0"/>
        <pt x="278" y="665" on="1"/>
        <pt x="332" y="665" on="0"/>
        <pt x="428" y="645" on="0"/>
        <pt x="458" y="631" on="1"/>
        <pt x="462" y="620" on="1"/>
        <pt x="448" y="531" on="1"/>
        <pt x="420" y="531" on="1"/>
        <pt x="415" y="536" on="1"/>
        <pt x="413" y="562" on="0"/>
        <pt x="383" y="594" on="0"/>
        <pt x="342" y="612" on="0"/>
        <pt x="295" y="618" on="0"/>
        <pt x="277" y="618" on="1"/>
        <pt x="212" y="618" on="0"/>
        <pt x="138" y="561" on="0"/>
      </contour>
    </TTGlyph>
</ttFont>
